<?xml version="1.0" encoding="UTF-8" standalone="no"?>
<!-- Created with Inkscape (http://www.inkscape.org/) -->

<svg
   xmlns:dc="http://purl.org/dc/elements/1.1/"
   xmlns:cc="http://creativecommons.org/ns#"
   xmlns:rdf="http://www.w3.org/1999/02/22-rdf-syntax-ns#"
   xmlns:svg="http://www.w3.org/2000/svg"
   xmlns="http://www.w3.org/2000/svg"
   xmlns:sodipodi="http://sodipodi.sourceforge.net/DTD/sodipodi-0.dtd"
   xmlns:inkscape="http://www.inkscape.org/namespaces/inkscape"
   width="256"
   height="256"
   viewBox="0 0 67.733332 67.733332"
   version="1.1"
   id="svg8"
   inkscape:version="0.92.0 r15299"
   sodipodi:docname="canton_svg_round.svg">
  <defs
     id="defs2">
    <clipPath
       clipPathUnits="userSpaceOnUse"
       id="clipPath5810">
      <g
         style="fill:#000000;fill-opacity:1;stroke:#010202;stroke-opacity:1"
         id="use5812"
         inkscape:label="Clip">
        <circle
           style="fill:#000000;fill-opacity:1;stroke:#010202;stroke-width:1.68584979;stroke-miterlimit:4;stroke-dasharray:none;stroke-opacity:1"
           id="circle6186"
           cx="33.866665"
           cy="263.13333"
           r="33.866665" />
      </g>
    </clipPath>
    <clipPath
       clipPathUnits="userSpaceOnUse"
       id="clipPath6196">
      <circle
         style="fill:#000000;fill-opacity:1;stroke:#010202;stroke-width:1.32400334;stroke-miterlimit:4;stroke-dasharray:none;stroke-opacity:1"
         id="circle6198"
         cx="33.866673"
         cy="263.13333"
         r="33.204666" />
    </clipPath>
  </defs>
  <sodipodi:namedview
     id="base"
     pagecolor="#ffffff"
     bordercolor="#666666"
     borderopacity="1.0"
     inkscape:pageopacity="0.0"
     inkscape:pageshadow="2"
     inkscape:zoom="1.4"
     inkscape:cx="-82.642857"
     inkscape:cy="132.09869"
     inkscape:document-units="mm"
     inkscape:current-layer="layer1"
     showgrid="false"
     units="px"
     inkscape:window-width="1491"
     inkscape:window-height="833"
     inkscape:window-x="288"
     inkscape:window-y="137"
     inkscape:window-maximized="0" />
  <metadata
     id="metadata5">
    <rdf:RDF>
      <cc:Work
         rdf:about="">
        <dc:format>image/svg+xml</dc:format>
        <dc:type
           rdf:resource="http://purl.org/dc/dcmitype/StillImage" />
        <dc:title />
      </cc:Work>
    </rdf:RDF>
  </metadata>
  <g
     inkscape:label="Ebene 1"
     inkscape:groupmode="layer"
     id="layer1"
     transform="translate(0,-229.26667)">
    <g
       id="g6184"
       clip-path="url(#clipPath6196)"
       transform="matrix(1.0159528,0,0,1.0159528,-0.5402741,-4.197708)"
       inkscape:export-xdpi="96.376465"
       inkscape:export-ydpi="96.376465">
      <g
         id="g6141">
        <g
           id="g6099">
          <polygon
             transform="matrix(0.14433797,0,0,0.14387134,29.395294,258.73023)"
             points="-203.281,-204.24 -203.559,-204.513 -203.281,266 265.363,266 265.363,-204.513 "
             id="polygon5"
             style="fill:#ffffff" />
          <polygon
             transform="matrix(0.14433797,0,0,0.14387134,29.395294,258.73023)"
             points="265.363,265.742 265.098,265.429 265.363,29.553 -203.559,29.553 -203.559,265.742 "
             id="polygon7"
             style="fill:#ffffff" />
          <polygon
             transform="matrix(0.14433797,0,0,0.14387134,29.395294,258.73023)"
             points="-80.262,28.209 -80.535,28.209 -80.262,-204.513 -203.559,-204.513 -203.559,28.209 "
             id="polygon9"
             style="fill:#040304" />
          <rect
             x="17.847101"
             y="229.38191"
             width="17.757467"
             height="33.675964"
             id="rect11"
             style="fill:#ffffff;stroke-width:0.14410447" />
          <polygon
             transform="matrix(0.14433797,0,0,0.14387134,29.395294,258.73023)"
             points="42.754,-204.24 42.754,-87.087 154.051,-87.087 154.051,-204.24 119.441,-204.24 119.176,-204.24 "
             id="polygon13"
             style="fill:#ffd730" />
          <polygon
             transform="matrix(0.14433797,0,0,0.14387134,29.395294,258.73023)"
             points="43.02,29.553 43.02,-87.623 154.316,-87.623 154.316,29.553 119.723,29.553 119.441,29.553 "
             id="polygon17"
             style="fill:#5187c2" />
          <polygon
             transform="matrix(0.14433797,0,0,0.14387134,29.395294,258.73023)"
             points="119.723,-55.666 119.723,-55.919 119.723,29.553 43.02,29.553 43.02,-55.666 "
             id="polygon29"
             style="fill:#ffd730" />
          <polyline
             transform="matrix(0.14433797,0,0,0.14387134,29.395294,258.73023)"
             stroke-miterlimit="10"
             points="   43.02,-55.919 119.723,-55.666 119.723,29.553  "
             id="polyline31"
             style="fill:none;stroke:#040304;stroke-width:3.19199991;stroke-linecap:square;stroke-miterlimit:10" />
          <polygon
             transform="matrix(0.14433797,0,0,0.14387134,29.395294,258.73023)"
             points="188.957,-119.31 188.957,-119.576 188.957,-204.791 265.613,-204.791 265.613,-119.31 "
             id="polygon33"
             style="fill:#ffd730" />
          <g
             transform="matrix(0.14433797,0,0,0.14387134,29.395294,258.73023)"
             id="g35" />
          <polygon
             transform="matrix(0.14433797,0,0,0.14387134,29.395294,258.73023)"
             points="188.676,-55.666 188.676,-55.919 188.676,29.553 265.363,29.553 265.363,-55.666 "
             id="polygon39"
             style="fill:#5187c2" />
          <g
             transform="matrix(0.14433797,0,0,0.14387134,29.395294,258.73023)"
             id="g41" />
          <polygon
             transform="matrix(0.14433797,0,0,0.14387134,29.395294,258.73023)"
             points="-55.23,132.35 -56.031,130.999 -56.551,128.866 -57.902,124.327 -58.969,119.272 -59.77,114.225 -61.113,109.178 -62.68,104.084 -64.551,99.569 -67.496,95.584 -70.961,92.116 -75.727,89.459 -81.59,87.6 -83.711,86.522 -86.113,85.459 -88.512,84.397 -91.176,83.35 -93.566,82.272 -96.23,81.741 -98.641,81.475 -101.039,81.983 -103.688,82.788 -105.832,84.655 -106.633,84.397 -106.879,84.116 -107.16,83.6 -107.16,82.788 -107.16,81.983 -107.422,81.209 -107.422,80.397 -107.688,79.6 -108.215,78.788 -109.023,78.28 -111.16,78.788 -113.016,79.6 -115.145,80.131 -117.016,80.928 -119.152,81.741 -121.281,81.983 -123.398,81.983 -125.527,81.741 -127.398,81.209 -129.52,79.6 -131.129,78.788 -132.457,77.999 -133.793,76.655 -135.121,75.6 -136.449,74.272 -137.785,72.952 -139.121,71.881 -140.457,70.819 -142.031,69.999 -143.641,69.225 -122.055,69.999 -121.801,69.756 -121.535,69.506 -121.281,68.952 -121.016,68.413 -120.727,68.163 -120.727,67.608 -120.727,67.366 -120.727,66.819 -121.281,66.569 -121.801,66.295 -122.336,66.295 -122.855,66.295 -123.398,66.295 -123.918,66.295 -124.184,66.295 -124.473,66.295 -124.727,66.295 -125.008,66.295 -125.246,66.295 -125.801,66.569 -126.863,66.569 -127.918,66.569 -129.008,66.569 -130.047,66.569 -131.383,66.569 -132.457,66.569 -133.512,66.295 -134.582,66.295 -135.664,66.022 -136.449,65.756 -136.449,65.491 -136.711,65.225 -136.992,64.694 -137.512,64.163 -137.785,63.366 -138.313,62.569 -138.848,61.756 -139.121,60.952 -139.383,60.428 -139.641,59.608 -136.992,60.694 -134.047,61.241 -131.129,61.522 -127.918,61.522 -125.008,61.522 -122.055,61.241 -119.152,61.241 -116.207,61.522 -113.289,62.022 -110.625,62.834 -106.352,65.756 -101.559,68.413 -96.777,70.272 -91.711,72.147 -86.391,73.506 -80.793,74.538 -75.465,75.6 -69.879,76.397 -64.297,76.936 -58.688,77.725 -57.641,78.538 -56.551,79.881 -55.512,80.928 -54.688,82.272 -53.633,83.881 -52.84,85.178 -52.039,86.788 -51.23,88.397 -50.449,89.983 -49.359,91.295 -38.184,106.506 -37.664,107.022 -37.137,107.834 -36.59,108.084 -36.336,108.624 -35.793,109.178 -35.246,109.428 -34.734,109.967 -34.184,110.475 -33.398,110.756 -32.59,111.569 -33.926,113.694 -35.246,116.1 -36.336,118.475 -37.383,120.6 -38.457,122.999 -39.254,125.655 -40.328,128.053 -40.848,130.459 -41.672,133.131 -42.184,135.538 -44.039,135.272 -45.664,134.983 -47.512,134.725 -49.359,134.725 -50.977,134.491 -52.566,133.897 -53.902,133.397 "
             id="polygon45"
             style="fill:#040304" />
          <polygon
             transform="matrix(0.14433797,0,0,0.14387134,29.395294,258.73023)"
             points="151.66,141.639 153.52,141.639 156.754,141.928 159.91,142.694 162.848,144.038 165.785,145.624 168.691,147.241 171.379,148.819 174.035,150.428 176.957,151.522 179.879,152.038 182.801,152.038 183.082,152.038 183.613,151.756 184.145,151.522 184.395,151.522 184.926,151.522 185.223,151.241 185.738,151.241 186.02,151.241 185.738,152.038 185.488,152.834 185.223,153.366 184.691,154.178 184.395,154.709 183.613,155.225 182.801,156.038 181.754,156.553 180.145,157.1 178.316,157.366 176.441,157.639 174.816,157.639 173.223,157.1 172.16,156.553 171.098,156.038 170.316,155.772 169.801,155.522 169.254,155.772 168.691,156.28 168.441,157.366 168.691,157.897 169.254,158.163 169.801,158.67 170.066,159.209 170.535,159.491 170.816,159.999 171.379,160.569 171.66,161.069 171.91,161.608 171.91,162.413 171.098,162.413 169.801,162.178 168.441,162.178 167.098,162.178 165.52,161.608 163.91,161.069 162.535,160.295 161.254,159.209 159.91,157.639 158.863,155.522 158.598,154.413 157.785,153.366 156.988,152.295 155.926,151.241 154.863,150.428 154.051,149.624 152.988,148.819 152.488,148.295 151.926,148.038 151.66,148.038 151.395,148.038 150.863,147.788 149.801,147.522 148.457,147.522 147.145,147.241 145.816,147.522 144.473,147.522 143.395,148.038 142.613,148.819 142.051,149.928 145.551,154.178 147.957,158.952 150.051,163.999 151.926,169.069 153.801,174.131 155.926,178.655 158.863,182.913 162.535,186.1 167.348,188.272 173.504,189.053 174.316,189.584 174.816,190.381 175.348,191.178 175.629,192.256 175.91,193.038 175.91,194.1 175.91,195.178 175.629,196.256 175.629,197.295 175.348,198.35 176.441,202.608 177.223,207.163 178.02,211.413 178.801,215.936 179.363,220.444 180.426,225.022 181.223,229.522 182.301,233.772 183.613,238.281 185.223,242.583 183.863,243.88 182.801,245.226 181.488,246.054 180.145,246.554 178.566,247.101 177.223,247.38 175.629,248.164 174.316,248.937 172.691,250 171.379,251.608 170.535,254.022 169.52,255.88 167.91,256.937 166.035,258 163.66,258.522 161.52,258.804 159.113,259.07 156.754,259.351 154.316,259.897 152.207,260.64 151.395,260.929 150.332,261.208 149.551,261.476 149.02,261.772 148.457,261.772 147.957,261.772 147.395,261.772 146.863,261.772 146.613,261.208 146.082,260.64 147.145,259.351 148.457,257.742 149.801,256.397 151.16,254.833 152.488,253.505 154.051,251.88 155.395,250.281 156.441,248.937 157.52,247.38 158.598,245.772 157.785,245.226 156.988,244.937 156.176,244.937 155.66,245.226 154.863,245.772 154.051,246.281 153.301,246.804 152.488,247.38 151.66,247.88 150.863,248.429 150.051,249.226 149.27,250.281 148.738,251.083 147.957,251.88 147.145,252.669 146.613,253.505 145.551,253.755 144.473,254.022 143.395,254.281 141.801,254.022 140.754,253.755 139.957,253.755 139.691,253.505 139.426,253.505 139.145,253.505 138.879,253.226 138.098,253.226 140.207,251.367 142.613,249.226 144.738,247.101 147.145,244.937 149.551,243.101 152.207,241.742 154.863,240.695 157.52,240.164 160.176,240.414 163.113,241.522 164.16,241.742 165.223,241.522 166.035,241.522 166.598,241.255 167.098,240.695 167.66,239.897 167.91,239.101 168.16,238.281 168.691,237.241 168.973,236.194 168.16,231.936 167.66,227.381 166.863,222.6 165.785,218.311 164.441,214.1 162.535,210.069 160.441,206.608 157.52,203.67 153.801,201.28 149.27,199.67 146.082,198.897 143.16,198.35 139.957,197.295 137.02,196.256 133.816,195.178 130.629,194.1 127.723,193.038 124.77,191.709 121.848,190.381 118.91,189.053 117.035,187.709 115.723,186.1 114.395,184.506 113.316,182.913 112.52,181.069 111.707,179.444 110.926,177.569 110.395,175.999 109.598,174.131 108.785,172.538 107.207,170.147 105.613,167.459 103.738,165.1 101.879,162.413 99.738,160.295 97.363,157.897 94.957,156.038 92.285,154.709 89.363,153.366 86.145,152.834 85.348,152.834 84.582,152.584 84.035,152.584 83.504,152.584 82.973,152.584 82.426,152.584 81.645,152.834 81.113,152.834 80.316,153.366 79.504,153.639 81.113,154.413 82.426,155.225 83.77,156.038 84.816,156.553 86.145,157.366 87.504,157.897 88.535,158.67 89.91,159.491 90.957,159.999 92.285,160.834 85.613,160.569 77.91,160.295 69.645,160.295 60.613,160.569 51.535,161.069 42.504,161.608 33.723,162.413 25.176,162.936 17.738,163.999 11.063,164.803 11.344,163.209 11.863,161.608 12.672,159.772 13.738,158.163 14.801,156.28 15.617,154.413 16.129,152.834 16.129,151.522 15.328,150.163 14,149.366 12.961,149.366 11.863,149.928 11.063,150.694 10.535,151.756 10.016,152.834 9.738,153.897 9.457,155.225 8.945,156.553 8.672,157.639 8.129,158.67 7.344,159.772 6.289,161.295 5.473,162.936 4.688,164.553 3.879,165.881 2.816,167.459 1.754,168.819 0.441,169.881 -0.902,170.655 -2.793,171.209 -6.496,169.311 -10.23,167.459 -14.215,165.881 -17.953,164.28 -21.945,162.655 -25.953,161.069 -29.953,159.772 -33.926,158.67 -37.918,157.366 -41.91,156.28 -42.984,156.28 -44.32,156.038 -45.367,155.772 -46.457,155.772 -47.512,155.522 -48.574,155.225 -49.656,154.952 -50.703,154.709 -51.777,154.178 -52.84,153.639 -55.23,153.084 -57.902,152.834 -60.543,152.834 -63.215,153.366 -65.879,154.413 -68.289,155.522 -70.672,156.85 -72.809,158.67 -74.926,160.569 -76.535,162.413 -78.391,164.28 -80.008,166.67 -81.59,169.584 -83.184,172.538 -84.793,175.209 -86.391,177.569 -88.246,178.913 -90.656,179.694 -93.566,178.913 -96.777,176.553 -98.359,177.569 -99.688,179.178 -100.77,180.522 -101.313,182.381 -102.078,183.999 -102.633,185.6 -103.422,187.178 -104.496,188.491 -105.832,189.584 -107.688,190.381 -128.184,193.295 -115.953,177.327 -115.953,177.069 -115.953,176.788 -115.953,176.553 -116.207,176.553 -116.48,176.272 -116.742,175.999 -117.016,175.999 -117.297,175.725 -117.297,175.459 -117.551,175.459 -118.352,175.725 -119.152,176.553 -120.207,177.569 -121.281,178.655 -122.336,179.694 -123.398,180.803 -124.473,182.116 -125.246,183.178 -126.063,183.999 -126.328,184.506 -127.398,185.311 -128.465,185.6 -129.52,185.6 -130.32,185.311 -131.383,185.038 -132.184,184.772 -133.254,184.506 -134.047,184.272 -135.121,183.999 -136.184,183.999 -134.582,182.913 -132.711,181.85 -131.129,180.522 -129.281,179.178 -127.137,177.866 -125.246,176.553 -123.145,175.209 -121.281,173.881 -119.152,172.538 -117.297,171.491 -115.953,171.491 -114.617,171.491 -113.543,171.209 -112.207,170.928 -110.887,170.655 -109.543,170.147 -108.488,169.584 -107.16,168.819 -105.832,168.28 -104.77,167.741 -99.176,165.35 -94.367,161.881 -89.848,157.366 -85.582,152.584 -81.336,147.788 -77.07,143.256 -72.289,139.788 -67.207,137.397 -61.359,136.608 -54.688,137.913 -25.152,140.834 -24.352,140.584 -23.543,140.327 -22.734,140.069 -21.68,139.788 -20.887,139.522 -20.07,139.241 -19.559,138.709 -19.297,138.194 -19.297,137.397 -19.824,136.311 -36.59,136.053 -36.336,133.131 -36.055,129.928 -35.535,126.725 -34.465,123.819 -33.145,120.881 -31.535,117.952 -29.672,115.28 -27.535,112.897 -24.871,111.038 -21.945,109.178 -19.016,108.366 -16.086,107.295 -13.168,106.506 -10.496,105.694 -7.574,104.897 -4.887,104.084 -2.246,103.295 0.688,102.506 3.344,101.694 6.289,100.913 7.863,100.1 9.457,99.295 11.063,98.506 12.672,97.694 14.273,96.928 15.617,95.85 16.93,94.772 17.984,93.194 18.52,91.866 19.047,89.983 19.848,89.725 20.648,89.459 21.457,89.459 22.52,89.725 23.328,89.725 24.391,90.272 25.176,90.522 26.258,90.788 27.047,91.053 28.113,91.053 29.984,91.295 32.113,91.053 33.973,90.788 35.832,90.272 37.441,89.725 39.301,88.928 40.895,87.866 42.223,86.788 43.832,85.459 45.129,84.116 45.957,84.655 47.02,85.178 47.816,85.725 48.613,86.272 49.41,87.069 49.957,87.866 50.738,88.397 51.285,89.209 51.535,89.983 51.816,91.053 51.816,90.788 51.816,94.272 51.535,97.444 50.738,100.381 49.957,103.295 48.879,105.967 47.816,108.624 46.223,111.295 44.613,113.694 42.754,116.1 40.629,118.475 43.02,118.756 45.957,118.999 49.145,119.272 52.348,119.553 56.082,119.803 59.535,120.069 62.738,120.6 65.645,121.147 68.051,121.413 69.645,121.936 74.441,123.256 79.504,124.6 84.301,125.655 89.363,126.725 94.41,127.788 99.207,128.866 103.988,130.459 108.785,132.069 113.316,134.178 117.598,136.608 119.988,137.67 122.098,138.459 124.254,139.522 126.348,140.584 128.223,141.381 130.348,142.694 132.223,143.756 134.363,145.116 136.504,146.428 138.613,147.788 139.957,146.967 141.301,146.178 142.879,145.366 144.223,144.584 145.551,143.756 147.145,142.983 148.457,142.428 150.051,141.928 "
             id="polygon47"
             style="fill:#040304" />
          <polygon
             transform="matrix(0.14433797,0,0,0.14387134,29.395294,258.73023)"
             points="102.145,197.038 100.801,196.256 99.988,195.178 99.738,193.295 99.738,191.428 100.27,189.053 100.801,186.624 101.613,184.272 102.145,181.85 102.676,179.444 102.676,177.327 100.801,179.444 98.926,181.85 97.082,184.506 95.738,187.178 94.41,190.1 93.613,193.295 93.098,196.256 92.816,199.413 93.348,202.381 94.41,205.272 94.957,206.608 95.738,207.936 96.816,209.553 97.613,210.866 98.41,212.209 98.676,213.553 98.926,214.866 98.41,215.936 97.082,217.022 95.223,217.788 90.145,219.397 84.816,220.999 79.504,222.85 74.441,224.725 69.395,226.866 64.332,229.272 59.801,232.178 55.535,235.35 51.816,239.38 48.348,243.608 48.082,244.179 47.535,244.669 47.02,244.937 46.473,245.226 45.957,245.505 45.426,245.772 44.613,245.772 44.098,245.505 43.551,245.505 43.02,245.226 41.957,244.669 41.441,243.88 40.629,243.351 40.098,242.583 39.551,242.039 39.035,241.522 38.504,241.255 37.973,241.255 37.16,241.742 36.363,242.583 35.316,243.88 34.223,244.937 33.441,246.054 32.895,247.101 32.113,247.88 31.57,248.937 30.77,250 30.223,251.367 29.176,252.669 28.113,254.281 26.52,254.554 24.93,254.833 23.047,255.083 21.191,255.38 19.328,255.625 17.207,256.13 15.328,256.397 13.473,256.937 11.863,257.195 10.273,257.458 10.801,255.88 11.344,254.022 12.145,252.445 12.961,250.82 13.738,249.226 14.535,247.625 15.617,246.281 16.391,244.669 17.207,243.101 17.984,241.522 16.648,240.953 15.328,241.255 14.273,242.039 13.191,242.851 12.145,244.179 11.344,245.505 10.535,247.101 9.738,248.429 8.945,249.755 8.129,250.82 -1.711,252.179 -0.105,250.281 1.488,248.669 3.063,246.804 4.961,245.226 6.535,243.608 8.391,242.039 10.016,240.164 11.617,238.281 12.961,236.444 14.273,234.038 20.648,233.522 27.047,232.709 33.176,231.116 39.301,229.272 44.91,226.866 50.473,223.928 55.535,220.444 60.051,216.756 64.332,212.491 68.051,207.655 66.176,206.1 64.066,204.506 62.191,202.608 60.332,200.756 58.473,198.624 57.129,196.756 55.801,194.35 55.285,191.952 54.738,189.295 55.02,186.366 57.676,182.116 60.848,178.116 64.613,175.209 68.598,172.538 72.863,170.444 77.379,168.569 82.426,167.459 87.504,166.67 92.816,166.131 98.145,165.881 100.535,169.069 100.27,168.819 101.051,170.928 101.879,172.803 102.926,174.67 103.738,176.272 104.801,177.866 105.863,179.444 106.66,181.327 107.738,182.913 108.52,184.506 109.332,186.1 110.129,187.178 111.191,188.491 112.27,189.834 113.598,190.913 114.926,191.952 116.254,193.038 117.332,193.866 118.379,194.35 118.91,194.639 119.176,194.897 118.91,195.178 118.91,195.444 118.66,195.709 118.113,196.256 117.598,196.756 117.035,197.295 116.254,197.819 115.176,198.35 114.113,198.897 113.316,199.147 112.52,199.413 111.707,199.67 111.191,199.67 110.395,199.67 109.598,199.413 109.051,199.147 108.52,198.897 107.988,198.35 107.473,197.584 107.207,197.295 106.926,197.038 106.395,197.038 105.863,197.038 105.332,197.038 104.801,197.038 103.988,197.038 103.473,197.038 102.676,197.038 "
             id="polygon49"
             style="fill:#040304" />
          <polygon
             transform="matrix(0.14433797,0,0,0.14387134,29.395294,258.73023)"
             points="88.535,174.397 88.816,174.397 89.629,174.397 90.145,174.67 91.207,174.928 92.285,174.928 93.348,175.209 94.41,175.209 95.738,175.209 96.816,175.209 97.879,175.459 98.926,175.459 100.27,175.999 101.348,176.272 102.145,176.788 103.207,177.069 103.738,177.569 104.27,177.866 104.801,177.866 104.801,178.116 102.145,173.084 101.879,172.803 101.613,172.803 101.051,172.538 100.27,172.272 99.473,172.272 98.676,171.999 97.363,171.999 96.02,171.999 96.02,171.725 94.691,171.999 93.348,172.272 92.285,172.538 91.207,172.803 90.426,173.084 89.629,173.6 89.098,173.881 88.816,174.131 88.535,174.131 "
             id="polygon51"
             style="fill:#e8423f" />
          <polygon
             transform="matrix(0.14433797,0,0,0.14387134,29.395294,258.73023)"
             points="130.629,47.381 129.566,47.381 128.488,47.639 127.723,47.913 126.645,48.178 125.848,48.709 125.051,49.256 124.473,50.053 123.973,50.85 123.441,51.639 122.91,52.444 124.473,52.967 124.77,52.967 124.77,52.725 124.77,52.444 124.77,52.178 124.77,51.913 125.051,51.639 125.051,51.397 125.051,51.1 125.051,50.85 124.77,49.522 124.473,48.459 123.973,47.381 123.441,46.311 122.645,45.256 121.582,44.709 120.504,43.928 119.441,43.655 118.113,43.131 116.785,43.131 115.457,43.131 114.113,43.381 113.066,43.928 111.707,44.194 110.66,44.999 109.598,45.522 108.785,46.311 107.988,47.381 107.473,48.178 106.926,49.256 108.52,50.053 108.785,50.053 108.785,49.772 108.785,49.522 108.785,49.256 108.785,48.983 108.52,47.913 108.27,46.584 107.738,45.522 106.926,44.459 105.863,43.655 104.801,42.866 103.738,42.311 102.41,41.788 100.801,41.538 99.207,41.538 97.879,41.538 96.52,41.788 95.223,42.311 93.879,42.866 92.816,43.381 91.738,44.194 90.691,45.256 90.145,46.053 89.629,47.116 89.098,48.178 92.035,48.178 91.738,47.116 91.207,46.053 90.691,45.256 89.91,44.194 88.816,43.655 87.754,42.866 86.41,42.311 85.098,42.069 83.504,41.788 81.91,41.538 80.566,41.788 78.973,42.069 77.629,42.6 76.566,43.131 75.504,43.928 74.441,44.999 73.66,45.788 73.113,47.116 72.863,48.178 72.582,49.522 72.582,49.772 72.863,49.772 74.176,49.522 73.926,48.709 73.379,47.639 72.582,46.85 71.785,46.311 70.988,45.522 69.926,44.999 68.848,44.459 67.801,44.194 66.441,43.928 65.129,43.928 63.801,44.194 62.191,44.459 60.848,44.999 59.801,45.522 58.738,46.311 57.676,47.116 56.863,48.178 56.348,49.256 56.082,50.584 55.801,51.639 56.082,51.913 56.082,52.444 56.082,52.967 56.348,53.788 56.348,54.569 56.613,55.381 56.613,55.897 56.863,56.444 56.863,56.694 56.863,56.967 55.02,55.381 53.41,54.038 51.816,52.967 50.223,51.913 48.348,51.1 46.473,50.327 44.379,49.772 41.691,49.522 38.754,49.256 35.316,48.983 33.973,48.983 32.359,48.983 30.504,49.256 28.648,49.772 26.52,50.327 24.648,50.85 22.52,51.397 20.648,52.178 18.801,52.967 16.93,54.038 14,55.624 11.344,57.256 8.672,58.834 5.738,60.428 3.063,61.522 0.145,62.295 -2.793,62.569 -5.977,62.295 -9.43,61.522 -12.887,59.897 -13.414,60.694 -13.688,61.241 -13.688,61.756 -13.414,62.295 -13.168,62.834 -12.633,63.366 -12.105,63.897 -11.824,64.413 -11.559,64.952 -11.297,65.491 -12.887,68.413 -12.887,70.272 -12.105,71.35 -10.23,71.881 -8.105,71.881 -5.688,72.147 -3.023,72.147 -0.902,72.694 0.688,73.756 1.488,75.327 -11.559,80.397 -11.559,80.67 -11.297,80.928 -11.031,81.475 -10.75,81.983 -10.496,82.538 -9.977,83.35 -9.43,83.881 -8.902,84.655 -8.105,85.178 -6.496,84.397 -5.43,84.116 -4.367,83.881 -3.023,83.6 -1.984,83.069 -0.641,83.069 0.441,82.788 1.754,82.788 2.816,83.069 3.879,83.6 4.688,84.397 4.961,85.725 4.961,86.788 4.688,88.131 4.145,88.928 3.617,89.983 2.816,90.788 2,91.584 1.223,92.116 0.145,92.639 -0.641,93.194 0.145,93.459 0.688,93.459 1.488,93.459 2,93.194 2.816,93.194 3.617,92.928 4.145,92.639 4.961,92.639 5.738,92.639 6.535,92.639 7.344,92.116 8.129,91.584 8.945,91.053 9.738,90.522 10.535,89.725 11.063,89.209 11.617,88.397 12.145,87.6 12.391,86.788 12.672,85.983 13.738,85.725 14.801,85.459 15.863,85.459 17.207,85.459 18.52,85.725 19.602,85.725 20.93,85.983 21.984,86.272 23.328,86.272 24.391,86.522 27.047,87.327 29.441,87.6 31.832,87.327 33.973,86.522 36.113,85.725 38.254,84.397 40.098,83.069 41.957,81.475 43.832,80.131 45.691,78.788 48.082,81.475 50.223,83.35 52.629,84.655 55.02,85.459 57.676,85.725 60.332,85.725 63.254,85.459 66.176,84.928 69.113,84.397 72.316,83.881 71.785,83.069 71.254,82.272 70.441,81.209 69.926,80.397 69.395,79.6 68.848,78.538 68.051,77.999 67.254,77.209 66.176,76.655 65.129,76.131 63.801,75.897 62.738,75.327 61.395,75.084 59.801,74.819 58.473,74.538 57.129,74.272 56.082,74.022 54.738,73.506 53.41,73.225 52.348,72.413 52.879,72.147 53.41,71.881 54.207,71.35 54.738,71.084 55.285,70.819 55.801,70.569 56.613,70.272 57.129,69.999 57.926,69.756 58.738,69.756 64.863,68.413 71.254,67.881 77.91,67.881 84.301,68.163 90.691,68.952 96.816,70.272 103.207,71.624 109.051,73.756 114.926,75.897 120.504,78.538 126.098,81.475 131.41,85.178 136.504,89.459 141.301,94.272 145.551,99.569 149.27,105.163 152.488,110.756 154.598,116.881 156.176,123.256 156.441,129.397 159.379,124.6 159.91,123.256 160.441,122.209 161.004,120.881 161.254,119.803 161.52,118.756 161.801,117.67 162.051,116.608 162.051,115.538 162.051,114.475 162.051,113.413 162.051,112.897 162.051,112.1 161.801,111.569 161.52,111.038 161.254,110.475 161.004,109.967 160.441,109.428 160.176,109.178 159.629,108.624 158.863,108.366 159.91,110.756 160.176,110.475 160.176,109.967 160.441,109.694 160.723,109.178 160.723,108.913 161.004,108.366 161.004,107.834 161.254,107.295 161.254,107.022 161.254,106.506 161.004,105.428 160.723,104.366 160.441,103.295 159.91,102.506 159.113,101.694 158.598,100.913 157.52,100.1 156.754,99.569 155.66,99.295 154.598,99.053 155.395,100.639 155.66,100.381 155.926,99.834 155.926,99.569 156.176,99.295 156.176,98.756 156.176,98.506 156.441,97.967 156.441,97.694 156.441,97.178 156.441,96.928 156.441,95.584 155.926,94.506 155.66,93.459 154.863,92.381 154.051,91.584 153.301,90.788 152.207,90.272 150.863,89.725 149.801,89.459 148.457,89.209 150.051,91.584 150.332,91.053 150.613,90.788 150.613,90.522 150.863,90.272 150.863,89.725 150.863,89.459 151.16,88.928 151.16,88.655 151.16,88.131 151.16,87.866 150.863,86.522 150.613,85.459 150.051,84.397 149.551,83.35 148.738,82.538 147.676,81.741 146.613,80.928 145.551,80.67 144.223,80.397 142.879,80.131 142.879,81.983 143.16,81.741 143.16,81.475 143.395,80.928 143.395,80.67 143.395,80.397 143.645,79.881 143.645,79.6 143.645,79.327 143.645,79.069 143.645,78.538 143.645,77.475 143.395,76.131 142.879,75.084 142.051,74.022 141.301,73.225 140.207,72.413 139.145,71.881 138.098,71.35 136.738,71.084 135.426,71.084 135.145,71.084 134.629,71.084 134.082,71.084 133.816,71.084 133.582,71.35 133.035,71.35 132.754,71.35 132.223,71.624 131.957,71.881 131.691,71.881 133.816,71.624 133.582,70.272 133.316,69.225 132.754,68.163 132.223,67.084 131.41,66.295 130.348,65.491 129.316,64.694 127.973,64.413 126.879,64.163 125.566,63.897 125.285,63.897 125.051,63.897 125.051,63.624 125.051,63.366 125.285,63.1 125.285,62.834 125.566,62.834 125.566,62.569 125.285,62.569 125.051,62.569 123.441,61.241 125.566,60.952 127.723,60.694 129.566,60.428 131.41,60.694 133.316,60.952 135.145,61.522 137.301,62.295 139.691,63.366 142.613,64.694 146.082,66.295 149.551,68.163 152.988,70.272 156.176,72.694 159.379,75.327 162.535,77.999 165.785,81.209 168.441,84.397 171.098,87.866 173.504,91.295 175.629,95.053 176.16,93.983 176.691,93.194 176.957,92.381 176.957,91.584 177.223,91.053 177.223,90.272 177.223,89.725 177.223,88.928 177.223,88.397 177.223,87.6 177.223,86.522 177.223,85.725 176.691,84.928 176.441,84.397 175.91,83.881 175.348,83.35 174.566,82.788 173.754,82.538 172.973,82.272 171.91,81.983 173.754,87.069 174.035,86.522 174.566,86.272 174.816,85.725 175.098,85.178 175.348,84.655 175.629,84.116 175.629,83.6 175.91,83.069 175.91,82.272 175.91,81.741 175.91,80.397 175.629,79.327 175.098,78.28 174.316,77.209 173.504,76.397 172.441,75.6 171.379,74.819 170.316,74.538 168.973,74.272 167.66,74.022 167.348,74.022 167.098,74.022 166.863,74.022 166.598,74.272 166.316,74.272 166.035,74.272 168.973,78.538 169.254,77.999 169.52,77.725 169.801,77.209 169.801,76.936 170.066,76.397 170.316,75.897 170.316,75.327 170.316,75.084 170.316,74.538 170.316,74.022 170.316,72.694 170.066,71.624 169.52,70.569 168.691,69.506 167.91,68.413 167.098,67.881 166.035,67.084 164.723,66.569 163.395,66.295 162.051,66.295 161.801,66.295 161.52,66.295 161.004,66.295 160.723,66.569 160.176,66.569 159.91,66.569 159.379,66.819 159.113,66.819 158.863,67.084 158.332,67.084 161.801,70.569 162.051,70.272 162.051,69.756 162.316,69.506 162.316,69.225 162.535,68.694 162.535,68.413 162.535,67.881 162.848,67.608 162.848,67.084 162.848,66.819 162.535,65.491 162.316,64.413 161.801,63.1 161.254,62.295 160.441,61.241 159.379,60.428 158.332,59.897 157.27,59.366 155.926,59.1 154.598,59.1 153.801,59.1 153.301,59.1 152.738,59.366 152.207,59.366 151.66,59.608 151.16,59.897 150.613,60.178 150.051,60.428 149.551,60.694 149.02,61.241 150.613,63.1 150.863,63.1 150.863,62.834 150.863,62.569 150.863,62.295 151.16,62.022 151.16,61.756 151.16,61.522 151.16,61.241 151.16,60.952 151.16,60.694 151.16,59.366 150.613,58.295 150.332,57.256 149.551,56.178 148.738,55.381 147.676,54.569 146.613,54.038 145.551,53.506 144.223,53.256 142.879,52.967 142.051,53.256 141.02,53.256 140.207,53.506 139.426,53.788 138.879,54.038 138.098,54.569 137.535,55.116 136.738,55.624 136.223,56.178 135.973,56.967 138.613,57.256 138.613,56.967 138.613,56.694 138.879,56.444 138.879,56.178 138.879,55.897 138.879,55.624 138.879,55.381 138.879,55.116 138.879,53.788 138.348,52.444 138.098,51.397 137.301,50.327 136.504,49.522 135.426,48.709 134.363,48.178 133.316,47.639 131.957,47.381 "
             id="polygon53"
             style="fill:#040304" />
          <polyline
             transform="matrix(0.14433797,0,0,0.14387134,29.395294,258.73023)"
             stroke-miterlimit="10"
             points="   56.348,55.624 56.613,55.624 57.129,55.116 57.676,54.569 58.738,54.038 59.801,53.506 61.113,52.725 62.473,52.178 63.801,51.639    65.129,51.397 66.441,51.1 67.52,51.1 68.598,51.1 69.395,51.397 70.441,51.639 71.52,51.913 72.316,52.178 73.379,52.725    74.176,53.256 74.988,54.038 75.785,54.569 76.566,54.038 77.379,53.506 78.176,52.725 79.254,52.178 80.035,51.639 81.113,51.397    82.16,51.1 83.223,50.85 84.301,50.584 85.348,50.584 86.145,50.584 86.973,50.584 87.504,50.85 88.285,51.1 89.098,51.639    89.91,51.913 90.426,52.444 90.957,53.256 91.488,53.788 92.035,54.569 92.535,54.038 93.098,53.506 93.879,53.256 94.691,52.967    95.488,52.725 96.52,52.444 97.363,52.444 98.41,52.178 99.207,52.178 99.988,52.178 101.348,52.178 102.41,52.444 103.207,52.725    104.27,53.256 105.082,53.788 105.613,54.295 106.129,55.116 106.66,55.897 106.926,56.967 107.207,58.038 107.738,57.506    108.52,57.256 109.051,56.967 109.863,56.694 110.66,56.444 111.457,56.178 112.27,56.178 113.066,55.897 113.848,55.897    114.645,55.897 115.988,55.897 117.332,56.178 118.379,56.694 119.723,57.256 120.504,58.038 121.582,58.834 122.098,59.608    122.91,60.694 123.176,61.756 123.176,63.1 126.645,62.295  "
             id="polyline55"
             style="fill:none;stroke:#ffffff;stroke-width:2.12800002;stroke-linecap:square;stroke-miterlimit:10" />
          <polygon
             transform="matrix(0.14433797,0,0,0.14387134,29.395294,258.73023)"
             points="29.703,60.694 28.895,60.694 28.113,60.694 27.32,60.694 26.258,60.694 25.457,60.952 24.93,61.241 24.113,61.522 23.602,61.756 22.801,62.295 22.52,62.834 21.984,63.1 21.738,63.624 21.984,64.163 22.52,64.694 22.801,64.952 23.328,65.491 24.113,65.756 24.648,66.022 25.457,66.295 26.258,66.569 27.047,66.569 27.832,66.569 28.895,66.569 29.703,66.569 30.504,66.295 31.32,66.022 32.113,65.756 32.633,65.491 33.176,64.952 33.723,64.694 34.223,64.163 34.504,63.624 34.223,63.366 34.223,63.1 33.723,62.569 33.176,62.022 32.633,61.756 32.113,61.522 31.32,61.241 30.504,60.952 "
             id="polygon57"
             style="fill:#ffffff" />
          <polygon
             transform="matrix(0.14433797,0,0,0.14387134,29.395294,258.73023)"
             points="30.504,62.022 30.77,61.522 30.77,60.952 30.77,60.428 30.504,59.897 30.504,59.608 29.984,59.1 29.703,58.834 29.176,58.295 28.895,58.038 28.375,58.038 27.832,57.772 27.32,57.772 26.52,57.772 25.984,58.038 25.457,58.038 25.176,58.295 24.648,58.834 24.391,59.1 24.113,59.608 23.863,60.178 23.602,60.694 23.602,61.241 23.602,61.756 23.863,62.295 24.113,62.569 24.391,63.1 24.648,63.366 25.176,63.897 25.719,64.163 26.258,64.163 26.77,64.413 27.32,64.413 27.047,64.413 27.832,64.413 28.375,64.163 28.895,64.163 29.441,63.897 29.703,63.366 30.223,63.1 30.504,62.569 "
             id="polygon59"
             style="fill:#040304" />
          <polygon
             transform="matrix(0.14433797,0,0,0.14387134,29.395294,258.73023)"
             points="-13.414,75.6 -12.887,75.6 -12.105,75.6 -10.75,75.6 -9.168,75.6 -7.297,75.327 -5.168,75.327 -3.313,75.327 -1.43,75.084 0.145,75.084 0.945,74.819 1.488,74.819 1.223,78.788 0.945,78.538 -0.641,79.069 -2.793,79.6 -5.43,80.131 -8.367,80.397 -11.297,80.67 -14.496,80.928 -17.414,80.67 -20.352,80.397 -22.734,79.6 -24.871,78.538 -26.734,77.209 -27.809,75.6 -28.617,73.756 -29.145,72.147 -29.145,70.569 -29.145,68.952 -28.617,67.608 -28.07,66.569 -27.535,66.022 -26.734,65.491 -26.191,65.491 -25.68,65.756 -25.398,66.295 -25.152,66.819 -24.625,67.366 -24.352,68.163 -24.063,68.952 -23.543,69.756 -23.281,70.569 -22.488,71.35 -21.945,72.147 -21.414,72.694 -21.168,73.225 -20.617,73.506 -20.352,74.022 -20.07,74.022 -19.824,74.272 -19.824,74.538 -19.297,74.538 -19.016,74.819 -18.75,75.084 -18.215,75.084 -17.414,75.327 -16.887,75.327 -16.086,75.6 -15.559,75.6 -14.75,75.6 -13.953,75.6 "
             id="polygon61"
             style="fill:#e8423f" />
          <polyline
             transform="matrix(0.14433797,0,0,0.14387134,29.395294,258.73023)"
             stroke-miterlimit="10"
             points="   0.945,78.538 -0.641,79.069 -2.793,79.6 -5.43,80.131 -8.367,80.397 -11.297,80.67 -14.496,80.928 -17.414,80.67 -20.352,80.397    -22.734,79.6 -24.871,78.538 -26.734,77.209 -27.809,75.6 -28.617,73.756 -29.145,72.147 -29.145,70.569 -29.145,68.952    -28.617,67.608 -28.07,66.569 -27.535,66.022 -26.734,65.491 -26.191,65.491 -25.68,65.756 -25.398,66.295 -25.152,66.819    -24.625,67.366 -24.352,68.163 -24.063,68.952 -23.543,69.756 -23.281,70.569 -22.488,71.35 -21.945,72.147 -21.414,72.694    -21.168,73.225 -20.617,73.506 -20.352,74.022 -20.07,74.022 -19.824,74.272 -19.824,74.538 -19.297,74.538 -19.016,74.819    -18.75,75.084 -18.215,75.084 -17.414,75.327 -16.887,75.327 -16.086,75.6 -15.559,75.6 -14.75,75.6 -13.953,75.6 -13.414,75.6    -12.887,75.6 -12.105,75.6 -10.75,75.6 -9.168,75.6 -7.297,75.327 -5.168,75.327 -3.313,75.327 -1.43,75.084 0.145,75.084    0.945,74.819 1.488,74.819 1.223,78.788  "
             id="polyline63"
             style="fill:none;stroke:#040304;stroke-width:2.12800002;stroke-linecap:square;stroke-miterlimit:10" />
          <rect
             x="0.051818181"
             y="229.31502"
             width="67.638649"
             height="67.645569"
             id="rect65"
             style="fill:#ffffff;stroke-width:0.14410447" />
          <path
             d="m 52.618552,274.3794 c 0.07448,-0.24501 0.05182,-0.52599 -0.07217,-0.78798 -0.13308,-0.27537 -0.356371,-0.47435 -0.617911,-0.56757 0.103779,-0.2653 0.103779,-0.55981 -0.02714,-0.82611 -0.142028,-0.29897 -0.411652,-0.49564 -0.71938,-0.56873 0.07664,-0.24947 0.07101,-0.50916 -0.03839,-0.74295 -0.179268,-0.37205 -0.584136,-0.58225 -1.036347,-0.58671 0.06885,-0.24501 0.05413,-0.50124 -0.05413,-0.73504 -0.227766,-0.47434 -0.805118,-0.69907 -1.384779,-0.57994 0,-0.15063 -0.02815,-0.30127 -0.0993,-0.43838 -0.254901,-0.52829 -0.932568,-0.7441 -1.580934,-0.53059 0.03839,-0.19107 0.02136,-0.38443 -0.06322,-0.55751 -0.258221,-0.53721 -1.034037,-0.70367 -1.742159,-0.3709 -0.155597,0.0787 -0.29546,0.17308 -0.413817,0.27883 0.01689,-0.15956 -0.0091,-0.32141 -0.0778,-0.46758 -0.25822,-0.53722 -1.035192,-0.70253 -1.73653,-0.3676 -0.121821,0.0584 -0.239024,0.12704 -0.343957,0.20689 0,-0.002 0,-0.004 0,-0.009 -0.257066,-0.54067 -1.034037,-0.70253 -1.73884,-0.36759 -0.22892,0.1079 -0.42291,0.25853 -0.570568,0.4237 -0.259375,-0.44514 -0.965332,-0.65073 -1.69828,-0.46428 -0.433014,0.11021 -0.792704,0.33724 -1.014841,0.60815 -0.0056,0 -0.01241,0 -0.01241,0.002 -1.299041,-1.37685 -2.966867,-1.22406 -3.432501,-1.15773 -2.327305,0.345 -3.477535,1.82083 -4.942998,1.93881 -0.664243,0.0562 -1.332239,-0.16862 -1.670568,-0.35637 -0.32476,0.59462 0.272366,0.39449 0.221559,0.7969 -0.01977,0.13711 -0.665254,0.86884 0.253746,0.91833 0.447159,0.0259 1.22745,-0.0832 1.500393,0.27091 -4.314406,0.73288 -3.137618,-1.34433 -3.869556,-1.34433 -1.058864,0 -0.887967,3.04604 2.077168,2.47056 0.103779,0.23609 0.323605,0.38888 0.480356,0.48786 0.988427,-0.6631 3.190591,-0.30126 1.110681,1.1914 1.65368,0.20229 1.890539,-0.95084 1.910169,-1.03414 0.595394,-0.29005 1.944665,0.26975 2.695078,0.1843 0.745939,-0.0855 1.787915,-1.13975 2.081065,-1.20723 1.037501,1.20723 1.77045,1.14205 3.786562,0.68339 -0.700327,-1.75235 -2.679345,-1.15773 -2.798857,-1.61625 0.766867,-0.49463 2.277797,-0.74971 4.000904,-0.68109 0.01804,0.002 0.03839,0.002 0.05413,0.002 1.592192,0.0731 3.362642,0.4204 4.887139,1.12292 3.227253,1.48374 5.971984,4.32736 6.082547,7.68143 0.872956,-1.00263 0.999251,-1.97938 0.61589,-2.90332 M 32.54648,267.87598 c 0,-0.12588 0.12009,-0.22702 0.300512,-0.2945 0.03103,0.23825 0.236281,0.42485 0.491615,0.42485 0.267747,0 0.494502,-0.22257 0.494502,-0.49679 0,-0.0101 0,-0.0191 -0.0051,-0.027 0.300512,0.0472 0.541845,0.17092 0.541845,0.39334 -0.0012,0.61606 -1.823422,0.48456 -1.823422,1.4e-4"
             id="path67"
             inkscape:connector-curvature="0"
             style="fill:#010202;stroke-width:0.14410447" />
          <path
             d="m 24.06547,274.29178 0.616323,0.51262 c 0,0 -0.753877,0.91487 -1.366159,3.41924 -0.631478,-0.0731 -1.176643,-0.15955 -1.176643,-0.15955 0,0 -0.78491,0.0203 -0.991746,-1.10148 -0.519328,-2.85153 -0.80122,-3.38213 -1.430389,-4.42073 -0.31177,-0.50916 -1.176643,-0.87891 -1.98075,-1.21399 -0.835573,-0.35177 -1.60244,-0.65649 -1.60244,-0.65649 0,0 -1.043131,-0.53275 -1.927201,0.20114 -0.102047,0.0843 -0.30845,0.0696 -0.30845,-0.47435 0,-0.54513 -0.545165,-0.32141 -0.545165,-0.32141 0,0 -0.808004,0.26976 -1.619905,0.45867 -1.024511,0.23609 -2.5055625,-1.83997 -3.0367262,-1.83997 0.7859202,0 3.0710792,0.12027 3.0710792,0.12027 0,0 0.340493,-0.26861 0.118934,-0.50916 -0.220404,-0.24055 -1.9953278,0.21912 -2.1673787,-0.0876 -0.1685868,-0.30241 -0.477037,-0.89588 -0.477037,-0.89588 0,0 0.9562387,0.40471 2.4087117,0.27091 1.106207,-0.10345 1.748366,0.13941 1.857197,0.21911 2.166224,1.63208 6.090918,2.03334 6.720231,1.97147 0.885803,-0.0866 1.319971,0.80928 1.483939,1.12292 0.221559,0.42485 0.356948,0.71489 0.356948,0.71489"
             id="path69"
             inkscape:connector-curvature="0"
             style="fill:#010202;stroke-width:0.14410447" />
          <path
             d="m 54.968518,271.11525 c -0.04287,-0.15625 -0.108253,-0.29451 -0.196155,-0.42039 0.04734,-0.18891 0.04056,-0.38443 -0.02252,-0.57103 -0.121821,-0.34846 -0.421755,-0.59117 -0.792704,-0.69015 0.01689,-0.14617 0.0023,-0.2945 -0.04734,-0.43392 -0.146647,-0.41593 -0.546896,-0.68669 -1.023933,-0.73173 0,-0.10344 -0.01689,-0.20458 -0.05528,-0.30687 -0.19399,-0.58455 -0.903267,-0.87445 -1.60345,-0.67447 -0.01126,-0.0652 -0.02252,-0.12704 -0.04518,-0.19337 -0.209723,-0.60354 -0.967498,-0.89804 -1.702755,-0.64857 -0.02035,0.008 -0.03608,0.0168 -0.0586,0.0236 0,-0.0876 -0.01357,-0.17653 -0.04734,-0.26084 -0.191681,-0.56196 -0.933723,-0.81158 -1.666671,-0.56426 -0.119512,0.0427 -0.23224,0.0944 -0.331544,0.15739 -0.0091,-0.0696 -0.02367,-0.13941 -0.04518,-0.20689 -0.191681,-0.5598 -0.939351,-0.80697 -1.66898,-0.56196 -0.271788,0.0944 -0.508502,0.24502 -0.681131,0.42716 -0.142028,-0.54859 -0.825469,-0.87676 -1.558417,-0.73965 -0.39462,0.0787 -0.723999,0.27422 -0.935887,0.526 -0.245808,-0.41809 -0.842357,-0.64296 -1.470516,-0.526 -0.563784,0.10791 -1.001416,0.46082 -1.141135,0.87445 -0.241334,-0.39334 -0.789385,-0.60915 -1.359953,-0.50124 -0.705957,0.13495 -1.190788,0.71489 -1.080225,1.29714 0.01357,0.0584 0.03161,0.11467 0.05413,0.17308 0.2549,-0.22257 0.669872,-0.46082 1.030717,-0.55189 0.705957,-0.18099 1.393727,-0.0495 1.806534,0.31579 0.123986,-0.0967 0.259375,-0.1866 0.403713,-0.25853 0.732949,-0.34616 1.538066,-0.22933 1.968915,0.24285 0.03608,-0.0224 0.07448,-0.0539 0.112728,-0.0719 0.857078,-0.41133 1.833525,-0.17754 2.167379,0.51923 0.0091,0.0224 0.01357,0.0472 0.02136,0.0696 0.01573,-0.007 0.03046,-0.018 0.04518,-0.0292 0.860399,-0.40471 1.833526,-0.17423 2.16507,0.51923 0.02598,0.054 0.04402,0.1079 0.06091,0.16631 1.682403,-0.46427 5.971983,1.83997 7.446973,4.9017 0.276118,-0.33997 0.386537,-0.81086 0.251292,-1.27067"
             id="path71"
             inkscape:connector-curvature="0"
             style="fill:#010202;stroke-width:0.14410447" />
          <path
             d="m 9.7145232,285.20011 c 0,0 0.9088958,0.13495 1.1141448,0.24055 0.204671,0.0944 1.43775,-1.45224 1.55784,-1.45224 0.118934,0 0.237869,0.0686 0.272365,0.18891 0.03493,0.11466 -1.761933,2.37056 -1.761933,2.37056 0,0 1.608646,-0.25508 2.68714,-0.40917 1.079648,-0.15509 0.994055,-0.82049 1.249389,-1.43641 0.377155,-0.42485 0.599291,-0.54397 0.599291,-0.54397 0,0 0.323029,0.4001 0.991747,0.44729 0.735257,0.0495 0.823159,-1.52417 2.501088,-3.09323 1.677929,-1.57136 4.8945,-0.15179 4.8945,-0.15179 0,0 4.810496,1.50058 5.169609,2.03104 1.592192,-0.51262 1.713436,-3.34501 2.345492,-3.17424 1.114145,0.30127 -0.444849,1.67136 -0.359113,2.19735 0.856502,-0.20459 11.022081,-0.85086 11.743771,-0.56311 0.05182,-0.0168 -1.865136,-1.02178 -1.865136,-1.02178 0,0 2.480881,-1.32966 4.758679,3.9228 0.793859,1.83882 3.096483,1.87939 4.463219,2.52566 4.078702,0.37766 3.27474,4.9299 3.721177,5.42668 -0.0879,0.25983 -0.187206,0.46097 -0.187206,0.46097 l -0.259376,0.32112 h -0.259375 c 0,0 -0.595394,-0.24056 -0.940506,-0.22257 -0.842357,0.0427 -1.657578,0.8228 -2.839417,1.87939 0.717216,0.27407 1.231347,0.0688 1.231347,0.0688 0,0 1.355478,-1.71523 1.725272,-1.08709 0.05644,0.08 -1.725272,1.94226 -1.826741,2.07505 0.187206,0.49909 1.111835,-0.1079 1.420863,-0.17983 0.306718,-0.0676 2.150347,0.16617 2.262064,-1.09472 0.02035,-0.28328 1.655413,-0.90596 1.655413,-0.90596 0,0 0.205248,-0.22487 0.32476,-0.3709 -0.548051,-0.57102 -1.071276,-5.58408 -1.420863,-6.34832 0.311193,-0.97344 -0.218816,-1.36448 -0.218816,-1.36448 0,0 -0.803963,0.0652 -1.504291,-0.40126 -1.220088,-0.43837 -2.180802,-4.84213 -3.085224,-5.20066 0.0677,-0.15509 0.135389,-0.27983 0.252592,-0.34399 1.100577,-0.57995 2.318501,0.81158 2.468468,1.57136 0.103779,0.51261 1.594501,0.54628 1.594501,0.54628 0,0 0.137554,-0.14157 -0.466789,-0.69806 -0.12745,-0.12474 0.139864,-0.25408 0.139864,-0.25408 0,0 2.054506,0.7946 2.364689,-0.66771 -2.227135,0.90481 -3.651318,-3.01684 -6.831228,-0.49563 -1.419708,-1.0048 -5.527711,-3.63161 -14.138337,-4.2127 2.329903,-2.93368 1.745768,-4.53986 0.664243,-4.93335 -2.205051,1.89622 -2.959505,0.49463 -3.78151,0.8228 -0.442107,2.84707 -8.045687,0.61376 -8.027068,6.62038 0.117347,-0.0213 2.120036,0.0708 2.413187,0.0708 0.135389,0.35291 0.290985,0.33493 -0.752723,0.65864 -0.600446,-0.0967 -3.665462,-0.30688 -5.117791,-0.60915 -1.525652,-0.15509 -2.962826,1.5354 -2.962826,1.5354 0,0 -1.969924,2.23115 -2.517398,2.54019 -0.547474,0.30803 -1.401666,0.61375 -1.728736,0.78453 -0.325338,0.16862 -0.992901,0.10344 -0.992901,0.10344 z"
             id="path73"
             inkscape:connector-curvature="0"
             style="fill:#010202;stroke-width:0.14410447" />
          <path
             d="m 43.540992,282.60035 c 0.834418,0.80698 0.811902,2.70665 3.061553,4.18134 -1.213305,1.31282 -1.663206,0.4024 -1.745623,0.32371 -2.167379,0.28098 -0.424065,-2.26152 -0.627004,-2.80995 -2.695079,2.82793 -0.726165,4.75221 -0.726165,4.75221 0,0 0.517596,0.75302 -0.2256,0.96667 -1.620483,0.46758 -5.695721,1.63884 -6.809866,3.65851 -0.58861,1.06551 -1.294567,-0.28329 -1.538065,-0.21883 -0.462314,0.1102 -1.484516,1.83436 -1.484516,1.83436 0,0 -2.469478,0.54858 -2.55305,0.44513 -0.08068,-0.10114 0.771342,-1.69725 1.076328,-2.26151 -0.647789,-0.26184 -1.359952,1.31513 -1.359952,1.31513 l -1.477155,0.20228 c 0,0 2.2739,-2.20526 2.349967,-2.58968 0.08285,-0.24286 4.557904,0.42269 7.722081,-3.79461 -5.713041,-4.28736 2.961382,-6.35106 4.337067,-6.00476"
             id="path75"
             inkscape:connector-curvature="0"
             style="fill:#010202;stroke-width:0.14410447" />
          <path
             d="m 42.151739,283.80858 c 0,0 0.665254,-0.63619 2.020732,-0.16516 0.137554,0.29335 0.119512,0.345 0.336019,0.689 -0.399239,-0.507 -1.912478,-0.34285 -2.356751,-0.52384"
             id="path77"
             inkscape:connector-curvature="0"
             style="fill:#e8423f;stroke-width:0.14410447" />
          <path
             d="m 25.566441,268.27839 c 0.262117,0.0224 0.154441,1.1363 1.404985,1.3511 0.681709,0.11912 1.510497,0.11912 2.470056,-0.0236 0,0.11352 -0.0091,0.16517 -0.01862,0.29221 -2.005576,0.38672 -2.512346,0.52599 -3.348496,0.17422 -0.992901,-0.41823 -0.82316,-1.82774 -0.507925,-1.79393"
             id="path79"
             inkscape:connector-curvature="0"
             style="fill:#e8423f;stroke-width:0.14410447" />
          <rect
             x="0.051818181"
             y="229.31616"
             width="17.702765"
             height="33.482746"
             id="rect81"
             style="fill:#010202;stroke-width:0.14410447" />
          <rect
             x="35.458065"
             y="229.31616"
             width="32.232544"
             height="33.482746"
             id="rect83"
             style="fill:#268bcc;stroke-width:0.14410447" />
          <rect
             x="35.455757"
             y="250.59172"
             width="11.123117"
             height="12.208203"
             id="rect85"
             style="fill:#ffd730;stroke:none;stroke-width:0.14410447" />
          <polygon
             transform="matrix(0.14433797,0,0,0.14387134,29.395294,258.73023)"
             points="265.27,-88.134 153.645,-88.134 153.645,28.241 188.207,28.241 188.207,-56.568 265.27,-56.568 "
             id="polygon89"
             style="fill:#ffd730" />
          <polygon
             transform="matrix(0.14433797,0,0,0.14387134,29.395294,258.73023)"
             points="153.613,-88.017 153.613,-204.376 119.051,-204.376 119.051,-119.474 41.988,-119.474 41.957,-88.017 "
             id="polygon91"
             style="fill:#ffd730" />
          <rect
             style="fill:#ffd730;stroke-width:0.14410447"
             id="rect97"
             height="12.216116"
             width="11.125282"
             y="229.32523"
             x="56.560711" />
          <path
             sodipodi:nodetypes="ccccccccccccccc"
             style="fill:none;stroke:#010202;stroke-width:0.51185906;stroke-miterlimit:4;stroke-dasharray:none"
             inkscape:connector-curvature="0"
             id="path99"
             d="m 46.578729,229.32638 v 12.21496 H 35.455757 m -0.0045,4.52576 h 16.116201 v -16.74072 m 16.116344,16.7249 H 51.572101 v 16.74202 m 4.988754,0 v -12.20159 h 11.122972 m 0.0022,-9.05037 H 56.56071 v -12.21496" />
          <path
             sodipodi:nodetypes="ccc"
             style="fill:none;stroke:#010202;stroke-width:0.51185906;stroke-miterlimit:4;stroke-dasharray:none"
             inkscape:connector-curvature="0"
             id="path99-7"
             d="M 46.588823,262.80311 V 250.60152 H 35.465851" />
          <path
             inkscape:connector-curvature="0"
             id="path99-4"
             d="m 35.434972,229.30217 v 33.46807 z M 4.2668e-7,262.90512 H 67.689998 Z"
             style="fill:none;stroke:#010202;stroke-width:0.51185906;stroke-miterlimit:4;stroke-dasharray:none" />
        </g>
      </g>
    </g>
  </g>
</svg>
