<?xml version="1.0" encoding="UTF-8" standalone="no"?>
<!-- Created with Inkscape (http://www.inkscape.org/) -->

<svg
   xmlns:dc="http://purl.org/dc/elements/1.1/"
   xmlns:cc="http://creativecommons.org/ns#"
   xmlns:rdf="http://www.w3.org/1999/02/22-rdf-syntax-ns#"
   xmlns:svg="http://www.w3.org/2000/svg"
   xmlns="http://www.w3.org/2000/svg"
   xmlns:sodipodi="http://sodipodi.sourceforge.net/DTD/sodipodi-0.dtd"
   xmlns:inkscape="http://www.inkscape.org/namespaces/inkscape"
   width="250"
   height="38"
   viewBox="0 0 66.145832 10.054167"
   version="1.1"
   id="svg8"
   inkscape:version="0.92.0 r15299"
   sodipodi:docname="contribute_it.svg">
  <defs
     id="defs2" />
  <sodipodi:namedview
     id="base"
     pagecolor="#ffffff"
     bordercolor="#666666"
     borderopacity="1.0"
     inkscape:pageopacity="0.0"
     inkscape:pageshadow="2"
     inkscape:zoom="2.8"
     inkscape:cx="92.268657"
     inkscape:cy="54.023191"
     inkscape:document-units="mm"
     inkscape:current-layer="layer1"
     showgrid="false"
     units="px"
     inkscape:measure-start="0,0"
     inkscape:measure-end="0,0"
     inkscape:pagecheckerboard="true"
     inkscape:window-width="1565"
     inkscape:window-height="817"
     inkscape:window-x="183"
     inkscape:window-y="119"
     inkscape:window-maximized="0" />
  <metadata
     id="metadata5">
    <rdf:RDF>
      <cc:Work
         rdf:about="">
        <dc:format>image/svg+xml</dc:format>
        <dc:type
           rdf:resource="http://purl.org/dc/dcmitype/StillImage" />
        <dc:title />
      </cc:Work>
    </rdf:RDF>
  </metadata>
  <g
     inkscape:label="Ebene 1"
     inkscape:groupmode="layer"
     id="layer1"
     transform="translate(0,-286.94582)">
    <g
       aria-label="Partecipa!"
       style="font-style:normal;font-weight:normal;font-size:10.58333302px;line-height:6.61458302px;font-family:sans-serif;letter-spacing:0px;word-spacing:0px;fill:#000000;fill-opacity:1;stroke:none;stroke-width:0.26458332"
       id="text4515">
      <path
         d="m 12.90816,290.58792 q 0,1.1995 -0.848625,1.99916 -0.848625,0.79967 -2.0644432,0.79967 H 9.1872661 v 2.66827 l -0.8812644,0.1224 v -8.37201 h 1.5422127 q 1.4034956,0 2.2276406,0.74255 0.832305,0.74254 0.832305,2.03996 z m -0.881264,-0.17952 q 0,-0.84046 -0.685428,-1.34637 -0.636469,-0.46512 -1.5422127,-0.46512 H 9.195426 v 3.96569 h 0.677268 q 0.905744,0 1.525893,-0.59566 0.628309,-0.60383 0.628309,-1.55854 z"
         style="font-style:normal;font-variant:normal;font-weight:500;font-stretch:normal;font-size:10.58333302px;font-family:Kabel;-inkscape-font-specification:'Kabel, Medium';font-variant-ligatures:normal;font-variant-caps:normal;font-variant-numeric:normal;font-feature-settings:normal;text-align:start;writing-mode:lr-tb;text-anchor:start;fill:#ffffff;fill-opacity:1;stroke-width:0.26458332"
         id="path6805"
         inkscape:connector-curvature="0" />
      <path
         d="m 18.379328,296.05502 -0.709908,0.11424 v -0.70991 q -0.252955,0.27744 -0.440632,0.408 -0.57119,0.40799 -1.232138,0.40799 -0.962863,0 -1.574852,-0.57935 -0.644629,-0.61199 -0.644629,-1.66461 0,-0.85679 0.620149,-1.46062 0.628309,-0.61198 1.509573,-0.61198 0.709908,0 1.272938,0.33455 0.187677,0.10608 0.424312,0.33455 v -0.44063 q 0,-0.14688 0,-0.22847 0,-0.56303 -0.187676,-0.82415 -0.301915,-0.42431 -1.14238,-0.42431 -0.57935,0 -1.313737,0.23663 -0.57935,0.18768 -0.652788,0.26112 l 0.310074,-0.93022 q 0.0408,-0.0163 0.391673,-0.0898 0.864945,-0.17952 1.387176,-0.17952 1.982845,0 1.982845,1.86861 z M 17.66942,294.0069 q 0,-0.61199 -0.473271,-0.98734 -0.473272,-0.38352 -1.16686,-0.38352 -0.652788,0 -1.077101,0.41616 -0.424312,0.41615 -0.424312,1.10158 0,0.68542 0.489591,1.06078 0.440632,0.33455 1.1179,0.33455 0.652789,0 1.093421,-0.42431 0.440632,-0.42431 0.440632,-1.1179 z"
         style="font-style:normal;font-variant:normal;font-weight:500;font-stretch:normal;font-size:10.58333302px;font-family:Kabel;-inkscape-font-specification:'Kabel, Medium';font-variant-ligatures:normal;font-variant-caps:normal;font-variant-numeric:normal;font-feature-settings:normal;text-align:start;writing-mode:lr-tb;text-anchor:start;fill:#ffffff;fill-opacity:1;stroke-width:0.26458332"
         id="path6807"
         inkscape:connector-curvature="0" />
      <path
         d="m 23.074767,290.04121 -0.359033,0.82414 q -0.03264,-0.008 -0.05712,-0.008 -0.146878,-0.0326 -0.261116,-0.0326 -0.163197,0 -0.326394,0.0408 -0.163197,0.0326 -0.359034,0.13872 -0.424312,0.22848 -0.742546,0.78335 -0.359034,0.62831 -0.359034,1.33821 v 2.92939 l -0.783346,0.15504 v -5.93221 l 0.726227,-0.17136 v 1.31374 q 0.122398,-0.3672 0.456952,-0.71807 0.367193,-0.38352 0.856785,-0.56303 0.163197,-0.0571 0.456952,-0.0816 0.293754,-0.0245 0.489591,-0.0245 0.236636,0.008 0.261115,0.008 z"
         style="font-style:normal;font-variant:normal;font-weight:500;font-stretch:normal;font-size:10.58333302px;font-family:Kabel;-inkscape-font-specification:'Kabel, Medium';font-variant-ligatures:normal;font-variant-caps:normal;font-variant-numeric:normal;font-feature-settings:normal;text-align:start;writing-mode:lr-tb;text-anchor:start;fill:#ffffff;fill-opacity:1;stroke-width:0.26458332"
         id="path6809"
         inkscape:connector-curvature="0" />
      <path
         d="m 27.103888,296.16926 q -0.122398,0.0326 -0.212157,0.049 -0.301914,0.0571 -0.54671,0.0571 -0.342714,0 -0.636469,-0.0734 -0.293755,-0.0734 -0.57119,-0.28559 -0.416152,-0.30192 -0.53039,-0.93839 -0.06528,-0.35087 -0.06528,-1.25662 v -2.78251 h -0.856785 l 0.187677,-0.66094 h 0.669108 v -1.43614 l 0.758866,-0.52223 v 1.95837 h 1.787009 v 0.66094 H 25.2924 v 2.88043 q 0,0.61199 0.0408,0.96287 0.04896,0.34271 0.252955,0.51407 0.163197,0.13871 0.383514,0.20399 0.220316,0.0571 0.432472,0.0571 0.252955,0 0.497751,-0.0571 0.0816,-0.0163 0.203997,-0.0653 z"
         style="font-style:normal;font-variant:normal;font-weight:500;font-stretch:normal;font-size:10.58333302px;font-family:Kabel;-inkscape-font-specification:'Kabel, Medium';font-variant-ligatures:normal;font-variant-caps:normal;font-variant-numeric:normal;font-feature-settings:normal;text-align:start;writing-mode:lr-tb;text-anchor:start;fill:#ffffff;fill-opacity:1;stroke-width:0.26458332"
         id="path6811"
         inkscape:connector-curvature="0" />
      <path
         d="m 33.709881,291.43654 -4.56952,2.807 q 0.08976,0.17135 0.179517,0.34271 0.261116,0.39167 0.652789,0.63647 0.54671,0.34271 1.272937,0.34271 0.734387,0 1.615652,-0.55487 0.293754,-0.17952 0.734387,-0.55487 v 0.98734 q -0.391673,0.29376 -0.660949,0.43248 -0.832305,0.44063 -1.631971,0.44063 -1.330056,0 -2.25212,-0.88127 -0.954703,-0.9139 -0.954703,-2.29292 0,-1.18317 0.734387,-2.0726 0.775186,-0.93022 1.991005,-1.05262 0.114238,-0.0163 0.228476,-0.0163 0.122397,0 0.187676,0 0.815986,0 1.452455,0.36719 0.456952,0.26112 0.783346,0.69359 0.114238,0.18768 0.236636,0.37535 z m -1.077101,-0.18767 q -0.236636,-0.17952 -0.407993,-0.26928 -0.530391,-0.27743 -1.052622,-0.27743 -0.318234,0 -0.628308,0.0898 -0.310075,0.0897 -0.644629,0.31007 -0.59567,0.39983 -0.848625,1.06894 -0.171357,0.45695 -0.171357,1.00366 0,0.1632 0,0.23664 0.0082,0.0653 0.02448,0.1224 z"
         style="font-style:normal;font-variant:normal;font-weight:500;font-stretch:normal;font-size:10.58333302px;font-family:Kabel;-inkscape-font-specification:'Kabel, Medium';font-variant-ligatures:normal;font-variant-caps:normal;font-variant-numeric:normal;font-feature-settings:normal;text-align:start;writing-mode:lr-tb;text-anchor:start;fill:#ffffff;fill-opacity:1;stroke-width:0.26458332"
         id="path6813"
         inkscape:connector-curvature="0" />
      <path
         d="m 39.90396,290.74296 -0.448792,0.59567 q -0.252956,-0.19584 -0.440632,-0.2856 -0.57935,-0.29375 -1.199499,-0.29375 -0.163197,0 -0.244796,0.008 -0.954703,0.0816 -1.542213,0.79966 -0.55487,0.67727 -0.55487,1.64829 0,0.95471 0.628309,1.64013 0.660948,0.71807 1.640131,0.71807 0.56303,0 0.987343,-0.17136 0.432472,-0.17951 0.701747,-0.44879 l 0.424313,0.57119 q -0.301915,0.26112 -0.522231,0.39168 -0.685428,0.39983 -1.452454,0.39983 -1.354537,0 -2.2766,-0.90575 -0.913904,-0.9139 -0.913904,-2.2358 0,-1.29741 0.856785,-2.21948 0.864945,-0.93022 2.170521,-0.93022 0.783347,0 1.566693,0.35903 0.252955,0.11424 0.620149,0.35904 z"
         style="font-style:normal;font-variant:normal;font-weight:500;font-stretch:normal;font-size:10.58333302px;font-family:Kabel;-inkscape-font-specification:'Kabel, Medium';font-variant-ligatures:normal;font-variant-caps:normal;font-variant-numeric:normal;font-feature-settings:normal;text-align:start;writing-mode:lr-tb;text-anchor:start;fill:#ffffff;fill-opacity:1;stroke-width:0.26458332"
         id="path6815"
         inkscape:connector-curvature="0" />
      <path
         d="m 42.4593,288.30316 -0.546711,0.70175 -0.644628,-0.68543 0.595669,-0.68543 z m -0.179517,7.76002 -0.783346,0.204 v -5.99749 l 0.783346,-0.14688 z"
         style="font-style:normal;font-variant:normal;font-weight:500;font-stretch:normal;font-size:10.58333302px;font-family:Kabel;-inkscape-font-specification:'Kabel, Medium';font-variant-ligatures:normal;font-variant-caps:normal;font-variant-numeric:normal;font-feature-settings:normal;text-align:start;writing-mode:lr-tb;text-anchor:start;fill:#ffffff;fill-opacity:1;stroke-width:0.26458332"
         id="path6817"
         inkscape:connector-curvature="0" />
      <path
         d="m 49.947197,293.17459 q 0,1.30558 -0.913904,2.21133 -0.913903,0.90574 -2.26028,0.90574 -0.677268,0 -1.281097,-0.30192 -0.407993,-0.20399 -0.799666,-0.57935 -0.138717,-0.15503 -0.277435,-0.31007 v 3.10075 l -0.824145,0.24479 v -8.16801 l 0.775186,-0.15504 v 1.18318 q 0.187677,-0.27744 0.261115,-0.3672 0.342714,-0.40799 0.799666,-0.66094 0.636469,-0.35904 1.370856,-0.35904 1.305577,0 2.227641,0.96286 0.922063,0.96287 0.922063,2.29292 z m -0.807825,0.0163 q 0,-1.02814 -0.61199,-1.76253 -0.636468,-0.75886 -1.591171,-0.75886 -0.962863,0 -1.74621,0.62831 -0.840465,0.66911 -0.840465,1.62381 0,1.08526 0.677268,1.85229 0.685428,0.75886 1.70541,0.75886 1.003662,0 1.68909,-0.63647 0.718068,-0.66094 0.718068,-1.70541 z"
         style="font-style:normal;font-variant:normal;font-weight:500;font-stretch:normal;font-size:10.58333302px;font-family:Kabel;-inkscape-font-specification:'Kabel, Medium';font-variant-ligatures:normal;font-variant-caps:normal;font-variant-numeric:normal;font-feature-settings:normal;text-align:start;writing-mode:lr-tb;text-anchor:start;fill:#ffffff;fill-opacity:1;stroke-width:0.26458332"
         id="path6819"
         inkscape:connector-curvature="0" />
      <path
         d="m 55.420993,296.05502 -0.709907,0.11424 v -0.70991 q -0.252956,0.27744 -0.440632,0.408 -0.57119,0.40799 -1.232139,0.40799 -0.962863,0 -1.574852,-0.57935 -0.644628,-0.61199 -0.644628,-1.66461 0,-0.85679 0.620149,-1.46062 0.628309,-0.61198 1.509573,-0.61198 0.709907,0 1.272938,0.33455 0.187676,0.10608 0.424312,0.33455 v -0.44063 q 0,-0.14688 0,-0.22847 0,-0.56303 -0.187677,-0.82415 -0.301914,-0.42431 -1.142379,-0.42431 -0.57935,0 -1.313737,0.23663 -0.57935,0.18768 -0.652789,0.26112 l 0.310075,-0.93022 q 0.0408,-0.0163 0.391673,-0.0898 0.864945,-0.17952 1.387175,-0.17952 1.982845,0 1.982845,1.86861 z m -0.709907,-2.04812 q 0,-0.61199 -0.473272,-0.98734 -0.473271,-0.38352 -1.166859,-0.38352 -0.652789,0 -1.077101,0.41616 -0.424313,0.41615 -0.424313,1.10158 0,0.68542 0.489592,1.06078 0.440632,0.33455 1.1179,0.33455 0.652788,0 1.093421,-0.42431 0.440632,-0.42431 0.440632,-1.1179 z"
         style="font-style:normal;font-variant:normal;font-weight:500;font-stretch:normal;font-size:10.58333302px;font-family:Kabel;-inkscape-font-specification:'Kabel, Medium';font-variant-ligatures:normal;font-variant-caps:normal;font-variant-numeric:normal;font-feature-settings:normal;text-align:start;writing-mode:lr-tb;text-anchor:start;fill:#ffffff;fill-opacity:1;stroke-width:0.26458332"
         id="path6821"
         inkscape:connector-curvature="0" />
      <path
         d="m 57.603196,287.63405 -0.05712,6.49525 -0.726227,0.0734 -0.0408,-6.38917 z m 0.236636,7.9477 -0.660949,0.77519 -0.669108,-0.75071 0.644629,-0.77519 z"
         style="font-style:normal;font-variant:normal;font-weight:500;font-stretch:normal;font-size:10.58333302px;font-family:Kabel;-inkscape-font-specification:'Kabel, Medium';font-variant-ligatures:normal;font-variant-caps:normal;font-variant-numeric:normal;font-feature-settings:normal;text-align:start;writing-mode:lr-tb;text-anchor:start;fill:#ffffff;fill-opacity:1;stroke-width:0.26458332"
         id="path6823"
         inkscape:connector-curvature="0" />
    </g>
  </g>
</svg>
