<?xml version="1.0" encoding="UTF-8" standalone="no"?>
<!-- Created with Inkscape (http://www.inkscape.org/) -->

<svg
   xmlns:dc="http://purl.org/dc/elements/1.1/"
   xmlns:cc="http://creativecommons.org/ns#"
   xmlns:rdf="http://www.w3.org/1999/02/22-rdf-syntax-ns#"
   xmlns:svg="http://www.w3.org/2000/svg"
   xmlns="http://www.w3.org/2000/svg"
   xmlns:sodipodi="http://sodipodi.sourceforge.net/DTD/sodipodi-0.dtd"
   xmlns:inkscape="http://www.inkscape.org/namespaces/inkscape"
   width="250"
   height="38"
   viewBox="0 0 66.145832 10.054167"
   version="1.1"
   id="svg8"
   inkscape:version="0.92.0 r15299"
   sodipodi:docname="contribute_sl.svg">
  <defs
     id="defs2" />
  <sodipodi:namedview
     id="base"
     pagecolor="#ffffff"
     bordercolor="#666666"
     borderopacity="1.0"
     inkscape:pageopacity="0.0"
     inkscape:pageshadow="2"
     inkscape:zoom="2.8"
     inkscape:cx="131.9689"
     inkscape:cy="54.023191"
     inkscape:document-units="mm"
     inkscape:current-layer="layer1"
     showgrid="false"
     units="px"
     inkscape:measure-start="0,0"
     inkscape:measure-end="0,0"
     inkscape:pagecheckerboard="true"
     inkscape:window-width="1316"
     inkscape:window-height="676"
     inkscape:window-x="157"
     inkscape:window-y="232"
     inkscape:window-maximized="0" />
  <metadata
     id="metadata5">
    <rdf:RDF>
      <cc:Work
         rdf:about="">
        <dc:format>image/svg+xml</dc:format>
        <dc:type
           rdf:resource="http://purl.org/dc/dcmitype/StillImage" />
        <dc:title></dc:title>
      </cc:Work>
    </rdf:RDF>
  </metadata>
  <g
     inkscape:label="Ebene 1"
     inkscape:groupmode="layer"
     id="layer1"
     transform="translate(0,-286.94582)">
    <g
       aria-label="Sodeluj!"
       style="font-style:normal;font-weight:normal;font-size:10.58333302px;line-height:6.61458302px;font-family:sans-serif;letter-spacing:0px;word-spacing:0px;fill:#000000;fill-opacity:1;stroke:none;stroke-width:0.26458332"
       id="text4515">
      <path
         d="m 18.385342,293.90898 q 0,1.00366 -0.758866,1.69725 -0.758867,0.69359 -1.811488,0.69359 -0.864945,0 -1.558533,-0.44063 -0.693587,-0.4488 -0.979182,-1.01999 l 0.660948,-0.60382 q 0.163197,0.48959 0.652789,0.84862 0.53039,0.39167 1.256617,0.39167 0.685428,0 1.1587,-0.42431 0.481431,-0.43247 0.481431,-1.04446 0,-0.69359 -0.359033,-1.0771 -0.277435,-0.29376 -0.889425,-0.50591 -0.55487,-0.17136 -1.10974,-0.34272 -0.758867,-0.26111 -1.166859,-0.75886 -0.465112,-0.56303 -0.465112,-1.37086 0,-1.05262 0.709907,-1.69725 0.718068,-0.65279 1.73805,-0.65279 0.709907,0 1.330056,0.3264 0.718067,0.37535 0.897584,0.74254 l -0.587509,0.61199 q -0.220317,-0.28559 -0.391673,-0.42431 -0.546711,-0.43247 -1.232139,-0.43247 -0.628309,0 -1.10158,0.39167 -0.465112,0.38351 -0.465112,0.98734 0,0.74255 0.416153,1.10974 0.383513,0.33456 1.387175,0.57119 1.011822,0.22848 1.599332,0.84863 0.587509,0.62015 0.587509,1.57485 z"
         style="font-style:normal;font-variant:normal;font-weight:500;font-stretch:normal;font-size:10.58333302px;font-family:Kabel;-inkscape-font-specification:'Kabel, Medium';font-variant-ligatures:normal;font-variant-caps:normal;font-variant-numeric:normal;font-feature-settings:normal;text-align:start;writing-mode:lr-tb;text-anchor:start;fill:#ffffff;fill-opacity:1;stroke-width:0.26458332"
         id="path7376" />
      <path
         d="m 25.793089,293.17459 q 0,1.26478 -0.913904,2.20317 -0.905744,0.93022 -2.195001,0.93022 -1.321897,0 -2.26028,-0.91391 -0.938384,-0.9139 -0.938384,-2.22764 0,-1.29741 0.905744,-2.22764 0.913904,-0.93838 2.162362,-0.93838 1.427975,0 2.333719,0.9139 0.905744,0.91391 0.905744,2.26028 z m -0.783346,-0.0245 q 0,-0.9955 -0.701748,-1.70541 -0.701747,-0.7099 -1.69725,-0.7099 -0.987342,0 -1.68093,0.71806 -0.685428,0.70991 -0.685428,1.71357 0,0.99551 0.693588,1.69725 0.701747,0.69359 1.69725,0.69359 0.987342,0 1.68093,-0.70991 0.693588,-0.7099 0.693588,-1.69725 z"
         style="font-style:normal;font-variant:normal;font-weight:500;font-stretch:normal;font-size:10.58333302px;font-family:Kabel;-inkscape-font-specification:'Kabel, Medium';font-variant-ligatures:normal;font-variant-caps:normal;font-variant-numeric:normal;font-feature-settings:normal;text-align:start;writing-mode:lr-tb;text-anchor:start;fill:#ffffff;fill-opacity:1;stroke-width:0.26458332"
         id="path7378" />
      <path
         d="m 32.703563,296.05502 -0.726227,0.14688 v -1.09342 q -0.310075,0.46511 -0.962863,0.82415 -0.652789,0.35903 -1.444295,0.35903 -1.281097,0 -2.162361,-0.92206 -0.881265,-0.92207 -0.881265,-2.18685 0,-1.24845 0.873105,-2.17868 0.905744,-0.96286 2.211321,-0.96286 0.718067,0 1.313736,0.29375 0.416153,0.204 0.758867,0.55487 0.122398,0.15504 0.252956,0.30192 v -3.38634 l 0.767026,-0.15504 z m -0.669108,-2.80699 q 0,-1.06894 -0.693588,-1.77885 -0.693588,-0.7099 -1.68093,-0.7099 -0.971023,0 -1.680931,0.66095 -0.709907,0.65278 -0.709907,1.64013 0,1.04446 0.669108,1.77068 0.669108,0.72623 1.680931,0.72623 0.905744,0 1.640131,-0.66095 0.775186,-0.69358 0.775186,-1.64829 z"
         style="font-style:normal;font-variant:normal;font-weight:500;font-stretch:normal;font-size:10.58333302px;font-family:Kabel;-inkscape-font-specification:'Kabel, Medium';font-variant-ligatures:normal;font-variant-caps:normal;font-variant-numeric:normal;font-feature-settings:normal;text-align:start;writing-mode:lr-tb;text-anchor:start;fill:#ffffff;fill-opacity:1;stroke-width:0.26458332"
         id="path7380" />
      <path
         d="m 39.590656,291.43654 -4.56952,2.807 q 0.08976,0.17135 0.179517,0.34271 0.261116,0.39167 0.652789,0.63647 0.54671,0.34271 1.272937,0.34271 0.734387,0 1.615652,-0.55487 0.293754,-0.17952 0.734387,-0.55487 v 0.98734 q -0.391673,0.29376 -0.660949,0.43248 -0.832305,0.44063 -1.631971,0.44063 -1.330056,0 -2.25212,-0.88127 -0.954703,-0.9139 -0.954703,-2.29292 0,-1.18317 0.734387,-2.0726 0.775186,-0.93022 1.991005,-1.05262 0.114238,-0.0163 0.228476,-0.0163 0.122397,0 0.187676,0 0.815986,0 1.452455,0.36719 0.456952,0.26112 0.783346,0.69359 0.114238,0.18768 0.236636,0.37535 z m -1.077101,-0.18767 q -0.236636,-0.17952 -0.407993,-0.26928 -0.530391,-0.27743 -1.052622,-0.27743 -0.318234,0 -0.628308,0.0898 -0.310075,0.0897 -0.644629,0.31007 -0.59567,0.39983 -0.848625,1.06894 -0.171357,0.45695 -0.171357,1.00366 0,0.1632 0,0.23664 0.0082,0.0653 0.02448,0.1224 z"
         style="font-style:normal;font-variant:normal;font-weight:500;font-stretch:normal;font-size:10.58333302px;font-family:Kabel;-inkscape-font-specification:'Kabel, Medium';font-variant-ligatures:normal;font-variant-caps:normal;font-variant-numeric:normal;font-feature-settings:normal;text-align:start;writing-mode:lr-tb;text-anchor:start;fill:#ffffff;fill-opacity:1;stroke-width:0.26458332"
         id="path7382" />
      <path
         d="m 41.868006,296.05502 -0.767027,0.17136 v -8.42097 l 0.758867,-0.15504 z"
         style="font-style:normal;font-variant:normal;font-weight:500;font-stretch:normal;font-size:10.58333302px;font-family:Kabel;-inkscape-font-specification:'Kabel, Medium';font-variant-ligatures:normal;font-variant-caps:normal;font-variant-numeric:normal;font-feature-settings:normal;text-align:start;writing-mode:lr-tb;text-anchor:start;fill:#ffffff;fill-opacity:1;stroke-width:0.26458332"
         id="path7384" />
      <path
         d="m 47.93717,296.05502 -0.734387,0.13872 v -0.86494 q -0.228476,0.34271 -0.416153,0.51407 -0.55487,0.50591 -1.305577,0.50591 -0.08976,0.008 -0.130558,0.008 -0.758866,0 -1.346376,-0.46511 -0.775186,-0.61199 -0.775186,-1.77069 v -3.84329 l 0.791506,-0.13872 v 4.15336 q 0,0.50592 0.342714,0.88127 0.416152,0.45695 1.166859,0.45695 0.726227,0 1.15054,-0.53855 0.481431,-0.61199 0.481431,-1.50957 v -3.30474 l 0.775187,-0.14688 z"
         style="font-style:normal;font-variant:normal;font-weight:500;font-stretch:normal;font-size:10.58333302px;font-family:Kabel;-inkscape-font-specification:'Kabel, Medium';font-variant-ligatures:normal;font-variant-caps:normal;font-variant-numeric:normal;font-feature-settings:normal;text-align:start;writing-mode:lr-tb;text-anchor:start;fill:#ffffff;fill-opacity:1;stroke-width:0.26458332"
         id="path7386" />
      <path
         d="m 50.374494,288.2542 -0.54671,0.70175 -0.636469,-0.68543 0.587509,-0.68543 z m -0.171357,7.81714 q 0,0.0816 0,0.13056 0,0.43247 -0.04896,0.68543 -0.08976,0.45695 -0.342714,0.78334 -0.318234,0.408 -0.840465,0.58751 -0.359034,0.1224 -0.775187,0.1224 -0.09792,0 -0.187676,-0.008 -0.02448,0 -0.06528,-0.008 l -0.269275,-0.76702 q 0.04896,0.049 0.424312,0.049 0.277435,0 0.505911,-0.0571 0.236636,-0.0571 0.440632,-0.22848 0.203997,-0.1632 0.285595,-0.41615 0.08976,-0.2448 0.08976,-0.57935 v -6.08725 l 0.783346,-0.19584 z"
         style="font-style:normal;font-variant:normal;font-weight:500;font-stretch:normal;font-size:10.58333302px;font-family:Kabel;-inkscape-font-specification:'Kabel, Medium';font-variant-ligatures:normal;font-variant-caps:normal;font-variant-numeric:normal;font-feature-settings:normal;text-align:start;writing-mode:lr-tb;text-anchor:start;fill:#ffffff;fill-opacity:1;stroke-width:0.26458332"
         id="path7388" />
      <path
         d="m 52.631924,287.63405 -0.05712,6.49525 -0.726227,0.0734 -0.0408,-6.38917 z m 0.236636,7.9477 -0.660949,0.77519 -0.669108,-0.75071 0.644629,-0.77519 z"
         style="font-style:normal;font-variant:normal;font-weight:500;font-stretch:normal;font-size:10.58333302px;font-family:Kabel;-inkscape-font-specification:'Kabel, Medium';font-variant-ligatures:normal;font-variant-caps:normal;font-variant-numeric:normal;font-feature-settings:normal;text-align:start;writing-mode:lr-tb;text-anchor:start;fill:#ffffff;fill-opacity:1;stroke-width:0.26458332"
         id="path7390" />
    </g>
  </g>
</svg>
