<?xml version="1.0" encoding="UTF-8" standalone="no"?>
<!-- Created with Inkscape (http://www.inkscape.org/) -->

<svg
   xmlns:dc="http://purl.org/dc/elements/1.1/"
   xmlns:cc="http://creativecommons.org/ns#"
   xmlns:rdf="http://www.w3.org/1999/02/22-rdf-syntax-ns#"
   xmlns:svg="http://www.w3.org/2000/svg"
   xmlns="http://www.w3.org/2000/svg"
   xmlns:sodipodi="http://sodipodi.sourceforge.net/DTD/sodipodi-0.dtd"
   xmlns:inkscape="http://www.inkscape.org/namespaces/inkscape"
   width="250"
   height="38"
   viewBox="0 0 66.145832 10.054167"
   version="1.1"
   id="svg8"
   inkscape:version="0.92.0 r15299"
   sodipodi:docname="contribute_de.svg">
  <defs
     id="defs2" />
  <sodipodi:namedview
     id="base"
     pagecolor="#ffffff"
     bordercolor="#666666"
     borderopacity="1.0"
     inkscape:pageopacity="0.0"
     inkscape:pageshadow="2"
     inkscape:zoom="2.8"
     inkscape:cx="109.09856"
     inkscape:cy="54.023191"
     inkscape:document-units="mm"
     inkscape:current-layer="layer1"
     showgrid="false"
     units="px"
     inkscape:measure-start="0,0"
     inkscape:measure-end="0,0"
     inkscape:pagecheckerboard="true"
     inkscape:window-width="1920"
     inkscape:window-height="1138"
     inkscape:window-x="-8"
     inkscape:window-y="-8"
     inkscape:window-maximized="1" />
  <metadata
     id="metadata5">
    <rdf:RDF>
      <cc:Work
         rdf:about="">
        <dc:format>image/svg+xml</dc:format>
        <dc:type
           rdf:resource="http://purl.org/dc/dcmitype/StillImage" />
        <dc:title></dc:title>
      </cc:Work>
    </rdf:RDF>
  </metadata>
  <g
     inkscape:label="Ebene 1"
     inkscape:groupmode="layer"
     id="layer1"
     transform="translate(0,-286.94582)">
    <g
       aria-label="Mitmachen!"
       style="font-style:normal;font-weight:normal;font-size:10.58333302px;line-height:6.61458302px;font-family:sans-serif;letter-spacing:0px;word-spacing:0px;fill:#000000;fill-opacity:1;stroke:none;stroke-width:0.26458332"
       id="text4515">
      <path
         d="m 13.539935,296.05502 -0.824145,0.204 -1.10158,-6.00565 -2.6437938,6.19333 -2.5948341,-6.24229 -1.1505397,6.04645 -0.8567849,-0.19584 1.7462092,-8.55969 2.8641094,6.9114 2.9212279,-6.93588 z"
         style="font-style:normal;font-variant:normal;font-weight:500;font-stretch:normal;font-size:10.58333302px;font-family:Kabel;-inkscape-font-specification:'Kabel, Medium';font-variant-ligatures:normal;font-variant-caps:normal;font-variant-numeric:normal;font-feature-settings:normal;text-align:start;writing-mode:lr-tb;text-anchor:start;fill:#ffffff;fill-opacity:1;stroke-width:0.26458332"
         id="path4517" />
      <path
         d="m 16.052645,288.30316 -0.54671,0.70175 -0.644628,-0.68543 0.595669,-0.68543 z m -0.179516,7.76002 -0.783347,0.204 v -5.99749 l 0.783347,-0.14688 z"
         style="font-style:normal;font-variant:normal;font-weight:500;font-stretch:normal;font-size:10.58333302px;font-family:Kabel;-inkscape-font-specification:'Kabel, Medium';font-variant-ligatures:normal;font-variant-caps:normal;font-variant-numeric:normal;font-feature-settings:normal;text-align:start;writing-mode:lr-tb;text-anchor:start;fill:#ffffff;fill-opacity:1;stroke-width:0.26458332"
         id="path4519" />
      <path
         d="m 20.602992,296.16926 q -0.122398,0.0326 -0.212156,0.049 -0.301915,0.0571 -0.546711,0.0571 -0.342714,0 -0.636468,-0.0734 -0.293755,-0.0734 -0.57119,-0.28559 -0.416153,-0.30192 -0.530391,-0.93839 -0.06528,-0.35087 -0.06528,-1.25662 v -2.78251 h -0.856785 l 0.187677,-0.66094 h 0.669108 v -1.43614 l 0.758867,-0.52223 v 1.95837 h 1.787008 v 0.66094 h -1.795168 v 2.88043 q 0,0.61199 0.0408,0.96287 0.04896,0.34271 0.252956,0.51407 0.163197,0.13871 0.383513,0.20399 0.220316,0.0571 0.432472,0.0571 0.252956,0 0.497752,-0.0571 0.0816,-0.0163 0.203996,-0.0653 z"
         style="font-style:normal;font-variant:normal;font-weight:500;font-stretch:normal;font-size:10.58333302px;font-family:Kabel;-inkscape-font-specification:'Kabel, Medium';font-variant-ligatures:normal;font-variant-caps:normal;font-variant-numeric:normal;font-feature-settings:normal;text-align:start;writing-mode:lr-tb;text-anchor:start;fill:#ffffff;fill-opacity:1;stroke-width:0.26458332"
         id="path4521" />
      <path
         d="m 29.526385,296.05502 -0.783346,0.0979 v -4.13705 q 0,-0.53039 -0.261115,-0.88126 -0.350874,-0.46511 -1.077101,-0.46511 -0.954704,0 -1.289258,0.73439 -0.195836,0.42431 -0.195836,1.31373 v 3.33738 l -0.791506,0.17136 v -4.01465 q 0,-0.62831 -0.171357,-0.9547 -0.301915,-0.56303 -1.12606,-0.56303 -0.701748,0 -1.085261,0.53039 -0.375353,0.52223 -0.375353,1.41981 v 3.41082 l -0.783347,0.15504 v -5.93221 l 0.775187,-0.13056 v 0.85678 q 0.179517,-0.36719 0.326394,-0.52223 0.465112,-0.50591 1.183179,-0.50591 0.701748,0 1.207659,0.31823 0.407992,0.25296 0.636468,0.71807 0.285595,-0.52223 0.775187,-0.7915 0.489591,-0.26928 1.044461,-0.26928 0.815986,0 1.362696,0.45695 0.628309,0.52223 0.628309,1.46878 z"
         style="font-style:normal;font-variant:normal;font-weight:500;font-stretch:normal;font-size:10.58333302px;font-family:Kabel;-inkscape-font-specification:'Kabel, Medium';font-variant-ligatures:normal;font-variant-caps:normal;font-variant-numeric:normal;font-feature-settings:normal;text-align:start;writing-mode:lr-tb;text-anchor:start;fill:#ffffff;fill-opacity:1;stroke-width:0.26458332"
         id="path4523" />
      <path
         d="m 34.926122,296.05502 -0.709907,0.11424 v -0.70991 q -0.252956,0.27744 -0.440632,0.408 -0.57119,0.40799 -1.232139,0.40799 -0.962863,0 -1.574852,-0.57935 -0.644629,-0.61199 -0.644629,-1.66461 0,-0.85679 0.62015,-1.46062 0.628308,-0.61198 1.509573,-0.61198 0.709907,0 1.272937,0.33455 0.187677,0.10608 0.424313,0.33455 v -0.44063 q 0,-0.14688 0,-0.22847 0,-0.56303 -0.187677,-0.82415 -0.301914,-0.42431 -1.14238,-0.42431 -0.579349,0 -1.313736,0.23663 -0.57935,0.18768 -0.652789,0.26112 l 0.310075,-0.93022 q 0.0408,-0.0163 0.391673,-0.0898 0.864944,-0.17952 1.387175,-0.17952 1.982845,0 1.982845,1.86861 z m -0.709907,-2.04812 q 0,-0.61199 -0.473272,-0.98734 -0.473272,-0.38352 -1.166859,-0.38352 -0.652789,0 -1.077101,0.41616 -0.424313,0.41615 -0.424313,1.10158 0,0.68542 0.489592,1.06078 0.440632,0.33455 1.1179,0.33455 0.652788,0 1.093421,-0.42431 0.440632,-0.42431 0.440632,-1.1179 z"
         style="font-style:normal;font-variant:normal;font-weight:500;font-stretch:normal;font-size:10.58333302px;font-family:Kabel;-inkscape-font-specification:'Kabel, Medium';font-variant-ligatures:normal;font-variant-caps:normal;font-variant-numeric:normal;font-feature-settings:normal;text-align:start;writing-mode:lr-tb;text-anchor:start;fill:#ffffff;fill-opacity:1;stroke-width:0.26458332"
         id="path4525" />
      <path
         d="m 41.237212,290.74296 -0.448792,0.59567 q -0.252956,-0.19584 -0.440633,-0.2856 -0.579349,-0.29375 -1.199498,-0.29375 -0.163197,0 -0.244796,0.008 -0.954703,0.0816 -1.542213,0.79966 -0.55487,0.67727 -0.55487,1.64829 0,0.95471 0.628309,1.64013 0.660948,0.71807 1.640131,0.71807 0.56303,0 0.987343,-0.17136 0.432472,-0.17951 0.701747,-0.44879 l 0.424313,0.57119 q -0.301915,0.26112 -0.522231,0.39168 -0.685428,0.39983 -1.452454,0.39983 -1.354537,0 -2.2766,-0.90575 -0.913904,-0.9139 -0.913904,-2.2358 0,-1.29741 0.856785,-2.21948 0.864944,-0.93022 2.170521,-0.93022 0.783347,0 1.566693,0.35903 0.252955,0.11424 0.620149,0.35904 z"
         style="font-style:normal;font-variant:normal;font-weight:500;font-stretch:normal;font-size:10.58333302px;font-family:Kabel;-inkscape-font-specification:'Kabel, Medium';font-variant-ligatures:normal;font-variant-caps:normal;font-variant-numeric:normal;font-feature-settings:normal;text-align:start;writing-mode:lr-tb;text-anchor:start;fill:#ffffff;fill-opacity:1;stroke-width:0.26458332"
         id="path4527" />
      <path
         d="m 47.113617,296.05502 -0.734387,0.19584 v -3.85961 q 0,-0.69359 -0.334554,-1.10158 -0.391673,-0.48143 -1.191339,-0.48143 -0.815986,0 -1.281098,0.47327 -0.456951,0.46511 -0.456951,1.08526 v 3.68009 l -0.767027,0.204 v -8.44545 l 0.718067,-0.1632 v 3.38634 q 0.252956,-0.37535 0.693588,-0.63647 0.481432,-0.28559 1.036302,-0.28559 1.10158,0 1.69725,0.56303 0.440632,0.41615 0.57119,1.09342 0.04896,0.25295 0.04896,0.70991 z"
         style="font-style:normal;font-variant:normal;font-weight:500;font-stretch:normal;font-size:10.58333302px;font-family:Kabel;-inkscape-font-specification:'Kabel, Medium';font-variant-ligatures:normal;font-variant-caps:normal;font-variant-numeric:normal;font-feature-settings:normal;text-align:start;writing-mode:lr-tb;text-anchor:start;fill:#ffffff;fill-opacity:1;stroke-width:0.26458332"
         id="path4529" />
      <path
         d="m 53.70866,291.43654 -4.569519,2.807 q 0.08976,0.17135 0.179516,0.34271 0.261116,0.39167 0.652789,0.63647 0.54671,0.34271 1.272937,0.34271 0.734387,0 1.615652,-0.55487 0.293755,-0.17952 0.734387,-0.55487 v 0.98734 q -0.391673,0.29376 -0.660948,0.43248 -0.832306,0.44063 -1.631972,0.44063 -1.330056,0 -2.25212,-0.88127 -0.954703,-0.9139 -0.954703,-2.29292 0,-1.18317 0.734387,-2.0726 0.775186,-0.93022 1.991005,-1.05262 0.114238,-0.0163 0.228476,-0.0163 0.122398,0 0.187677,0 0.815985,0 1.452454,0.36719 0.456952,0.26112 0.783346,0.69359 0.114238,0.18768 0.236636,0.37535 z m -1.077101,-0.18767 q -0.236636,-0.17952 -0.407993,-0.26928 -0.53039,-0.27743 -1.052621,-0.27743 -0.318235,0 -0.628309,0.0898 -0.310075,0.0897 -0.644629,0.31007 -0.595669,0.39983 -0.848625,1.06894 -0.171357,0.45695 -0.171357,1.00366 0,0.1632 0,0.23664 0.0082,0.0653 0.02448,0.1224 z"
         style="font-style:normal;font-variant:normal;font-weight:500;font-stretch:normal;font-size:10.58333302px;font-family:Kabel;-inkscape-font-specification:'Kabel, Medium';font-variant-ligatures:normal;font-variant-caps:normal;font-variant-numeric:normal;font-feature-settings:normal;text-align:start;writing-mode:lr-tb;text-anchor:start;fill:#ffffff;fill-opacity:1;stroke-width:0.26458332"
         id="path4531" />
      <path
         d="m 59.453945,296.05502 -0.783346,0.13872 v -4.11257 q 0,-0.50591 -0.350874,-0.9139 -0.424312,-0.49775 -1.158699,-0.49775 -0.938384,0 -1.387176,0.82414 -0.293755,0.53855 -0.293755,1.1179 v 3.44346 l -0.783346,0.13872 v -5.91589 l 0.742547,-0.13056 v 0.84862 q 0.301915,-0.44879 0.701748,-0.70175 0.505911,-0.31823 1.1179,-0.31823 0.873104,0 1.444294,0.44879 0.750707,0.58751 0.750707,1.83597 z"
         style="font-style:normal;font-variant:normal;font-weight:500;font-stretch:normal;font-size:10.58333302px;font-family:Kabel;-inkscape-font-specification:'Kabel, Medium';font-variant-ligatures:normal;font-variant-caps:normal;font-variant-numeric:normal;font-feature-settings:normal;text-align:start;writing-mode:lr-tb;text-anchor:start;fill:#ffffff;fill-opacity:1;stroke-width:0.26458332"
         id="path4533" />
      <path
         d="m 61.54094,287.63405 -0.05712,6.49525 -0.726227,0.0734 -0.0408,-6.38917 z m 0.236636,7.9477 -0.660949,0.77519 -0.669108,-0.75071 0.644629,-0.77519 z"
         style="font-style:normal;font-variant:normal;font-weight:500;font-stretch:normal;font-size:10.58333302px;font-family:Kabel;-inkscape-font-specification:'Kabel, Medium';font-variant-ligatures:normal;font-variant-caps:normal;font-variant-numeric:normal;font-feature-settings:normal;text-align:start;writing-mode:lr-tb;text-anchor:start;fill:#ffffff;fill-opacity:1;stroke-width:0.26458332"
         id="path4535" />
    </g>
  </g>
</svg>
