<?xml version="1.0" encoding="UTF-8" standalone="no"?>
<svg
   xmlns:dc="http://purl.org/dc/elements/1.1/"
   xmlns:cc="http://creativecommons.org/ns#"
   xmlns:rdf="http://www.w3.org/1999/02/22-rdf-syntax-ns#"
   xmlns:svg="http://www.w3.org/2000/svg"
   xmlns="http://www.w3.org/2000/svg"
   xmlns:sodipodi="http://sodipodi.sourceforge.net/DTD/sodipodi-0.dtd"
   xmlns:inkscape="http://www.inkscape.org/namespaces/inkscape"
   version="1.0"
   width="74.512199mm"
   height="44.207939mm"
   id="svg3336"
   inkscape:version="0.92.0 r15299"
   viewBox="0 0 74.512199 44.207939"
   sodipodi:docname="VA_logo_17_2_subhead_editable.svg">
  <metadata
     id="metadata20">
    <rdf:RDF>
      <cc:Work
         rdf:about="">
        <dc:format>image/svg+xml</dc:format>
        <dc:type
           rdf:resource="http://purl.org/dc/dcmitype/StillImage" />
        <dc:title />
      </cc:Work>
    </rdf:RDF>
  </metadata>
  <defs
     id="defs18" />
  <sodipodi:namedview
     pagecolor="#ffffff"
     bordercolor="#666666"
     borderopacity="1"
     objecttolerance="10"
     gridtolerance="10"
     guidetolerance="10"
     inkscape:pageopacity="0"
     inkscape:pageshadow="2"
     inkscape:window-width="1806"
     inkscape:window-height="1056"
     id="namedview16"
     showgrid="false"
     inkscape:zoom="2"
     inkscape:cx="126.57138"
     inkscape:cy="85.903138"
     inkscape:window-x="46"
     inkscape:window-y="68"
     inkscape:window-maximized="0"
     inkscape:current-layer="layer2"
     showguides="false"
     fit-margin-top="0"
     fit-margin-left="0"
     fit-margin-right="0"
     fit-margin-bottom="0"
     inkscape:pagecheckerboard="true" />
  <g
     id="g3831"
     transform="translate(-3.0143553,-4.0555372)">
    <g
       id="g3828" />
  </g>
  <g
     inkscape:groupmode="layer"
     id="layer1"
     inkscape:label="Layer 1"
     style="display:inline"
     sodipodi:insensitive="true">
    <path
       style="fill:#3366ff;fill-opacity:1;fill-rule:evenodd;stroke:none"
       d="M 16.034373,0 8.0171727,15.525357 0,0 Z"
       id="path3363"
       inkscape:connector-curvature="0" />
    <g
       style="font-style:normal;font-variant:normal;font-weight:normal;font-stretch:normal;font-size:21.16666603px;line-height:125%;font-family:'Century Gothic';-inkscape-font-specification:'Century Gothic, Normal';text-align:start;letter-spacing:0px;word-spacing:0px;writing-mode:lr-tb;text-anchor:start;fill:#008000;fill-opacity:1;stroke:none;stroke-width:1px;stroke-linecap:butt;stroke-linejoin:miter;stroke-opacity:1"
       id="text3375"
       transform="translate(-3.0143553,-4.0555372)">
      <path
         d="m 11.069409,21.16463 7.090006,15.203206 H 16.52644 L 14.138989,31.365558 H 7.5864172 L 5.2093014,36.367836 H 3.5143145 L 10.697338,21.16463 Z m -0.186035,3.224609 -2.6148279,5.508708 h 5.1986489 z"
         style="fill:#000000"
         id="path4726"
         inkscape:connector-curvature="0" />
      <path
         d="m 20.526196,21.16463 h 1.529622 v 13.735595 h 5.839437 v 1.467611 h -7.369059 z"
         style="fill:#000000"
         id="path4728"
         inkscape:connector-curvature="0" />
      <path
         d="m 30.313711,21.16463 h 3.028239 q 2.604492,0 3.513997,0.227376 1.302246,0.320394 2.129069,1.322917 0.826823,0.992187 0.826823,2.501139 0,1.519287 -0.806152,2.511475 -0.806153,0.981852 -2.222087,1.322916 -1.033529,0.248047 -3.865397,0.248047 h -1.085205 v 7.069336 h -1.519287 z m 1.519287,1.477946 v 5.167643 l 2.573486,0.03101 q 1.560628,0 2.284099,-0.279053 0.72347,-0.289388 1.136881,-0.91984 0.413411,-0.640788 0.413411,-1.42627 0,-0.764811 -0.413411,-1.395263 -0.413411,-0.640788 -1.09554,-0.909506 Q 36.06013,22.64258 34.520172,22.64258 h -2.687174 z"
         style="fill:#000000"
         id="path4730"
         inkscape:connector-curvature="0" />
      <path
         d="m 42.633372,21.16463 h 1.519287 v 15.203206 h -1.519287 z"
         style="fill:#000000"
         id="path4732"
         inkscape:connector-curvature="0" />
      <path
         d="M 47.697663,36.367836 V 21.16463 h 0.330729 l 10.10791,11.637532 V 21.16463 h 1.498616 V 36.367836 H 59.293854 L 49.268626,24.874998 v 11.492838 z"
         style="fill:#000000"
         id="path4734"
         inkscape:connector-curvature="0" />
      <flowRoot
         xml:space="preserve"
         id="flowRoot4516"
         style="font-style:normal;font-weight:normal;font-size:40px;line-height:25px;font-family:sans-serif;letter-spacing:0px;word-spacing:0px;fill:#000000;fill-opacity:1;stroke:none"
         transform="matrix(0.26458333,0,0,0.26458333,3.0143553,-3.9444599)"><flowRegion
           id="flowRegion4518"><rect
             id="rect4520"
             width="412"
             height="153"
             x="-556"
             y="30.723267" /></flowRegion><flowPara
           id="flowPara4522" /></flowRoot>      <flowRoot
         xml:space="preserve"
         id="flowRoot6088"
         style="font-style:normal;font-weight:normal;font-size:40px;line-height:25px;font-family:sans-serif;letter-spacing:0px;word-spacing:0px;fill:#000000;fill-opacity:1;stroke:none"><flowRegion
           id="flowRegion6090"><rect
             id="rect6092"
             width="171"
             height="73.5"
             x="-164.5"
             y="-138.41487" /></flowRegion><flowPara
           id="flowPara6094"></flowPara></flowRoot>    </g>
    <g
       style="font-style:normal;font-variant:normal;font-weight:normal;font-stretch:normal;font-size:21.16666603px;line-height:125%;font-family:'Century Gothic';-inkscape-font-specification:'Century Gothic, Normal';text-align:start;letter-spacing:0px;word-spacing:0px;writing-mode:lr-tb;text-anchor:start;fill:#3366ff;fill-opacity:1;stroke:none;stroke-width:1px;stroke-linecap:butt;stroke-linejoin:miter;stroke-opacity:1"
       id="text3369-4"
       transform="translate(-3.0143553,-4.0555372)">
      <path
         d="m 19.637772,4.0758544 h 8.712646 v 1.4986165 h -7.193359 v 4.7542321 h 7.131347 v 1.488281 h -7.131347 v 5.96346 h 7.131347 v 1.498616 h -8.650634 z"
         style="fill:#000000"
         id="path4717"
         inkscape:connector-curvature="0" />
      <path
         d="m 31.078933,4.0758544 h 3.028239 q 2.532145,0 3.431315,0.2067058 1.353922,0.3100585 2.201416,1.3332519 0.847493,1.012858 0.847493,2.5011392 0,1.2402344 -0.589111,2.1807457 -0.578776,0.940511 -1.663981,1.426269 -1.085205,0.475423 -2.997233,0.485759 l 5.467366,7.069335 H 38.923415 L 33.466384,12.209725 H 32.59822 v 7.069335 h -1.519287 z m 1.519287,1.4882812 v 5.1676434 l 2.614827,0.02067 q 1.519288,0 2.242758,-0.289388 0.733805,-0.289388 1.136881,-0.9198402 0.413411,-0.6407877 0.413411,-1.4262695 0,-0.7648112 -0.413411,-1.3849283 Q 38.179275,6.1015705 37.507481,5.8328531 36.835687,5.5641356 35.275059,5.5641356 Z"
         style="fill:#000000"
         id="path4719"
         inkscape:connector-curvature="0" />
      <path
         d="m 43.894688,4.0758544 h 2.997233 q 1.808675,0 2.780192,0.4340821 0.971516,0.4237467 1.529622,1.3125813 0.568441,0.8888346 0.568441,1.9740397 0,1.012858 -0.496094,1.8500162 -0.496094,0.8268233 -1.457275,1.3435873 1.188557,0.403076 1.829345,0.950846 0.640788,0.537435 0.992188,1.312582 0.361735,0.764811 0.361735,1.663981 0,1.829345 -1.343588,3.100585 -1.333251,1.260905 -3.586344,1.260905 h -4.175455 z m 1.488281,1.4882812 v 4.8679194 h 0.868164 q 1.581299,0 2.325439,-0.289388 0.744141,-0.2997229 1.178223,-0.9301753 0.434082,-0.6407878 0.434082,-1.4159342 0,-1.0438639 -0.733805,-1.6329753 -0.72347,-0.5994466 -2.315105,-0.5994466 z m 0,6.3975424 v 5.829101 h 1.881022 q 1.663981,0 2.439127,-0.320394 0.775147,-0.330729 1.240235,-1.023193 0.475423,-0.692464 0.475423,-1.498617 0,-1.012858 -0.661458,-1.767333 -0.661459,-0.754476 -1.819011,-1.033529 -0.775146,-0.186035 -2.697509,-0.186035 z"
         style="fill:#000000"
         id="path4721"
         inkscape:connector-curvature="0" />
      <path
         d="M 62.21915,4.0758544 69.309157,19.27906 H 67.676181 L 65.28873,14.276782 H 58.736159 L 56.359043,19.27906 H 54.664056 L 61.84708,4.0758544 Z m -0.186035,3.2246093 -2.614827,5.5087073 h 5.198649 z"
         style="fill:#000000"
         id="path4723"
         inkscape:connector-curvature="0" />
    </g>
    <path
       transform="translate(-3.0143553,-4.0555372)"
       style="fill:#008000;fill-opacity:1;fill-rule:evenodd;stroke:none"
       d="m 61.492101,36.463568 8.017087,-16.797839 8.017369,16.797839 z"
       id="path3361"
       inkscape:connector-curvature="0" />
    <path
       id="path2997"
       d="m 70.616711,27.255489 c 0,2.276373 -1.845365,4.121738 -4.121736,4.121738 -2.276373,0 -4.121738,-1.845365 -4.121738,-4.121738 0,-2.276372 1.845365,-4.121736 4.121738,-4.121736 2.276371,0 4.121736,1.845364 4.121736,4.121736 z"
       style="fill:none;stroke:#ffffff;stroke-width:0.3572486;stroke-linecap:round;stroke-linejoin:round;stroke-miterlimit:4;stroke-dashoffset:0;stroke-opacity:1"
       inkscape:connector-curvature="0" />
    <g
       aria-label="17/2"
       transform="matrix(0.26458333,0,0,0.26458333,30.706221,31.047332)"
       style="font-style:normal;font-weight:normal;font-size:40px;line-height:25px;font-family:sans-serif;letter-spacing:0px;word-spacing:0px;fill:#ffffff;fill-opacity:1;stroke:none"
       id="flowRoot4502">
      <path
         d="m 125.85301,-17.394808 h 2.18229 v 7.6614582 h -1.44791 v -6.2916672 h -1.57813 z"
         style="font-style:normal;font-variant:normal;font-weight:bold;font-stretch:normal;font-size:10.66666698px;font-family:'Century Gothic';-inkscape-font-specification:'Century Gothic Bold';fill:#ffffff;fill-opacity:1"
         id="path4510"
         inkscape:connector-curvature="0" />
      <path
         d="m 129.30339,-17.394808 h 5.02604 v 0.765625 l -3.45834,7.0885415 -1.23437,-0.5989585 2.875,-5.885417 h -3.20833 z"
         style="font-style:normal;font-variant:normal;font-weight:bold;font-stretch:normal;font-size:10.66666698px;font-family:'Century Gothic';-inkscape-font-specification:'Century Gothic Bold';fill:#ffffff;fill-opacity:1"
         id="path4512"
         inkscape:connector-curvature="0" />
      <path
         d="m 134.87109,-8.3687665 3.44271,-9.2447915 h 1.01042 l -3.44792,9.2447915 z"
         style="font-style:normal;font-variant:normal;font-weight:bold;font-stretch:normal;font-size:10.66666698px;font-family:'Century Gothic';-inkscape-font-specification:'Century Gothic Bold';fill:#ffffff;fill-opacity:1"
         id="path4514"
         inkscape:connector-curvature="0" />
      <path
         d="m 141.41797,-14.926058 h -1.42188 q 0.0573,-1.239584 0.77605,-1.947917 0.72395,-0.713542 1.85416,-0.713542 0.69792,0 1.22917,0.296875 0.53646,0.291667 0.85417,0.848959 0.32291,0.552083 0.32291,1.125 0,0.682291 -0.39062,1.46875 -0.38542,0.786458 -1.41667,1.859375 l -0.85937,0.90625 h 2.72916 v 1.3489582 h -5.30729 v -0.6979172 l 2.36979,-2.416666 q 0.85938,-0.869792 1.14063,-1.395834 0.28646,-0.53125 0.28646,-0.958333 0,-0.442708 -0.29688,-0.729167 -0.29167,-0.291666 -0.75521,-0.291666 -0.46875,0 -0.78125,0.348958 -0.3125,0.348958 -0.33333,0.947917 z"
         style="font-style:normal;font-variant:normal;font-weight:bold;font-stretch:normal;font-size:10.66666698px;font-family:'Century Gothic';-inkscape-font-specification:'Century Gothic Bold';fill:#ffffff;fill-opacity:1"
         id="path4516"
         inkscape:connector-curvature="0" />
    </g>
  </g>
  <g
     inkscape:groupmode="layer"
     id="layer2"
     inkscape:label="Layer 2">
    <flowRoot
       xml:space="preserve"
       id="flowRoot6064-3"
       style="font-style:normal;font-variant:normal;font-weight:normal;font-stretch:normal;font-size:40px;line-height:25px;font-family:sans-serif;-inkscape-font-specification:'Century Gothic, Normal';text-align:start;letter-spacing:0px;word-spacing:0px;writing-mode:lr-tb;text-anchor:start;display:inline;fill:#000000;fill-opacity:1;stroke:none;stroke-width:1px;stroke-linecap:butt;stroke-linejoin:miter;stroke-opacity:1"
       transform="matrix(0.2077159,0,0,0.2077159,0.09319065,5.5524769)"><flowRegion
         id="flowRegion6066-0"><rect
           id="rect6068-1"
           width="270.8219"
           height="62.932503"
           x="9.1923885"
           y="130.31557" /></flowRegion><flowPara
         id="flowPara6070-6"
         style="font-size:17.33333397px">DER </flowPara></flowRoot>    <flowRoot
       xml:space="preserve"
       id="flowRoot6072"
       style="font-style:normal;font-variant:normal;font-weight:normal;font-stretch:normal;font-size:40px;line-height:25px;font-family:sans-serif;-inkscape-font-specification:'Century Gothic, Normal';text-align:start;letter-spacing:0px;word-spacing:0px;writing-mode:lr-tb;text-anchor:start;display:inline;fill:#000000;fill-opacity:1;stroke:none;stroke-width:1px;stroke-linecap:butt;stroke-linejoin:miter;stroke-opacity:1"
       transform="matrix(0.2077159,0,0,0.2077159,32.135386,30.114003)"><flowRegion
         id="flowRegion6074"><rect
           id="rect6076"
           width="241.5"
           height="40.5"
           x="-99"
           y="11.585123" /></flowRegion><flowPara
         id="flowPara6078"
         style="font-size:16px">ALPINE</flowPara></flowRoot>    <flowRoot
       xml:space="preserve"
       id="flowRoot6080"
       style="font-style:normal;font-variant:normal;font-weight:normal;font-stretch:normal;font-size:40px;line-height:25px;font-family:sans-serif;-inkscape-font-specification:'Century Gothic, Normal';text-align:start;letter-spacing:0px;word-spacing:0px;writing-mode:lr-tb;text-anchor:start;display:inline;fill:#000000;fill-opacity:1;stroke:none;stroke-width:1px;stroke-linecap:butt;stroke-linejoin:miter;stroke-opacity:1"
       transform="matrix(0.2077159,0,0,0.2077159,47.5857,53.347757)"><flowRegion
         id="flowRegion6082"><rect
           id="rect6084"
           width="194.5"
           height="87"
           x="-108.5"
           y="-99.914879" /></flowRegion><flowPara
         id="flowPara6086"
         style="font-size:17.33333397px">KULTURRAUM</flowPara></flowRoot>    <flowRoot
       xml:space="preserve"
       id="flowRoot6064"
       style="font-style:normal;font-variant:normal;font-weight:normal;font-stretch:normal;font-size:40px;line-height:25px;font-family:sans-serif;-inkscape-font-specification:'Century Gothic, Normal';text-align:start;letter-spacing:0px;word-spacing:0px;writing-mode:lr-tb;text-anchor:start;display:inline;fill:#000000;fill-opacity:1;stroke:none;stroke-width:1px;stroke-linecap:butt;stroke-linejoin:miter;stroke-opacity:1"
       transform="matrix(0.2077159,0,0,0.2077159,50.645958,5.5524769)"><flowRegion
         id="flowRegion6066"><rect
           id="rect6068"
           width="270.8219"
           height="62.932503"
           x="9.1923885"
           y="130.31557" /></flowRegion><flowPara
         id="flowPara6070"
         style="font-size:17.33333397px">IM </flowPara></flowRoot>    <flowRoot
       xml:space="preserve"
       id="flowRoot6080-6"
       style="font-style:normal;font-variant:normal;font-weight:normal;font-stretch:normal;font-size:40px;line-height:25px;font-family:sans-serif;-inkscape-font-specification:'Century Gothic, Normal';text-align:start;letter-spacing:0px;word-spacing:0px;writing-mode:lr-tb;text-anchor:start;display:inline;fill:#000000;fill-opacity:1;stroke:none;stroke-width:1px;stroke-linecap:butt;stroke-linejoin:miter;stroke-opacity:1"
       transform="matrix(0.2077159,0,0,0.2077159,24.501858,57.692593)"><flowRegion
         id="flowRegion6082-5"><rect
           id="rect6084-6"
           width="194.5"
           height="87"
           x="-108.5"
           y="-99.914879" /></flowRegion><flowPara
         id="flowPara6086-6"
         style="font-size:17.33333397px">SPIEGEL</flowPara></flowRoot>    <flowRoot
       xml:space="preserve"
       id="flowRoot6080-6-0"
       style="font-style:normal;font-variant:normal;font-weight:normal;font-stretch:normal;font-size:40px;line-height:25px;font-family:sans-serif;-inkscape-font-specification:'Century Gothic, Normal';text-align:start;letter-spacing:0px;word-spacing:0px;writing-mode:lr-tb;text-anchor:start;display:inline;fill:#000000;fill-opacity:1;stroke:none;stroke-width:1px;stroke-linecap:butt;stroke-linejoin:miter;stroke-opacity:1"
       transform="matrix(0.2077159,0,0,0.2077159,41.188775,57.614225)"><flowRegion
         id="flowRegion6082-5-2"><rect
           id="rect6084-6-2"
           width="194.5"
           height="87"
           x="-108.5"
           y="-99.914879" /></flowRegion><flowPara
         id="flowPara6086-6-5"
         style="font-size:17.33333397px">SEINER</flowPara></flowRoot>    <flowRoot
       xml:space="preserve"
       id="flowRoot6080-6-0-4"
       style="font-style:normal;font-variant:normal;font-weight:normal;font-stretch:normal;font-size:40px;line-height:25px;font-family:sans-serif;-inkscape-font-specification:'Century Gothic, Normal';text-align:start;letter-spacing:0px;word-spacing:0px;writing-mode:lr-tb;text-anchor:start;display:inline;fill:#000000;fill-opacity:1;stroke:none;stroke-width:1px;stroke-linecap:butt;stroke-linejoin:miter;stroke-opacity:1"
       transform="matrix(0.2077159,0,0,0.2077159,56.139135,57.615985)"><flowRegion
         id="flowRegion6082-5-2-9"><rect
           id="rect6084-6-2-3"
           width="194.5"
           height="87"
           x="-108.5"
           y="-99.914879" /></flowRegion><flowPara
         id="flowPara6086-6-5-3"
         style="font-size:17.33333397px">MEHRSPRACHIGKEIT</flowPara></flowRoot>  </g>
</svg>
