<?xml version="1.0" encoding="UTF-8" standalone="no"?>
<svg
   xmlns:dc="http://purl.org/dc/elements/1.1/"
   xmlns:cc="http://creativecommons.org/ns#"
   xmlns:rdf="http://www.w3.org/1999/02/22-rdf-syntax-ns#"
   xmlns:svg="http://www.w3.org/2000/svg"
   xmlns="http://www.w3.org/2000/svg"
   xmlns:sodipodi="http://sodipodi.sourceforge.net/DTD/sodipodi-0.dtd"
   xmlns:inkscape="http://www.inkscape.org/namespaces/inkscape"
   version="1.0"
   width="80mm"
   height="40mm"
   id="svg3336"
   inkscape:version="0.92.0 r15299"
   viewBox="0 0 80 40"
   sodipodi:docname="VA_logo_17_2.svg">
  <metadata
     id="metadata20">
    <rdf:RDF>
      <cc:Work
         rdf:about="">
        <dc:format>image/svg+xml</dc:format>
        <dc:type
           rdf:resource="http://purl.org/dc/dcmitype/StillImage" />
        <dc:title></dc:title>
      </cc:Work>
    </rdf:RDF>
  </metadata>
  <defs
     id="defs18" />
  <sodipodi:namedview
     pagecolor="#ffffff"
     bordercolor="#666666"
     borderopacity="1"
     objecttolerance="10"
     gridtolerance="10"
     guidetolerance="10"
     inkscape:pageopacity="0"
     inkscape:pageshadow="2"
     inkscape:window-width="1273"
     inkscape:window-height="1056"
     id="namedview16"
     showgrid="false"
     inkscape:zoom="2"
     inkscape:cx="247.20657"
     inkscape:cy="31.580512"
     inkscape:window-x="264"
     inkscape:window-y="181"
     inkscape:window-maximized="0"
     inkscape:current-layer="svg3336" />
  <g
     id="g3831">
    <g
       id="g3828">
      <path
         style="fill:#008000;fill-opacity:1;fill-rule:evenodd;stroke:none"
         d="m 61.492101,36.463568 8.017087,-16.797839 8.017369,16.797839 z"
         id="path3361"
         inkscape:connector-curvature="0" />
    </g>
  </g>
  <path
     style="fill:#3366ff;fill-opacity:1;fill-rule:evenodd;stroke:none"
     d="M 19.048728,4.0555372 11.031528,19.580893 3.0143553,4.0555372 Z"
     id="path3363"
     inkscape:connector-curvature="0" />
  <g
     style="font-style:normal;font-variant:normal;font-weight:normal;font-stretch:normal;font-size:21.16666603px;line-height:125%;font-family:'Century Gothic';-inkscape-font-specification:'Century Gothic, Normal';text-align:start;letter-spacing:0px;word-spacing:0px;writing-mode:lr-tb;text-anchor:start;fill:#008000;fill-opacity:1;stroke:none;stroke-width:1px;stroke-linecap:butt;stroke-linejoin:miter;stroke-opacity:1"
     id="text3375">
    <path
       d="m 11.069409,21.16463 7.090006,15.203206 -1.632975,0 -2.387451,-5.002278 -6.5525718,0 -2.3771158,5.002278 -1.6949869,0 7.1830235,-15.203206 0.372071,0 z m -0.186035,3.224609 -2.6148279,5.508708 5.1986489,0 -2.583821,-5.508708 z"
       style="fill:#000000"
       id="path4726" />
    <path
       d="m 20.526196,21.16463 1.529622,0 0,13.735595 5.839437,0 0,1.467611 -7.369059,0 0,-15.203206 z"
       style="fill:#000000"
       id="path4728" />
    <path
       d="m 30.313711,21.16463 3.028239,0 q 2.604492,0 3.513997,0.227376 1.302246,0.320394 2.129069,1.322917 0.826823,0.992187 0.826823,2.501139 0,1.519287 -0.806152,2.511475 -0.806153,0.981852 -2.222087,1.322916 -1.033529,0.248047 -3.865397,0.248047 l -1.085205,0 0,7.069336 -1.519287,0 0,-15.203206 z m 1.519287,1.477946 0,5.167643 2.573486,0.03101 q 1.560628,0 2.284099,-0.279053 0.72347,-0.289388 1.136881,-0.91984 0.413411,-0.640788 0.413411,-1.42627 0,-0.764811 -0.413411,-1.395263 -0.413411,-0.640788 -1.09554,-0.909506 -0.671794,-0.268717 -2.211752,-0.268717 l -2.687174,0 z"
       style="fill:#000000"
       id="path4730" />
    <path
       d="m 42.633372,21.16463 1.519287,0 0,15.203206 -1.519287,0 0,-15.203206 z"
       style="fill:#000000"
       id="path4732" />
    <path
       d="m 47.697663,36.367836 0,-15.203206 0.330729,0 10.10791,11.637532 0,-11.637532 1.498616,0 0,15.203206 -0.341064,0 -10.025228,-11.492838 0,11.492838 -1.570963,0 z"
       style="fill:#000000"
       id="path4734" />
  </g>
  <g
     style="font-style:normal;font-variant:normal;font-weight:normal;font-stretch:normal;font-size:21.16666603px;line-height:125%;font-family:'Century Gothic';-inkscape-font-specification:'Century Gothic, Normal';text-align:start;letter-spacing:0px;word-spacing:0px;writing-mode:lr-tb;text-anchor:start;fill:#3366ff;fill-opacity:1;stroke:none;stroke-width:1px;stroke-linecap:butt;stroke-linejoin:miter;stroke-opacity:1"
     id="text3369-4">
    <path
       d="m 19.637772,4.0758544 8.712646,0 0,1.4986165 -7.193359,0 0,4.7542321 7.131347,0 0,1.488281 -7.131347,0 0,5.96346 7.131347,0 0,1.498616 -8.650634,0 0,-15.2032056 z"
       style="fill:#000000"
       id="path4717" />
    <path
       d="m 31.078933,4.0758544 3.028239,0 q 2.532145,0 3.431315,0.2067058 1.353922,0.3100585 2.201416,1.3332519 0.847493,1.012858 0.847493,2.5011392 0,1.2402344 -0.589111,2.1807457 -0.578776,0.940511 -1.663981,1.426269 -1.085205,0.475423 -2.997233,0.485759 l 5.467366,7.069335 -1.881022,0 -5.457031,-7.069335 -0.868164,0 0,7.069335 -1.519287,0 0,-15.2032056 z m 1.519287,1.4882812 0,5.1676434 2.614827,0.02067 q 1.519288,0 2.242758,-0.289388 0.733805,-0.289388 1.136881,-0.9198402 0.413411,-0.6407877 0.413411,-1.4262695 0,-0.7648112 -0.413411,-1.3849283 Q 38.179275,6.1015705 37.507481,5.8328531 36.835687,5.5641356 35.275059,5.5641356 l -2.676839,0 z"
       style="fill:#000000"
       id="path4719" />
    <path
       d="m 43.894688,4.0758544 2.997233,0 q 1.808675,0 2.780192,0.4340821 0.971516,0.4237467 1.529622,1.3125813 0.568441,0.8888346 0.568441,1.9740397 0,1.012858 -0.496094,1.8500162 -0.496094,0.8268233 -1.457275,1.3435873 1.188557,0.403076 1.829345,0.950846 0.640788,0.537435 0.992188,1.312582 0.361735,0.764811 0.361735,1.663981 0,1.829345 -1.343588,3.100585 -1.333251,1.260905 -3.586344,1.260905 l -4.175455,0 0,-15.2032056 z m 1.488281,1.4882812 0,4.8679194 0.868164,0 q 1.581299,0 2.325439,-0.289388 0.744141,-0.2997229 1.178223,-0.9301753 0.434082,-0.6407878 0.434082,-1.4159342 0,-1.0438639 -0.733805,-1.6329753 -0.72347,-0.5994466 -2.315105,-0.5994466 l -1.756998,0 z m 0,6.3975424 0,5.829101 1.881022,0 q 1.663981,0 2.439127,-0.320394 0.775147,-0.330729 1.240235,-1.023193 0.475423,-0.692464 0.475423,-1.498617 0,-1.012858 -0.661458,-1.767333 -0.661459,-0.754476 -1.819011,-1.033529 -0.775146,-0.186035 -2.697509,-0.186035 l -0.857829,0 z"
       style="fill:#000000"
       id="path4721" />
    <path
       d="m 62.21915,4.0758544 7.090007,15.2032056 -1.632976,0 -2.387451,-5.002278 -6.552571,0 -2.377116,5.002278 -1.694987,0 7.183024,-15.2032056 0.37207,0 z m -0.186035,3.2246093 -2.614827,5.5087073 5.198649,0 -2.583822,-5.5087073 z"
       style="fill:#000000"
       id="path4723" />
  </g>
  <path
     id="path2997"
     d="m 73.631066,31.311025 c 0,2.276373 -1.845365,4.121738 -4.121736,4.121738 -2.276373,0 -4.121738,-1.845365 -4.121738,-4.121738 0,-2.276372 1.845365,-4.121736 4.121738,-4.121736 2.276371,0 4.121736,1.845364 4.121736,4.121736 z"
     style="fill:none;stroke:#ffffff;stroke-width:0.3572486;stroke-linecap:round;stroke-linejoin:round;stroke-miterlimit:4;stroke-opacity:1;stroke-dashoffset:0"
     inkscape:connector-curvature="0" />
  <g
     aria-label="17/2"
     transform="matrix(0.26458333,0,0,0.26458333,33.720575,35.102869)"
     style="font-style:normal;font-weight:normal;font-size:40px;line-height:25px;font-family:sans-serif;letter-spacing:0px;word-spacing:0px;fill:#ffffff;fill-opacity:1;stroke:none"
     id="flowRoot4502">
    <path
       d="m 125.85301,-17.394808 h 2.18229 v 7.6614582 h -1.44791 v -6.2916672 h -1.57813 z"
       style="font-style:normal;font-variant:normal;font-weight:bold;font-stretch:normal;font-size:10.66666698px;font-family:'Century Gothic';-inkscape-font-specification:'Century Gothic Bold';fill:#ffffff;fill-opacity:1"
       id="path4510"
       inkscape:connector-curvature="0" />
    <path
       d="m 129.30339,-17.394808 h 5.02604 v 0.765625 l -3.45834,7.0885415 -1.23437,-0.5989585 2.875,-5.885417 h -3.20833 z"
       style="font-style:normal;font-variant:normal;font-weight:bold;font-stretch:normal;font-size:10.66666698px;font-family:'Century Gothic';-inkscape-font-specification:'Century Gothic Bold';fill:#ffffff;fill-opacity:1"
       id="path4512"
       inkscape:connector-curvature="0" />
    <path
       d="m 134.87109,-8.3687665 3.44271,-9.2447915 h 1.01042 l -3.44792,9.2447915 z"
       style="font-style:normal;font-variant:normal;font-weight:bold;font-stretch:normal;font-size:10.66666698px;font-family:'Century Gothic';-inkscape-font-specification:'Century Gothic Bold';fill:#ffffff;fill-opacity:1"
       id="path4514"
       inkscape:connector-curvature="0" />
    <path
       d="m 141.41797,-14.926058 h -1.42188 q 0.0573,-1.239584 0.77605,-1.947917 0.72395,-0.713542 1.85416,-0.713542 0.69792,0 1.22917,0.296875 0.53646,0.291667 0.85417,0.848959 0.32291,0.552083 0.32291,1.125 0,0.682291 -0.39062,1.46875 -0.38542,0.786458 -1.41667,1.859375 l -0.85937,0.90625 h 2.72916 v 1.3489582 h -5.30729 v -0.6979172 l 2.36979,-2.416666 q 0.85938,-0.869792 1.14063,-1.395834 0.28646,-0.53125 0.28646,-0.958333 0,-0.442708 -0.29688,-0.729167 -0.29167,-0.291666 -0.75521,-0.291666 -0.46875,0 -0.78125,0.348958 -0.3125,0.348958 -0.33333,0.947917 z"
       style="font-style:normal;font-variant:normal;font-weight:bold;font-stretch:normal;font-size:10.66666698px;font-family:'Century Gothic';-inkscape-font-specification:'Century Gothic Bold';fill:#ffffff;fill-opacity:1"
       id="path4516"
       inkscape:connector-curvature="0" />
  </g>
</svg>
