<?xml version="1.0" encoding="UTF-8" standalone="no"?>
<svg
   xmlns:dc="http://purl.org/dc/elements/1.1/"
   xmlns:cc="http://creativecommons.org/ns#"
   xmlns:rdf="http://www.w3.org/1999/02/22-rdf-syntax-ns#"
   xmlns:svg="http://www.w3.org/2000/svg"
   xmlns="http://www.w3.org/2000/svg"
   xmlns:sodipodi="http://sodipodi.sourceforge.net/DTD/sodipodi-0.dtd"
   xmlns:inkscape="http://www.inkscape.org/namespaces/inkscape"
   version="1.0"
   width="30mm"
   height="20mm"
   id="svg3336"
   inkscape:version="0.92.0 r15299"
   viewBox="0 0 30 20"
   sodipodi:docname="va_logo_klein_version.svg"
   inkscape:export-filename="C:\Users\FZacherl\Desktop\VA_logo_klein.png"
   inkscape:export-xdpi="90"
   inkscape:export-ydpi="90">
  <metadata
     id="metadata20">
    <rdf:RDF>
      <cc:Work
         rdf:about="">
        <dc:format>image/svg+xml</dc:format>
        <dc:type
           rdf:resource="http://purl.org/dc/dcmitype/StillImage" />
        <dc:title />
      </cc:Work>
    </rdf:RDF>
  </metadata>
  <defs
     id="defs18" />
  <sodipodi:namedview
     pagecolor="#ffffff"
     bordercolor="#666666"
     borderopacity="1"
     objecttolerance="10"
     gridtolerance="10"
     guidetolerance="10"
     inkscape:pageopacity="0"
     inkscape:pageshadow="2"
     inkscape:window-width="1624"
     inkscape:window-height="792"
     id="namedview16"
     showgrid="false"
     inkscape:showpageshadow="false"
     showborder="false"
     inkscape:zoom="2.4694444"
     inkscape:cx="-50.144172"
     inkscape:cy="67.720084"
     inkscape:window-x="48"
     inkscape:window-y="88"
     inkscape:window-maximized="0"
     inkscape:current-layer="svg3336" />
  <path
     style="fill:#008000;fill-opacity:1;fill-rule:evenodd;stroke:none"
     d="M 11.66353,18.406425 19.680617,1.6085859 27.697986,18.406425 Z"
     id="path3361"
     inkscape:connector-curvature="0" />
  <path
     style="fill:#3366ff;fill-opacity:1;fill-rule:evenodd;stroke:none"
     d="M 18.248731,1.4269657 10.231529,16.952322 2.2143552,1.4269657 Z"
     id="path3363"
     inkscape:connector-curvature="0" />
  <path
     id="path2997"
     d="m 23.802495,13.470832 c 0,2.276373 -1.845365,4.121738 -4.121736,4.121738 -2.276373,0 -4.121738,-1.845365 -4.121738,-4.121738 0,-2.276372 1.845365,-4.1217361 4.121738,-4.1217361 2.276371,0 4.121736,1.8453641 4.121736,4.1217361 z"
     style="fill:none;stroke:#fbfbfb;stroke-width:0.35724863;stroke-linecap:round;stroke-linejoin:round;stroke-miterlimit:4;stroke-dashoffset:0;stroke-opacity:1"
     inkscape:connector-curvature="0" />
  <g
     id="text3767"
     style="font-style:normal;font-weight:normal;font-size:19.12997246px;line-height:125%;font-family:Sans;letter-spacing:0px;word-spacing:0px;fill:#fbfbfb;fill-opacity:1;stroke:none"
     transform="translate(-49.815961,-17.840193)">
    <path
       id="path3857"
       style="font-weight:bold;font-size:2.86949587px;-inkscape-font-specification:'Sans Bold';fill:#fbfbfb;fill-opacity:1"
       d="M 67.952683,32.338047 H 67.558968 V 30.85426 c -0.143849,0.134509 -0.313384,0.233988 -0.508607,0.298439 v -0.357286 c 0.102749,-0.03363 0.214371,-0.09738 0.334868,-0.191253 0.120496,-0.09387 0.203162,-0.203394 0.247998,-0.328563 h 0.319456 z"
       inkscape:connector-curvature="0" />
    <path
       id="path3859"
       style="font-weight:bold;font-size:2.86949587px;-inkscape-font-specification:'Sans Bold';fill:#fbfbfb;fill-opacity:1"
       d="m 68.542555,30.677719 v -0.365693 h 1.346477 v 0.285829 c -0.111157,0.109289 -0.22418,0.266214 -0.339071,0.470776 -0.114893,0.204565 -0.202463,0.421972 -0.26271,0.652222 -0.06025,0.230251 -0.08991,0.435983 -0.08897,0.617194 h -0.379704 c 0.0065,-0.28396 0.06515,-0.573525 0.175841,-0.868695 0.110687,-0.295168 0.258506,-0.559046 0.443454,-0.791633 z"
       inkscape:connector-curvature="0" />
    <path
       id="path3861"
       style="font-weight:bold;font-size:2.86949587px;-inkscape-font-specification:'Sans Bold';fill:#fbfbfb;fill-opacity:1"
       d="m 70.013732,32.373075 0.508607,-2.124099 h 0.295637 l -0.514212,2.124099 z"
       inkscape:connector-curvature="0" />
    <path
       id="path3863"
       style="font-weight:bold;font-size:2.86949587px;-inkscape-font-specification:'Sans Bold';fill:#fbfbfb;fill-opacity:1"
       d="M 71.943076,32.338047 H 71.549361 V 30.85426 c -0.143849,0.134509 -0.313385,0.233988 -0.508607,0.298439 v -0.357286 c 0.102748,-0.03363 0.214371,-0.09738 0.334868,-0.191253 0.120495,-0.09387 0.203162,-0.203394 0.247998,-0.328563 h 0.319456 z"
       inkscape:connector-curvature="0" />
  </g>
</svg>
