<?xml version="1.0" encoding="UTF-8" standalone="no"?>
<svg
   xmlns:dc="http://purl.org/dc/elements/1.1/"
   xmlns:cc="http://creativecommons.org/ns#"
   xmlns:rdf="http://www.w3.org/1999/02/22-rdf-syntax-ns#"
   xmlns:svg="http://www.w3.org/2000/svg"
   xmlns="http://www.w3.org/2000/svg"
   xmlns:sodipodi="http://sodipodi.sourceforge.net/DTD/sodipodi-0.dtd"
   xmlns:inkscape="http://www.inkscape.org/namespaces/inkscape"
   id="svg8"
   version="1.1"
   viewBox="0 0 282.2593 62.559925"
   height="62.559925mm"
   width="282.25931mm"
   sodipodi:docname="VA_LOGO_SVG_triangles.svg"
   inkscape:version="0.92.0 r15299">
  <sodipodi:namedview
     pagecolor="#ffffff"
     bordercolor="#666666"
     borderopacity="1"
     objecttolerance="10"
     gridtolerance="10"
     guidetolerance="10"
     inkscape:pageopacity="0"
     inkscape:pageshadow="2"
     inkscape:window-width="1978"
     inkscape:window-height="998"
     id="namedview99"
     showgrid="false"
     inkscape:pagecheckerboard="true"
     inkscape:zoom="1.2075446"
     inkscape:cx="550.56832"
     inkscape:cy="81.667901"
     inkscape:window-x="428"
     inkscape:window-y="169"
     inkscape:window-maximized="0"
     inkscape:current-layer="svg8"
     fit-margin-top="0"
     fit-margin-left="0"
     fit-margin-right="0"
     fit-margin-bottom="0"
     showguides="false"
     inkscape:snap-global="false"
     inkscape:guide-bbox="true">
    <sodipodi:guide
       position="16.030283,12.078101"
       orientation="1,0"
       id="guide4570"
       inkscape:locked="false" />
    <sodipodi:guide
       position="266.03312,31.797869"
       orientation="1,0"
       id="guide4572"
       inkscape:locked="false" />
  </sodipodi:namedview>
  <defs
     id="defs2" />
  <metadata
     id="metadata5">
    <rdf:RDF>
      <cc:Work
         rdf:about="">
        <dc:format>image/svg+xml</dc:format>
        <dc:type
           rdf:resource="http://purl.org/dc/dcmitype/StillImage" />
        <dc:title />
      </cc:Work>
    </rdf:RDF>
  </metadata>
  <g
     aria-label="V"
     transform="matrix(0.58745746,0,0,0.71107846,311.78908,-255.25624)"
     style="font-style:normal;font-weight:normal;font-size:40px;line-height:1.25;font-family:sans-serif;letter-spacing:0px;word-spacing:0px;fill:#000000;fill-opacity:1;stroke:none"
     id="flowRoot4499" />
  <g
     aria-label="E"
     transform="matrix(0.47358623,0,0,0.56963576,285.64315,-196.29472)"
     style="font-style:normal;font-weight:normal;font-size:40px;line-height:1.25;font-family:sans-serif;letter-spacing:0px;word-spacing:0px;fill:#000000;fill-opacity:1;stroke:none"
     id="flowRoot4499-5" />
  <g
     aria-label="R"
     transform="matrix(0.46397731,0,0,0.56514147,303.99469,-194.67299)"
     style="font-style:normal;font-weight:normal;font-size:40px;line-height:1.25;font-family:sans-serif;letter-spacing:0px;word-spacing:0px;fill:#000000;fill-opacity:1;stroke:none"
     id="flowRoot4499-5-6" />
  <g
     aria-label="B"
     transform="matrix(0.46166171,0,0,0.56963577,325.65878,-196.19919)"
     style="font-style:normal;font-weight:normal;font-size:40px;line-height:1.25;font-family:sans-serif;letter-spacing:0px;word-spacing:0px;fill:#000000;fill-opacity:1;stroke:none"
     id="flowRoot4499-5-6-2" />
  <g
     aria-label="A"
     transform="matrix(0.46166172,0,0,0.56963577,346.23162,-196.373)"
     style="font-style:normal;font-weight:normal;font-size:40px;line-height:1.25;font-family:sans-serif;letter-spacing:0px;word-spacing:0px;fill:#000000;fill-opacity:1;stroke:none"
     id="flowRoot4499-5-6-2-2" />
  <g
     aria-label="A"
     transform="matrix(0.58498194,0,0,0.70477292,427.98747,-252.74808)"
     style="font-style:normal;font-weight:normal;font-size:40px;line-height:1.25;font-family:sans-serif;letter-spacing:0px;word-spacing:0px;fill:#000000;fill-opacity:1;stroke:none"
     id="flowRoot4499-5-6-2-2-7" />
  <g
     aria-label="L"
     transform="matrix(0.4684423,0,0,0.56436862,404.29278,-194.01262)"
     style="font-style:normal;font-weight:normal;font-size:40px;line-height:1.25;font-family:sans-serif;letter-spacing:0px;word-spacing:0px;fill:#000000;fill-opacity:1;stroke:none"
     id="flowRoot4499-5-6-2-2-7-4" />
  <g
     aria-label="P"
     transform="matrix(0.4684423,0,0,0.56436863,425.51199,-194.17795)"
     style="font-style:normal;font-weight:normal;font-size:40px;line-height:1.25;font-family:sans-serif;letter-spacing:0px;word-spacing:0px;fill:#000000;fill-opacity:1;stroke:none"
     id="flowRoot4499-5-6-2-2-7-4-1" />
  <g
     aria-label="I"
     transform="matrix(0.4684423,0,0,0.56436863,447.38258,-194.31312)"
     style="font-style:normal;font-weight:normal;font-size:40px;line-height:1.25;font-family:sans-serif;letter-spacing:0px;word-spacing:0px;fill:#000000;fill-opacity:1;stroke:none"
     id="flowRoot4499-5-6-2-2-7-4-1-2" />
  <g
     aria-label="N"
     transform="matrix(0.46556227,0,0,0.56436863,458.29193,-194.17949)"
     style="font-style:normal;font-weight:normal;font-size:40px;line-height:1.25;font-family:sans-serif;letter-spacing:0px;word-spacing:0px;fill:#000000;fill-opacity:1;stroke:none"
     id="flowRoot4499-5-6-2-2-7-4-1-4" />
  <g
     aria-label="A"
     transform="matrix(0.45636676,0,0,0.55322157,483.37587,-187.47447)"
     style="font-style:normal;font-weight:normal;font-size:40px;line-height:1.25;font-family:sans-serif;letter-spacing:0px;word-spacing:0px;fill:#000000;fill-opacity:1;stroke:none"
     id="flowRoot4499-5-6-2-2-7-4-1-4-0">
    <path
       inkscape:connector-curvature="0"
       d="m -978.21474,342.48566 -34.72266,76.23319 -34.7227,-76.23319 7.6273,-1.66828 27.0954,60.49332 27.67642,-60.856 z"
       style="font-style:normal;font-variant:normal;font-weight:normal;font-stretch:normal;font-size:74.66666412px;line-height:1.25;font-family:Kabel;-inkscape-font-specification:Kabel;letter-spacing:0px;word-spacing:0px;display:inline;fill:#ffffff;fill-opacity:1;stroke:none;stroke-width:1.26088846"
       id="path4833" />
    <path
       inkscape:connector-curvature="0"
       d="m -937.66706,412.11779 -1.40546,5.63629 h -33.20406 v -58.74519 h 31.56436 l 1.40546,5.63628 h -26.87948 v 20.62764 h 22.78022 v 5.63628 h -22.78022 v 21.2087 z"
       style="font-style:normal;font-variant:normal;font-weight:normal;font-stretch:normal;font-size:74.66666412px;line-height:1.25;font-family:Kabel;-inkscape-font-specification:Kabel;letter-spacing:0px;word-spacing:0px;display:inline;fill:#ffffff;fill-opacity:1;stroke:none;stroke-width:1.01327622"
       id="path4830" />
    <path
       inkscape:connector-curvature="0"
       d="m -887.77112,415.76072 -5.62254,2.82472 -23.46545,-28.76614 v 27.4979 l -5.79465,0.86471 V 359.0355 h 12.10565 q 8.77804,0 13.76947,5.01534 4.8193,4.8424 4.8193,12.9707 0,5.07299 -2.58177,8.99302 -2.29491,3.45886 -6.42575,5.64947 -1.8933,1.03766 -3.95872,1.32589 -0.74585,0.1153 -1.8933,0.1153 z m -10.26973,-39.4886 q 0,-5.70711 -3.67186,-8.87772 -3.21287,-2.76709 -8.08956,-2.76709 h -7.05684 V 388.724 h 5.50779 q 4.64718,0 8.03218,-2.07531 5.27829,-3.22827 5.27829,-10.37657 z"
       style="font-style:normal;font-variant:normal;font-weight:normal;font-stretch:normal;font-size:74.66666412px;line-height:1.25;font-family:Kabel;-inkscape-font-specification:Kabel;letter-spacing:0px;word-spacing:0px;display:inline;fill:#ffffff;fill-opacity:1;stroke:none;stroke-width:0.99897963"
       id="path4827" />
    <path
       inkscape:connector-curvature="0"
       d="m -840.15936,399.67806 q 0,8.83212 -4.85235,13.65491 -4.624,4.59038 -12.55902,4.59038 h -15.92711 v -58.74519 h 12.44485 q 7.19288,0 9.76177,0.63917 2.62598,0.63916 5.36613,3.54446 1.94093,1.97561 3.19684,4.99712 1.2559,3.02152 1.2559,6.21735 0,2.26613 -0.74212,4.47416 -1.19882,3.66068 -4.11022,6.44977 -0.97047,0.92969 -2.68307,2.09182 2.9685,1.51075 4.39566,2.78909 4.45274,3.9512 4.45274,9.29696 z m -9.76179,-18.01288 q 2.45472,-3.19583 2.45472,-6.97272 0,-3.77688 -2.56888,-6.74029 -1.59843,-1.8594 -3.71062,-2.49857 -2.05512,-0.63916 -5.02361,-0.63916 h -8.96256 v 20.56953 h 5.82281 q 4.28148,0 6.05115,-0.34863 3.93897,-0.75538 5.93699,-3.37016 z m 3.65353,19.05878 q 0,-4.41605 -3.311,-7.20514 -3.25393,-2.8472 -8.16336,-2.8472 h -9.99012 v 21.61544 h 9.76177 q 5.08069,0 8.22045,-2.78909 3.48226,-3.07961 3.48226,-8.77401 z"
       style="font-style:normal;font-variant:normal;font-weight:normal;font-stretch:normal;font-size:74.66666412px;line-height:1.25;font-family:Kabel;-inkscape-font-specification:Kabel;letter-spacing:0px;word-spacing:0px;display:inline;fill:#ffffff;fill-opacity:1;stroke:none;stroke-width:1.00043809"
       id="path4824" />
    <path
       inkscape:connector-curvature="0"
       style="font-style:normal;font-variant:normal;font-weight:normal;font-stretch:normal;font-size:74.66666412px;line-height:1.25;font-family:Kabel;-inkscape-font-specification:Kabel;letter-spacing:0px;word-spacing:0px;display:inline;fill:#ffffff;fill-opacity:1;stroke:none;stroke-width:1.00043809"
       d="m -802.19276,355.8285 -29.3423,60.13992 5.70861,1.39453 11.53159,-23.82339 h 23.57706 l 2.03458,4.28707 3.27999,-6.55239 z m -0.22866,12.55081 9.41929,19.87236 h -18.83857 z m 17.64978,24.2272 -3.28,6.55056 8.80768,18.55475 5.5377,-1.7434 z"
       id="path4821" />
    <path
       inkscape:connector-curvature="0"
       d="m -722.92558,415.61716 -7.01655,2.15672 -14.53943,-29.90655 h -29.87456 l -14.61176,29.4752 -7.23356,-1.72537 37.18045,-74.40695 z m -24.44939,-34.2919 -11.93537,-24.58664 -11.93535,24.58664 z"
       style="font-style:normal;font-variant:normal;font-weight:normal;font-stretch:normal;font-size:74.66666412px;line-height:1.25;font-family:Kabel;-inkscape-font-specification:Kabel;letter-spacing:0px;word-spacing:0px;display:inline;fill:#ffffff;fill-opacity:1;stroke:none;stroke-width:1.25263774"
       id="path4818" />
    <path
       inkscape:connector-curvature="0"
       d="m -680.94143,410.6867 -1.73774,5.58417 h -29.07829 v -58.202 l 6.08211,-1.03624 v 53.65407 z"
       style="font-style:normal;font-variant:normal;font-weight:normal;font-stretch:normal;font-size:74.66666412px;line-height:1.25;font-family:Kabel;-inkscape-font-specification:Kabel;letter-spacing:0px;word-spacing:0px;display:inline;fill:#ffffff;fill-opacity:1;stroke:none;stroke-width:1.00308836"
       id="path4815" />
    <path
       inkscape:connector-curvature="0"
       d="m -635.18901,377.40688 q 0,8.46261 -6.02419,14.10434 -6.02419,5.64174 -14.655,5.64174 h -5.73456 v 18.82498 l -6.25589,0.86353 v -59.06553 h 10.94781 q 9.96307,0 15.81348,5.23876 5.90835,5.23875 5.90835,14.39218 z m -6.25589,-1.26651 q 0,-5.92958 -4.86569,-9.49884 -4.51815,-3.28142 -10.94781,-3.28142 h -4.28643 v 27.97841 h 4.80776 q 6.42966,0 10.83195,-4.20252 4.46022,-4.26009 4.46022,-10.99563 z"
       style="font-style:normal;font-variant:normal;font-weight:normal;font-stretch:normal;font-size:74.66666412px;line-height:1.25;font-family:Kabel;-inkscape-font-specification:Kabel;letter-spacing:0px;word-spacing:0px;display:inline;fill:#ffffff;fill-opacity:1;stroke:none;stroke-width:1.00308836"
       id="path4812" />
    <path
       inkscape:connector-curvature="0"
       d="m -612.83139,415.73844 -6.19795,0.86353 v -59.06553 l 6.19795,-0.97867 z"
       style="font-style:normal;font-variant:normal;font-weight:normal;font-stretch:normal;font-size:74.66666412px;line-height:1.25;font-family:Kabel;-inkscape-font-specification:Kabel;letter-spacing:0px;word-spacing:0px;display:inline;fill:#ffffff;fill-opacity:1;stroke:none;stroke-width:1.00308836"
       id="path4809" />
    <path
       inkscape:connector-curvature="0"
       d="m -548.9463,418.04769 -40.47083,-46.68826 v 44.61578 l -5.92958,1.38165 v -61.19558 l 40.81624,46.74583 v -45.1339 l 5.58417,-1.03624 z"
       style="font-style:normal;font-variant:normal;font-weight:normal;font-stretch:normal;font-size:74.66666412px;line-height:1.25;font-family:Kabel;-inkscape-font-specification:Kabel;letter-spacing:0px;word-spacing:0px;display:inline;fill:#ffffff;fill-opacity:1;stroke:none"
       id="path4806" />
    <path
       inkscape:connector-curvature="0"
       d="m -479.27137,415.70314 -5.58417,1.72706 -11.57132,-23.94859 h -23.77589 l -11.62888,23.60318 -5.75688,-1.38165 29.59034,-59.58365 z m -19.45823,-27.46029 -9.49885,-19.68851 -9.49884,19.68851 z"
       style="font-style:normal;font-variant:normal;font-weight:normal;font-stretch:normal;font-size:74.66666412px;font-family:Kabel;-inkscape-font-specification:Kabel;fill:#ffffff;fill-opacity:1"
       id="path4803" />
  </g>
  <flowRoot
     xml:space="preserve"
     id="flowRoot5006"
     style="font-style:normal;font-variant:normal;font-weight:normal;font-stretch:normal;font-size:40px;line-height:1.25;font-family:Kabel;-inkscape-font-specification:Kabel;letter-spacing:0px;word-spacing:0px;display:inline;fill:#000000;fill-opacity:1;stroke:none"
     transform="matrix(0.26458333,0,0,0.26458333,-6.804786,-35.796266)"><flowRegion
       id="flowRegion5008"
       style="font-style:normal;font-variant:normal;font-weight:normal;font-stretch:normal;font-family:Kabel;-inkscape-font-specification:Kabel" /><flowPara
       id="flowPara5012" /></flowRoot>  <g
     aria-label="Der alpine Kulturraum im Spiegel seiner Mehrsprachigkeit."
     transform="matrix(0.2491452,0,0,0.28035854,43.654574,57.450717)"
     style="font-style:normal;font-variant:normal;font-weight:normal;font-stretch:normal;font-size:39.99940872px;line-height:1.25;font-family:Kabel;-inkscape-font-specification:'Kabel, Normal';font-variant-ligatures:normal;font-variant-caps:normal;font-variant-numeric:normal;font-feature-settings:normal;text-align:start;letter-spacing:0px;word-spacing:0px;writing-mode:lr-tb;text-anchor:start;display:inline;fill:#000000;fill-opacity:1;stroke:none"
     id="va_slogan"
     inkscape:label="#flowRoot5014">
    <path
       inkscape:connector-curvature="0"
       d="m -133.41486,-7.1266045 q 0,7.09318737 -4.62599,11.7191791 -4.59515,4.5951518 -11.37994,4.5951518 h -7.15486 V -21.991458 h 8.1109 q 6.50723,0 10.85566,4.502632 4.19423,4.317592 4.19423,10.3622215 z m -3.45407,-0.03084 q 0,-4.8110315 -3.23819,-8.3267855 -3.2382,-3.515753 -7.95671,-3.515753 h -5.30447 V 6.1962518 h 5.18111 q 4.90355,0 8.20343,-4.1325527 3.11483,-3.916673 3.11483,-9.2211436 z"
       style="font-style:normal;font-variant:normal;font-weight:normal;font-stretch:normal;font-size:39.99940872px;font-family:Kabel;-inkscape-font-specification:'Kabel, Normal';font-variant-ligatures:normal;font-variant-caps:normal;font-variant-numeric:normal;font-feature-settings:normal;text-align:start;writing-mode:lr-tb;text-anchor:start;fill:#ffffff;fill-opacity:1"
       id="path4535" />
    <path
       inkscape:connector-curvature="0"
       d="m -109.4536,-8.2676825 -17.27037,10.6089411 q 0.33924,0.6476389 0.67848,1.2952777 0.98687,1.4803174 2.46719,2.4055157 2.06628,1.2952777 4.81103,1.2952777 2.7756,0 6.10631,-2.0971162 1.11024,-0.6784788 2.7756,-2.0971163 v 3.7316334 q -1.48032,1.110238 -2.49804,1.6345171 -3.14567,1.6653573 -6.16799,1.6653573 -5.02691,0 -8.51182,-3.3307144 -3.60828,-3.4540738 -3.60828,-8.6660245 0,-4.4717921 2.7756,-7.8333461 2.92979,-3.515754 7.52495,-3.978353 0.43175,-0.06168 0.86351,-0.06168 0.4626,0 0.70932,0 3.084,0 5.48951,1.387798 1.72704,0.986878 2.96064,2.6213951 0.43176,0.7093187 0.89436,1.4186374 z m -4.07088,-0.7093187 q -0.89436,-0.6784788 -1.54199,-1.0177182 -2.0046,-1.0485586 -3.97836,-1.0485586 -1.20275,0 -2.37467,0.33924 -1.17192,0.339239 -2.43636,1.1719178 -2.25131,1.5111573 -3.20735,4.0400328 -0.64764,1.7270369 -0.64764,3.7933132 0,0.6167989 0,0.89435845 0.0308,0.24671956 0.0925,0.46259917 z"
       style="font-style:normal;font-variant:normal;font-weight:normal;font-stretch:normal;font-size:39.99940872px;font-family:Kabel;-inkscape-font-specification:'Kabel, Normal';font-variant-ligatures:normal;font-variant-caps:normal;font-variant-numeric:normal;font-feature-settings:normal;text-align:start;writing-mode:lr-tb;text-anchor:start;fill:#ffffff;fill-opacity:1"
       id="path4537" />
    <path
       inkscape:connector-curvature="0"
       d="m -92.149564,-13.541313 -1.356957,3.114834 q -0.12336,-0.03084 -0.21588,-0.03084 -0.555119,-0.123359 -0.986878,-0.123359 -0.616799,0 -1.233598,0.154199 -0.616799,0.12336 -1.356957,0.5242795 -1.603678,0.8635184 -2.806436,2.9606347 -1.35696,2.3746758 -1.35696,5.057751 V 9.1877264 l -2.96063,0.585959 V -12.646955 l 2.74475,-0.647638 v 4.9652307 q 0.4626,-1.3877976 1.72704,-2.7139157 1.387798,-1.449477 3.238194,-2.127956 0.616799,-0.215879 1.727037,-0.308399 1.110238,-0.09252 1.850397,-0.09252 0.894359,0.03084 0.986878,0.03084 z"
       style="font-style:normal;font-variant:normal;font-weight:normal;font-stretch:normal;font-size:39.99940872px;font-family:Kabel;-inkscape-font-specification:'Kabel, Normal';font-variant-ligatures:normal;font-variant-caps:normal;font-variant-numeric:normal;font-feature-settings:normal;text-align:start;writing-mode:lr-tb;text-anchor:start;fill:#ffffff;fill-opacity:1"
       id="path4539" />
    <path
       inkscape:connector-curvature="0"
       d="m -60.365328,9.1877264 -2.683075,0.4317593 V 6.9364105 q -0.956038,1.0485581 -1.665357,1.5419972 -2.158796,1.5419973 -4.656832,1.5419973 -3.639113,0 -5.952109,-2.1896361 -2.436356,-2.3129959 -2.436356,-6.2913488 0,-3.2381943 2.343836,-5.5203502 2.374676,-2.3129959 5.70539,-2.3129959 2.683075,0 4.811031,1.2644378 0.709319,0.4009193 1.603677,1.2644377 v -1.665357 q 0,-0.555119 0,-0.8635185 0,-2.1279562 -0.709318,-3.1148344 -1.141078,-1.6036776 -4.317593,-1.6036776 -2.189636,0 -4.965231,0.894359 -2.189636,0.7093186 -2.467195,0.9868781 l 1.171917,-3.5157541 q 0.1542,-0.06168 1.480318,-0.339239 3.269034,-0.678479 5.24279,-0.678479 7.494107,0 7.494107,7.0623476 z m -2.683075,-7.7408262 q 0,-2.31299584 -1.788717,-3.7316333 -1.788717,-1.4494774 -4.410112,-1.4494774 -2.467196,0 -4.070873,1.5728372 -1.603677,1.57283716 -1.603677,4.1633925 0,2.5905554 1.850397,4.0091929 1.665357,1.2644377 4.225072,1.2644377 2.467196,0 4.132553,-1.6036771 1.665357,-1.6036771 1.665357,-4.2250725 z"
       style="font-style:normal;font-variant:normal;font-weight:normal;font-stretch:normal;font-size:39.99940872px;font-family:Kabel;-inkscape-font-specification:'Kabel, Normal';font-variant-ligatures:normal;font-variant-caps:normal;font-variant-numeric:normal;font-feature-settings:normal;text-align:start;writing-mode:lr-tb;text-anchor:start;fill:#ffffff;fill-opacity:1"
       id="path4541" />
    <path
       inkscape:connector-curvature="0"
       d="m -51.315907,9.1877264 -2.898955,0.6476389 V -21.991458 l 2.868115,-0.585959 z"
       style="font-style:normal;font-variant:normal;font-weight:normal;font-stretch:normal;font-size:39.99940872px;font-family:Kabel;-inkscape-font-specification:'Kabel, Normal';font-variant-ligatures:normal;font-variant-caps:normal;font-variant-numeric:normal;font-feature-settings:normal;text-align:start;writing-mode:lr-tb;text-anchor:start;fill:#ffffff;fill-opacity:1"
       id="path4543" />
    <path
       inkscape:connector-curvature="0"
       d="m -22.148008,-1.6987742 q 0,4.9343912 -3.454074,8.3576251 -3.454074,3.4232341 -8.542665,3.4232341 -2.559715,0 -4.841871,-1.1410781 -1.541998,-0.7709986 -3.022315,-2.1896361 -0.524279,-0.585959 -1.048558,-1.1719179 V 17.298632 l -3.114835,0.925198 v -30.870785 l 2.929795,-0.585959 v 4.4717924 q 0.709319,-1.0485581 0.986878,-1.3877974 1.295278,-1.541997 3.022315,-2.498036 2.405516,-1.356957 5.181111,-1.356957 4.934391,0 8.419305,3.639113 3.484914,3.6391138 3.484914,8.6660248 z m -3.053155,0.06168 q 0,-3.885833 -2.312996,-6.6614281 -2.405516,-2.8681147 -6.013789,-2.8681147 -3.639114,0 -6.599748,2.3746756 -3.176515,2.5288755 -3.176515,6.137149 0,4.1017127 2.559716,7.0006676 2.590555,2.8681149 6.445548,2.8681149 3.793314,0 6.383869,-2.4055158 2.713915,-2.4980355 2.713915,-6.4455485 z"
       style="font-style:normal;font-variant:normal;font-weight:normal;font-stretch:normal;font-size:39.99940872px;font-family:Kabel;-inkscape-font-specification:'Kabel, Normal';font-variant-ligatures:normal;font-variant-caps:normal;font-variant-numeric:normal;font-feature-settings:normal;text-align:start;writing-mode:lr-tb;text-anchor:start;fill:#ffffff;fill-opacity:1"
       id="path4545" />
    <path
       inkscape:connector-curvature="0"
       d="m -12.870727,-20.110221 -2.066277,2.652235 -2.436355,-2.590555 2.251316,-2.590556 z m -0.678479,29.3287874 -2.960635,0.7709986 v -22.66736 l 2.960635,-0.555119 z"
       style="font-style:normal;font-variant:normal;font-weight:normal;font-stretch:normal;font-size:39.99940872px;font-family:Kabel;-inkscape-font-specification:'Kabel, Normal';font-variant-ligatures:normal;font-variant-caps:normal;font-variant-numeric:normal;font-feature-settings:normal;text-align:start;writing-mode:lr-tb;text-anchor:start;fill:#ffffff;fill-opacity:1"
       id="path4547" />
    <path
       inkscape:connector-curvature="0"
       d="M 9.446618,9.1877264 6.4859832,9.7120055 V -5.8313268 q 0,-1.9120766 -1.3261176,-3.4540738 -1.6036771,-1.8812364 -4.37927219,-1.8812364 -3.54659371,0 -5.24279061,3.1148342 -1.1102381,2.0354363 -1.1102381,4.2250724 V 9.1877264 L -8.53307,9.7120055 V -12.646955 l 2.806435,-0.493439 v 3.2073545 q 1.141078,-1.6961965 2.6522353,-2.6522355 1.9120766,-1.202758 4.2250725,-1.202758 3.2998741,0 5.4586702,1.696197 2.837275,2.2204764 2.837275,6.938988 z"
       style="font-style:normal;font-variant:normal;font-weight:normal;font-stretch:normal;font-size:39.99940872px;font-family:Kabel;-inkscape-font-specification:'Kabel, Normal';font-variant-ligatures:normal;font-variant-caps:normal;font-variant-numeric:normal;font-feature-settings:normal;text-align:start;writing-mode:lr-tb;text-anchor:start;fill:#ffffff;fill-opacity:1"
       id="path4549" />
    <path
       inkscape:connector-curvature="0"
       d="M 34.450512,-8.2676825 17.180142,2.3412586 q 0.33924,0.6476389 0.678479,1.2952777 0.986878,1.4803174 2.467196,2.4055157 2.066276,1.2952777 4.811031,1.2952777 2.775595,0 6.106309,-2.0971162 1.110238,-0.6784788 2.775595,-2.0971163 v 3.7316334 q -1.480317,1.110238 -2.498035,1.6345171 -3.145675,1.6653573 -6.167989,1.6653573 -5.026911,0 -8.511825,-3.3307144 -3.608274,-3.4540738 -3.608274,-8.6660245 0,-4.4717921 2.775595,-7.8333461 2.929795,-3.515754 7.524947,-3.978353 0.431759,-0.06168 0.863518,-0.06168 0.4626,0 0.709319,0 3.083995,0 5.48951,1.387798 1.727037,0.986878 2.960635,2.6213951 0.431759,0.7093187 0.894359,1.4186374 z M 30.379639,-8.9770012 Q 29.48528,-9.65548 28.837642,-9.9947194 q -2.004597,-1.0485586 -3.978353,-1.0485586 -1.202758,0 -2.374676,0.33924 -1.171918,0.339239 -2.436356,1.1719178 -2.251316,1.5111573 -3.207354,4.0400328 -0.647639,1.7270369 -0.647639,3.7933132 0,0.6167989 0,0.89435845 0.03084,0.24671956 0.09252,0.46259917 z"
       style="font-style:normal;font-variant:normal;font-weight:normal;font-stretch:normal;font-size:39.99940872px;font-family:Kabel;-inkscape-font-specification:'Kabel, Normal';font-variant-ligatures:normal;font-variant-caps:normal;font-variant-numeric:normal;font-feature-settings:normal;text-align:start;writing-mode:lr-tb;text-anchor:start;fill:#ffffff;fill-opacity:1"
       id="path4551" />
    <path
       inkscape:connector-curvature="0"
       d="M 72.443401,8.5092477 69.421087,9.8353653 55.358072,-6.9724048 V 9.1877264 L 52.058198,9.5886457 V -21.991458 l 3.238194,-0.616799 v 14.9573734 l 12.736897,-14.8956934 3.207355,1.233598 -12.089259,13.8471351 z"
       style="font-style:normal;font-variant:normal;font-weight:normal;font-stretch:normal;font-size:39.99940872px;font-family:Kabel;-inkscape-font-specification:'Kabel, Normal';font-variant-ligatures:normal;font-variant-caps:normal;font-variant-numeric:normal;font-feature-settings:normal;text-align:start;writing-mode:lr-tb;text-anchor:start;fill:#ffffff;fill-opacity:1"
       id="path4553" />
    <path
       inkscape:connector-curvature="0"
       d="M 92.792412,9.1877264 90.016817,9.7120055 V 6.4429713 q -0.863518,1.2952777 -1.572837,1.9429166 -2.097116,1.9120761 -4.934391,1.9120761 -0.339239,0.03084 -0.493439,0.03084 -2.868115,0 -5.088591,-1.7578765 -2.929795,-2.3129958 -2.929795,-6.692268 V -12.646955 l 2.991475,-0.524279 V 2.5262983 q 0,1.9120766 1.295278,3.3307141 1.572837,1.7270369 4.410112,1.7270369 2.744755,0 4.348432,-2.0354364 1.819557,-2.3129959 1.819557,-5.70538981 V -12.646955 l 2.929794,-0.555119 z"
       style="font-style:normal;font-variant:normal;font-weight:normal;font-stretch:normal;font-size:39.99940872px;font-family:Kabel;-inkscape-font-specification:'Kabel, Normal';font-variant-ligatures:normal;font-variant-caps:normal;font-variant-numeric:normal;font-feature-settings:normal;text-align:start;writing-mode:lr-tb;text-anchor:start;fill:#ffffff;fill-opacity:1"
       id="path4555" />
    <path
       inkscape:connector-curvature="0"
       d="M 101.57246,9.1877264 98.673505,9.8353653 V -21.991458 l 2.868115,-0.585959 z"
       style="font-style:normal;font-variant:normal;font-weight:normal;font-stretch:normal;font-size:39.99940872px;font-family:Kabel;-inkscape-font-specification:'Kabel, Normal';font-variant-ligatures:normal;font-variant-caps:normal;font-variant-numeric:normal;font-feature-settings:normal;text-align:start;writing-mode:lr-tb;text-anchor:start;fill:#ffffff;fill-opacity:1"
       id="path4557" />
    <path
       inkscape:connector-curvature="0"
       d="m 119.63798,9.6194857 q -0.4626,0.1233598 -0.80184,0.1850396 -1.14108,0.2158797 -2.06628,0.2158797 -1.29527,0 -2.40551,-0.2775595 -1.11024,-0.2775596 -2.1588,-1.0793981 -1.57284,-1.141078 -2.0046,-3.5465937 -0.24671,-1.3261176 -0.24671,-4.74935154 V -10.148919 h -3.2382 l 0.70932,-2.498036 h 2.52888 v -5.42783 l 2.86811,-1.973756 v 7.401586 h 6.75395 v 2.498036 h -6.78479 V 0.7375815 q 0,2.3129959 0.1542,3.6391135 0.18504,1.2952777 0.95604,1.9429166 0.6168,0.524279 1.44948,0.7709986 0.83267,0.2158796 1.63451,0.2158796 0.95604,0 1.88124,-0.2158796 0.3084,-0.06168 0.771,-0.2467196 z"
       style="font-style:normal;font-variant:normal;font-weight:normal;font-stretch:normal;font-size:39.99940872px;font-family:Kabel;-inkscape-font-specification:'Kabel, Normal';font-variant-ligatures:normal;font-variant-caps:normal;font-variant-numeric:normal;font-feature-settings:normal;text-align:start;writing-mode:lr-tb;text-anchor:start;fill:#ffffff;fill-opacity:1"
       id="path4559" />
    <path
       inkscape:connector-curvature="0"
       d="m 141.15107,9.1877264 -2.77559,0.5242791 V 6.4429713 q -0.86352,1.2952777 -1.57284,1.9429166 -2.09712,1.9120761 -4.93439,1.9120761 -0.33924,0.03084 -0.49344,0.03084 -2.86812,0 -5.08859,-1.7578765 -2.9298,-2.3129958 -2.9298,-6.692268 V -12.646955 l 2.99148,-0.524279 V 2.5262983 q 0,1.9120766 1.29527,3.3307141 1.57284,1.7270369 4.41012,1.7270369 2.74475,0 4.34843,-2.0354364 1.81956,-2.3129959 1.81956,-5.70538981 V -12.646955 l 2.92979,-0.555119 z"
       style="font-style:normal;font-variant:normal;font-weight:normal;font-stretch:normal;font-size:39.99940872px;font-family:Kabel;-inkscape-font-specification:'Kabel, Normal';font-variant-ligatures:normal;font-variant-caps:normal;font-variant-numeric:normal;font-feature-settings:normal;text-align:start;writing-mode:lr-tb;text-anchor:start;fill:#ffffff;fill-opacity:1"
       id="path4561" />
    <path
       inkscape:connector-curvature="0"
       d="m 158.62797,-13.541313 -1.35696,3.114834 q -0.12336,-0.03084 -0.21588,-0.03084 -0.55512,-0.123359 -0.98688,-0.123359 -0.6168,0 -1.2336,0.154199 -0.6168,0.12336 -1.35695,0.5242795 -1.60368,0.8635184 -2.80644,2.9606347 -1.35696,2.3746758 -1.35696,5.057751 V 9.1877264 l -2.96063,0.585959 V -12.646955 l 2.74475,-0.647638 v 4.9652307 q 0.4626,-1.3877976 1.72704,-2.7139157 1.3878,-1.449477 3.2382,-2.127956 0.61679,-0.215879 1.72703,-0.308399 1.11024,-0.09252 1.8504,-0.09252 0.89436,0.03084 0.98688,0.03084 z"
       style="font-style:normal;font-variant:normal;font-weight:normal;font-stretch:normal;font-size:39.99940872px;font-family:Kabel;-inkscape-font-specification:'Kabel, Normal';font-variant-ligatures:normal;font-variant-caps:normal;font-variant-numeric:normal;font-feature-settings:normal;text-align:start;writing-mode:lr-tb;text-anchor:start;fill:#ffffff;fill-opacity:1"
       id="path4563" />
    <path
       inkscape:connector-curvature="0"
       d="m 174.56525,-13.541313 -1.35695,3.114834 q -0.12336,-0.03084 -0.21588,-0.03084 -0.55512,-0.123359 -0.98688,-0.123359 -0.6168,0 -1.2336,0.154199 -0.6168,0.12336 -1.35696,0.5242795 -1.60367,0.8635184 -2.80643,2.9606347 -1.35696,2.3746758 -1.35696,5.057751 V 9.1877264 l -2.96063,0.585959 V -12.646955 l 2.74475,-0.647638 v 4.9652307 q 0.4626,-1.3877976 1.72704,-2.7139157 1.38779,-1.449477 3.23819,-2.127956 0.6168,-0.215879 1.72704,-0.308399 1.11024,-0.09252 1.8504,-0.09252 0.89435,0.03084 0.98687,0.03084 z"
       style="font-style:normal;font-variant:normal;font-weight:normal;font-stretch:normal;font-size:39.99940872px;font-family:Kabel;-inkscape-font-specification:'Kabel, Normal';font-variant-ligatures:normal;font-variant-caps:normal;font-variant-numeric:normal;font-feature-settings:normal;text-align:start;writing-mode:lr-tb;text-anchor:start;fill:#ffffff;fill-opacity:1"
       id="path4565" />
    <path
       inkscape:connector-curvature="0"
       d="m 193.77154,9.1877264 -2.68307,0.4317593 V 6.9364105 q -0.95604,1.0485581 -1.66536,1.5419972 -2.15879,1.5419973 -4.65683,1.5419973 -3.63911,0 -5.95211,-2.1896361 -2.43636,-2.3129959 -2.43636,-6.2913488 0,-3.2381943 2.34384,-5.5203502 2.37468,-2.3129959 5.70539,-2.3129959 2.68308,0 4.81103,1.2644378 0.70932,0.4009193 1.60368,1.2644377 v -1.665357 q 0,-0.555119 0,-0.8635185 0,-2.1279562 -0.70932,-3.1148344 -1.14108,-1.6036776 -4.31759,-1.6036776 -2.18964,0 -4.96523,0.894359 -2.18964,0.7093186 -2.4672,0.9868781 l 1.17192,-3.5157541 q 0.1542,-0.06168 1.48032,-0.339239 3.26903,-0.678479 5.24279,-0.678479 7.4941,0 7.4941,7.0623476 z m -2.68307,-7.7408262 q 0,-2.31299584 -1.78872,-3.7316333 -1.78872,-1.4494774 -4.41011,-1.4494774 -2.4672,0 -4.07087,1.5728372 -1.60368,1.57283716 -1.60368,4.1633925 0,2.5905554 1.8504,4.0091929 1.66535,1.2644377 4.22507,1.2644377 2.46719,0 4.13255,-1.6036771 1.66536,-1.6036771 1.66536,-4.2250725 z"
       style="font-style:normal;font-variant:normal;font-weight:normal;font-stretch:normal;font-size:39.99940872px;font-family:Kabel;-inkscape-font-specification:'Kabel, Normal';font-variant-ligatures:normal;font-variant-caps:normal;font-variant-numeric:normal;font-feature-settings:normal;text-align:start;writing-mode:lr-tb;text-anchor:start;fill:#ffffff;fill-opacity:1"
       id="path4567" />
    <path
       inkscape:connector-curvature="0"
       d="m 215.68122,9.1877264 -2.77559,0.5242791 V 6.4429713 q -0.86352,1.2952777 -1.57284,1.9429166 -2.09712,1.9120761 -4.93439,1.9120761 -0.33924,0.03084 -0.49344,0.03084 -2.86812,0 -5.08859,-1.7578765 -2.9298,-2.3129958 -2.9298,-6.692268 V -12.646955 l 2.99148,-0.524279 V 2.5262983 q 0,1.9120766 1.29528,3.3307141 1.57283,1.7270369 4.41011,1.7270369 2.74475,0 4.34843,-2.0354364 1.81956,-2.3129959 1.81956,-5.70538981 V -12.646955 l 2.92979,-0.555119 z"
       style="font-style:normal;font-variant:normal;font-weight:normal;font-stretch:normal;font-size:39.99940872px;font-family:Kabel;-inkscape-font-specification:'Kabel, Normal';font-variant-ligatures:normal;font-variant-caps:normal;font-variant-numeric:normal;font-feature-settings:normal;text-align:start;writing-mode:lr-tb;text-anchor:start;fill:#ffffff;fill-opacity:1"
       id="path4569" />
    <path
       inkscape:connector-curvature="0"
       d="m 249.53413,9.1877264 -2.96064,0.3700794 V -6.0780464 q 0,-2.0045964 -0.98687,-3.330714 -1.32612,-1.7578766 -4.07088,-1.7578766 -3.60827,0 -4.87271,2.7755948 -0.74016,1.6036771 -0.74016,4.9652311 V 9.1877264 l -2.99147,0.6476389 v -15.173253 q 0,-2.3746757 -0.64764,-3.6082735 -1.14108,-2.1279558 -4.25591,-2.1279558 -2.65224,0 -4.10172,2.004596 -1.41863,1.9737565 -1.41863,5.3661504 v 12.891097 l -2.96064,0.585959 V -12.646955 l 2.9298,-0.493439 v 3.2381945 q 0.67848,-1.3877975 1.2336,-1.9737565 1.75787,-1.912077 4.47179,-1.912077 2.65223,0 4.56431,1.202758 1.542,0.956039 2.40551,2.7139154 1.0794,-1.9737564 2.9298,-2.9914744 1.8504,-1.017718 3.94751,-1.017718 3.084,0 5.15027,1.727036 2.37468,1.973757 2.37468,5.5511906 z"
       style="font-style:normal;font-variant:normal;font-weight:normal;font-stretch:normal;font-size:39.99940872px;font-family:Kabel;-inkscape-font-specification:'Kabel, Normal';font-variant-ligatures:normal;font-variant-caps:normal;font-variant-numeric:normal;font-feature-settings:normal;text-align:start;writing-mode:lr-tb;text-anchor:start;fill:#ffffff;fill-opacity:1"
       id="path4571" />
    <path
       inkscape:connector-curvature="0"
       d="m 271.10945,-20.110221 -2.06627,2.652235 -2.43636,-2.590555 2.25132,-2.590556 z m -0.67848,29.3287874 -2.96063,0.7709986 v -22.66736 l 2.96063,-0.555119 z"
       style="font-style:normal;font-variant:normal;font-weight:normal;font-stretch:normal;font-size:39.99940872px;font-family:Kabel;-inkscape-font-specification:'Kabel, Normal';font-variant-ligatures:normal;font-variant-caps:normal;font-variant-numeric:normal;font-feature-settings:normal;text-align:start;writing-mode:lr-tb;text-anchor:start;fill:#ffffff;fill-opacity:1"
       id="path4573" />
    <path
       inkscape:connector-curvature="0"
       d="m 305.39268,9.1877264 -2.96063,0.3700794 V -6.0780464 q 0,-2.0045964 -0.98688,-3.330714 -1.32612,-1.7578766 -4.07088,-1.7578766 -3.60827,0 -4.87271,2.7755948 -0.74016,1.6036771 -0.74016,4.9652311 V 9.1877264 l -2.99147,0.6476389 v -15.173253 q 0,-2.3746757 -0.64764,-3.6082735 -1.14108,-2.1279558 -4.25591,-2.1279558 -2.65224,0 -4.10171,2.004596 -1.41864,1.9737565 -1.41864,5.3661504 v 12.891097 l -2.96064,0.585959 V -12.646955 l 2.9298,-0.493439 v 3.2381945 q 0.67848,-1.3877975 1.2336,-1.9737565 1.75787,-1.912077 4.47179,-1.912077 2.65223,0 4.56431,1.202758 1.542,0.956039 2.40552,2.7139154 1.07939,-1.9737564 2.92979,-2.9914744 1.8504,-1.017718 3.94751,-1.017718 3.084,0 5.15027,1.727036 2.37468,1.973757 2.37468,5.5511906 z"
       style="font-style:normal;font-variant:normal;font-weight:normal;font-stretch:normal;font-size:39.99940872px;font-family:Kabel;-inkscape-font-specification:'Kabel, Normal';font-variant-ligatures:normal;font-variant-caps:normal;font-variant-numeric:normal;font-feature-settings:normal;text-align:start;writing-mode:lr-tb;text-anchor:start;fill:#ffffff;fill-opacity:1"
       id="path4575" />
    <path
       inkscape:connector-curvature="0"
       d="m 340.7843,1.0768209 q 0,3.7933132 -2.86812,6.4147086 -2.86811,2.6213955 -6.84646,2.6213955 -3.26904,0 -5.89043,-1.6653572 -2.6214,-1.696197 -3.7008,-3.8549932 l 2.49804,-2.2821559 q 0.6168,1.8503967 2.46719,3.2073543 2.0046,1.4803173 4.74935,1.4803173 2.59056,0 4.37928,-1.6036771 1.81955,-1.6345171 1.81955,-3.947513 0,-2.6213953 -1.35695,-4.0708727 -1.04856,-1.110238 -3.36156,-1.9120766 -2.09711,-0.6476388 -4.19423,-1.2952777 -2.86812,-0.9868782 -4.41011,-2.8681149 -1.75788,-2.1279563 -1.75788,-5.1811103 0,-3.978353 2.68308,-6.414709 2.71391,-2.467196 6.5689,-2.467196 2.68308,0 5.02692,1.233598 2.71391,1.418638 3.39239,2.806435 l -2.22048,2.312996 q -0.83268,-1.079398 -1.48031,-1.603677 -2.06628,-1.634517 -4.65684,-1.634517 -2.37467,0 -4.16339,1.480317 -1.75788,1.449478 -1.75788,3.731634 0,2.806435 1.57284,4.194232 1.44948,1.2644378 5.24279,2.1587962 3.82416,0.8635185 6.04463,3.2073543 2.22048,2.3438358 2.22048,5.9521094 z"
       style="font-style:normal;font-variant:normal;font-weight:normal;font-stretch:normal;font-size:39.99940872px;font-family:Kabel;-inkscape-font-specification:'Kabel, Normal';font-variant-ligatures:normal;font-variant-caps:normal;font-variant-numeric:normal;font-feature-settings:normal;text-align:start;writing-mode:lr-tb;text-anchor:start;fill:#ffffff;fill-opacity:1"
       id="path4577" />
    <path
       inkscape:connector-curvature="0"
       d="m 368.62747,-1.6987742 q 0,4.9343912 -3.45407,8.3576251 -3.45407,3.4232341 -8.54266,3.4232341 -2.55972,0 -4.84188,-1.1410781 -1.54199,-0.7709986 -3.02231,-2.1896361 -0.52428,-0.585959 -1.04856,-1.1719179 V 17.298632 l -3.11483,0.925198 v -30.870785 l 2.92979,-0.585959 v 4.4717924 q 0.70932,-1.0485581 0.98688,-1.3877974 1.29528,-1.541997 3.02231,-2.498036 2.40552,-1.356957 5.18112,-1.356957 4.93439,0 8.4193,3.639113 3.48491,3.6391138 3.48491,8.6660248 z m -3.05315,0.06168 q 0,-3.885833 -2.313,-6.6614281 -2.40551,-2.8681147 -6.01379,-2.8681147 -3.63911,0 -6.59974,2.3746756 -3.17652,2.5288755 -3.17652,6.137149 0,4.1017127 2.55972,7.0006676 2.59055,2.8681149 6.44555,2.8681149 3.79331,0 6.38386,-2.4055158 2.71392,-2.4980355 2.71392,-6.4455485 z"
       style="font-style:normal;font-variant:normal;font-weight:normal;font-stretch:normal;font-size:39.99940872px;font-family:Kabel;-inkscape-font-specification:'Kabel, Normal';font-variant-ligatures:normal;font-variant-caps:normal;font-variant-numeric:normal;font-feature-settings:normal;text-align:start;writing-mode:lr-tb;text-anchor:start;fill:#ffffff;fill-opacity:1"
       id="path4579" />
    <path
       inkscape:connector-curvature="0"
       d="m 377.90477,-20.110221 -2.06628,2.652235 -2.43635,-2.590555 2.25131,-2.590556 z m -0.67848,29.3287874 -2.96063,0.7709986 v -22.66736 l 2.96063,-0.555119 z"
       style="font-style:normal;font-variant:normal;font-weight:normal;font-stretch:normal;font-size:39.99940872px;font-family:Kabel;-inkscape-font-specification:'Kabel, Normal';font-variant-ligatures:normal;font-variant-caps:normal;font-variant-numeric:normal;font-feature-settings:normal;text-align:start;writing-mode:lr-tb;text-anchor:start;fill:#ffffff;fill-opacity:1"
       id="path4581" />
    <path
       inkscape:connector-curvature="0"
       d="M 403.42942,-8.2676825 386.15905,2.3412586 q 0.33924,0.6476389 0.67848,1.2952777 0.98688,1.4803174 2.4672,2.4055157 2.06628,1.2952777 4.81103,1.2952777 2.7756,0 6.10631,-2.0971162 1.11024,-0.6784788 2.77559,-2.0971163 v 3.7316334 q -1.48031,1.110238 -2.49803,1.6345171 -3.14568,1.6653573 -6.16799,1.6653573 -5.02691,0 -8.51182,-3.3307144 -3.60828,-3.4540738 -3.60828,-8.6660245 0,-4.4717921 2.7756,-7.8333461 2.92979,-3.515754 7.52494,-3.978353 0.43176,-0.06168 0.86352,-0.06168 0.4626,0 0.70932,0 3.084,0 5.48951,1.387798 1.72704,0.986878 2.96064,2.6213951 0.43175,0.7093187 0.89435,1.4186374 z m -4.07087,-0.7093187 q -0.89436,-0.6784788 -1.542,-1.0177182 -2.00459,-1.0485586 -3.97835,-1.0485586 -1.20276,0 -2.37467,0.33924 -1.17192,0.339239 -2.43636,1.1719178 -2.25132,1.5111573 -3.20735,4.0400328 -0.64764,1.7270369 -0.64764,3.7933132 0,0.6167989 0,0.89435845 0.0308,0.24671956 0.0925,0.46259917 z"
       style="font-style:normal;font-variant:normal;font-weight:normal;font-stretch:normal;font-size:39.99940872px;font-family:Kabel;-inkscape-font-specification:'Kabel, Normal';font-variant-ligatures:normal;font-variant-caps:normal;font-variant-numeric:normal;font-feature-settings:normal;text-align:start;writing-mode:lr-tb;text-anchor:start;fill:#ffffff;fill-opacity:1"
       id="path4583" />
    <path
       inkscape:connector-curvature="0"
       d="m 427.39489,-14.682391 -0.89435,3.176514 -3.05316,0.1542 q 1.17192,0.770999 2.12796,2.5288755 0.95604,1.727037 0.95604,3.6391136 0,3.361554 -2.28216,5.48951017 -0.74016,0.70931873 -2.313,1.44947743 1.63452,0.8018386 2.49804,1.6345171 2.40552,2.251316 2.40552,5.61287 0,3.8858332 -2.6214,6.4763882 -2.59056,2.621396 -6.41471,2.621396 -3.45407,0 -6.22967,-1.480318 -2.00459,-1.079398 -3.42323,-2.744755 -0.52428,-0.770999 -1.04856,-1.511157 l 2.22048,-1.696197 q 0.55512,1.634517 2.89895,3.114834 2.37468,1.480318 5.39699,1.480318 2.65224,0 4.44095,-1.511158 1.94292,-1.634517 1.94292,-4.2559121 0,-2.837275 -2.1588,-4.6876717 -2.00459,-1.6961969 -4.62599,-1.6961969 -2.40551,0 -4.50263,0.8326785 -0.67848,0.2775595 -1.60368,0.8326785 l 1.32612,-3.2690342 q -0.83268,-0.4317592 -1.32612,-0.80183854 -2.89895,-2.25131596 -2.89895,-6.10630916 0,-3.8241531 2.71391,-6.1063094 2.43636,-2.066276 5.82875,-2.066276 0.771,0 1.97376,0.03084 1.20276,0.03084 1.72704,0.03084 0.9252,0 1.78871,-0.06168 0.86352,-0.06168 2.09712,-0.27756 1.26444,-0.215879 2.28216,-0.555119 0.37008,-0.123359 0.77099,-0.277559 z m -3.70079,9.0669438 q 0,-2.4055157 -1.97376,-3.8858331 -1.97375,-1.5111577 -4.47179,-1.5111577 -2.59055,0 -4.41011,1.6036776 -1.81956,1.6036771 -1.81956,4.0091928 0,2.6522353 1.8504,4.3175923 1.75788,1.57283724 4.31759,1.57283724 2.96064,0 4.71851,-1.72703694 1.78872,-1.7578768 1.78872,-4.3792722 z"
       style="font-style:normal;font-variant:normal;font-weight:normal;font-stretch:normal;font-size:39.99940872px;font-family:Kabel;-inkscape-font-specification:'Kabel, Normal';font-variant-ligatures:normal;font-variant-caps:normal;font-variant-numeric:normal;font-feature-settings:normal;text-align:start;writing-mode:lr-tb;text-anchor:start;fill:#ffffff;fill-opacity:1"
       id="path4585" />
    <path
       inkscape:connector-curvature="0"
       d="M 452.33494,-8.2676825 435.06457,2.3412586 q 0.33924,0.6476389 0.67848,1.2952777 0.98688,1.4803174 2.4672,2.4055157 2.06627,1.2952777 4.81103,1.2952777 2.77559,0 6.10631,-2.0971162 1.11024,-0.6784788 2.77559,-2.0971163 v 3.7316334 q -1.48032,1.110238 -2.49803,1.6345171 -3.14568,1.6653573 -6.16799,1.6653573 -5.02691,0 -8.51183,-3.3307144 -3.60827,-3.4540738 -3.60827,-8.6660245 0,-4.4717921 2.77559,-7.8333461 2.9298,-3.515754 7.52495,-3.978353 0.43176,-0.06168 0.86352,-0.06168 0.4626,0 0.70932,0 3.08399,0 5.48951,1.387798 1.72704,0.986878 2.96063,2.6213951 0.43176,0.7093187 0.89436,1.4186374 z m -4.07087,-0.7093187 q -0.89436,-0.6784788 -1.542,-1.0177182 -2.00459,-1.0485586 -3.97835,-1.0485586 -1.20276,0 -2.37468,0.33924 -1.17192,0.339239 -2.43635,1.1719178 -2.25132,1.5111573 -3.20736,4.0400328 -0.64764,1.7270369 -0.64764,3.7933132 0,0.6167989 0,0.89435845 0.0308,0.24671956 0.0925,0.46259917 z"
       style="font-style:normal;font-variant:normal;font-weight:normal;font-stretch:normal;font-size:39.99940872px;font-family:Kabel;-inkscape-font-specification:'Kabel, Normal';font-variant-ligatures:normal;font-variant-caps:normal;font-variant-numeric:normal;font-feature-settings:normal;text-align:start;writing-mode:lr-tb;text-anchor:start;fill:#ffffff;fill-opacity:1"
       id="path4587" />
    <path
       inkscape:connector-curvature="0"
       d="m 460.94212,9.1877264 -2.89896,0.6476389 V -21.991458 l 2.86812,-0.585959 z"
       style="font-style:normal;font-variant:normal;font-weight:normal;font-stretch:normal;font-size:39.99940872px;font-family:Kabel;-inkscape-font-specification:'Kabel, Normal';font-variant-ligatures:normal;font-variant-caps:normal;font-variant-numeric:normal;font-feature-settings:normal;text-align:start;writing-mode:lr-tb;text-anchor:start;fill:#ffffff;fill-opacity:1"
       id="path4589" />
    <path
       inkscape:connector-curvature="0"
       d="m 494.02197,3.6056964 q 0,2.8989548 -2.22048,4.7801915 -2.22048,1.8812371 -5.42783,1.8812371 -2.40552,0 -4.34843,-0.8943589 -1.32612,-0.6167989 -2.49804,-1.7270369 -0.43176,-0.4625992 -0.86352,-0.9560383 l 2.0046,-2.0662763 q 0.83268,0.9868782 1.44948,1.4803173 1.91207,1.4803174 4.19423,1.4803174 2.03544,0 3.45407,-1.2027579 1.41864,-1.2027578 1.41864,-2.8372749 0,-2.86811489 -3.45407,-3.82415319 -1.81956,-0.43175923 -3.63912,-0.89435841 -2.22047,-0.6784788 -3.45407,-2.0971163 -1.32612,-1.5419972 -1.32612,-3.7007934 0,-3.0839942 2.313,-5.0269112 2.15879,-1.788717 5.18111,-1.788717 2.71391,0 5.08859,1.418638 0.771,0.462599 1.8504,1.449477 l -1.75788,2.0045967 q -0.771,-0.7093187 -1.35696,-1.0485581 -1.81956,-1.0793986 -3.94751,-1.0793986 -1.94292,0 -3.26904,1.017719 -1.32611,1.0177179 -1.32611,2.652235 0,1.8812366 1.26443,2.7447551 1.01772,0.6784788 4.13256,1.3261176 3.14567,0.6167989 4.84187,2.34383582 1.6962,1.72703693 1.6962,4.56431188 z"
       style="font-style:normal;font-variant:normal;font-weight:normal;font-stretch:normal;font-size:39.99940872px;font-family:Kabel;-inkscape-font-specification:'Kabel, Normal';font-variant-ligatures:normal;font-variant-caps:normal;font-variant-numeric:normal;font-feature-settings:normal;text-align:start;writing-mode:lr-tb;text-anchor:start;fill:#ffffff;fill-opacity:1"
       id="path4591" />
    <path
       inkscape:connector-curvature="0"
       d="M 518.97459,-8.2676825 501.70422,2.3412586 q 0.33924,0.6476389 0.67848,1.2952777 0.98688,1.4803174 2.4672,2.4055157 2.06627,1.2952777 4.81103,1.2952777 2.77559,0 6.10631,-2.0971162 1.11023,-0.6784788 2.77559,-2.0971163 v 3.7316334 q -1.48032,1.110238 -2.49803,1.6345171 -3.14568,1.6653573 -6.16799,1.6653573 -5.02691,0 -8.51183,-3.3307144 -3.60827,-3.4540738 -3.60827,-8.6660245 0,-4.4717921 2.77559,-7.8333461 2.9298,-3.515754 7.52495,-3.978353 0.43176,-0.06168 0.86352,-0.06168 0.4626,0 0.70932,0 3.08399,0 5.48951,1.387798 1.72703,0.986878 2.96063,2.6213951 0.43176,0.7093187 0.89436,1.4186374 z m -4.07087,-0.7093187 q -0.89436,-0.6784788 -1.542,-1.0177182 -2.0046,-1.0485586 -3.97835,-1.0485586 -1.20276,0 -2.37468,0.33924 -1.17192,0.339239 -2.43635,1.1719178 -2.25132,1.5111573 -3.20736,4.0400328 -0.64764,1.7270369 -0.64764,3.7933132 0,0.6167989 0,0.89435845 0.0308,0.24671956 0.0925,0.46259917 z"
       style="font-style:normal;font-variant:normal;font-weight:normal;font-stretch:normal;font-size:39.99940872px;font-family:Kabel;-inkscape-font-specification:'Kabel, Normal';font-variant-ligatures:normal;font-variant-caps:normal;font-variant-numeric:normal;font-feature-settings:normal;text-align:start;writing-mode:lr-tb;text-anchor:start;fill:#ffffff;fill-opacity:1"
       id="path4593" />
    <path
       inkscape:connector-curvature="0"
       d="m 528.13689,-20.110221 -2.06628,2.652235 -2.43636,-2.590555 2.25132,-2.590556 z m -0.67848,29.3287874 -2.96064,0.7709986 v -22.66736 l 2.96064,-0.555119 z"
       style="font-style:normal;font-variant:normal;font-weight:normal;font-stretch:normal;font-size:39.99940872px;font-family:Kabel;-inkscape-font-specification:'Kabel, Normal';font-variant-ligatures:normal;font-variant-caps:normal;font-variant-numeric:normal;font-feature-settings:normal;text-align:start;writing-mode:lr-tb;text-anchor:start;fill:#ffffff;fill-opacity:1"
       id="path4595" />
    <path
       inkscape:connector-curvature="0"
       d="m 550.45425,9.1877264 -2.96064,0.5242791 V -5.8313268 q 0,-1.9120766 -1.32611,-3.4540738 -1.60368,-1.8812364 -4.37928,-1.8812364 -3.54659,0 -5.24279,3.1148342 -1.11024,2.0354363 -1.11024,4.2250724 V 9.1877264 l -2.96063,0.5242791 V -12.646955 l 2.80643,-0.493439 v 3.2073545 q 1.14108,-1.6961965 2.65224,-2.6522355 1.91208,-1.202758 4.22507,-1.202758 3.29988,0 5.45867,1.696197 2.83728,2.2204764 2.83728,6.938988 z"
       style="font-style:normal;font-variant:normal;font-weight:normal;font-stretch:normal;font-size:39.99940872px;font-family:Kabel;-inkscape-font-specification:'Kabel, Normal';font-variant-ligatures:normal;font-variant-caps:normal;font-variant-numeric:normal;font-feature-settings:normal;text-align:start;writing-mode:lr-tb;text-anchor:start;fill:#ffffff;fill-opacity:1"
       id="path4597" />
    <path
       inkscape:connector-curvature="0"
       d="M 575.45817,-8.2676825 558.1878,2.3412586 q 0.33924,0.6476389 0.67848,1.2952777 0.98688,1.4803174 2.4672,2.4055157 2.06627,1.2952777 4.81103,1.2952777 2.77559,0 6.10631,-2.0971162 1.11024,-0.6784788 2.77559,-2.0971163 v 3.7316334 q -1.48032,1.110238 -2.49803,1.6345171 -3.14568,1.6653573 -6.16799,1.6653573 -5.02691,0 -8.51183,-3.3307144 -3.60827,-3.4540738 -3.60827,-8.6660245 0,-4.4717921 2.77559,-7.8333461 2.9298,-3.515754 7.52495,-3.978353 0.43176,-0.06168 0.86352,-0.06168 0.4626,0 0.70932,0 3.08399,0 5.48951,1.387798 1.72704,0.986878 2.96063,2.6213951 0.43176,0.7093187 0.89436,1.4186374 z m -4.07087,-0.7093187 q -0.89436,-0.6784788 -1.542,-1.0177182 -2.00459,-1.0485586 -3.97835,-1.0485586 -1.20276,0 -2.37468,0.33924 -1.17192,0.339239 -2.43635,1.1719178 -2.25132,1.5111573 -3.20736,4.0400328 -0.64764,1.7270369 -0.64764,3.7933132 0,0.6167989 0,0.89435845 0.0308,0.24671956 0.0925,0.46259917 z"
       style="font-style:normal;font-variant:normal;font-weight:normal;font-stretch:normal;font-size:39.99940872px;font-family:Kabel;-inkscape-font-specification:'Kabel, Normal';font-variant-ligatures:normal;font-variant-caps:normal;font-variant-numeric:normal;font-feature-settings:normal;text-align:start;writing-mode:lr-tb;text-anchor:start;fill:#ffffff;fill-opacity:1"
       id="path4599" />
    <path
       inkscape:connector-curvature="0"
       d="m 592.76221,-13.541313 -1.35695,3.114834 q -0.12336,-0.03084 -0.21588,-0.03084 -0.55512,-0.123359 -0.98688,-0.123359 -0.6168,0 -1.2336,0.154199 -0.6168,0.12336 -1.35696,0.5242795 -1.60367,0.8635184 -2.80643,2.9606347 -1.35696,2.3746758 -1.35696,5.057751 V 9.1877264 l -2.96063,0.585959 V -12.646955 l 2.74475,-0.647638 v 4.9652307 q 0.4626,-1.3877976 1.72704,-2.7139157 1.3878,-1.449477 3.23819,-2.127956 0.6168,-0.215879 1.72704,-0.308399 1.11024,-0.09252 1.8504,-0.09252 0.89435,0.03084 0.98687,0.03084 z"
       style="font-style:normal;font-variant:normal;font-weight:normal;font-stretch:normal;font-size:39.99940872px;font-family:Kabel;-inkscape-font-specification:'Kabel, Normal';font-variant-ligatures:normal;font-variant-caps:normal;font-variant-numeric:normal;font-feature-settings:normal;text-align:start;writing-mode:lr-tb;text-anchor:start;fill:#ffffff;fill-opacity:1"
       id="path4601" />
    <path
       inkscape:connector-curvature="0"
       d="m 642.31025,9.1877264 -3.11483,0.7709987 -4.16339,-22.6981991 -9.99215,23.407518 -9.8071,-23.592558 -4.34843,22.8523991 -3.23819,-0.7401587 6.59974,-32.3511024 10.82482,26.1214335 11.04071,-26.2139535 z"
       style="font-style:normal;font-variant:normal;font-weight:normal;font-stretch:normal;font-size:39.99940872px;font-family:Kabel;-inkscape-font-specification:'Kabel, Normal';font-variant-ligatures:normal;font-variant-caps:normal;font-variant-numeric:normal;font-feature-settings:normal;text-align:start;writing-mode:lr-tb;text-anchor:start;fill:#ffffff;fill-opacity:1"
       id="path4603" />
    <path
       inkscape:connector-curvature="0"
       d="M 667.56614,-8.2676825 650.29577,2.3412586 q 0.33924,0.6476389 0.67848,1.2952777 0.98688,1.4803174 2.4672,2.4055157 2.06627,1.2952777 4.81103,1.2952777 2.77559,0 6.10631,-2.0971162 1.11024,-0.6784788 2.77559,-2.0971163 v 3.7316334 q -1.48031,1.110238 -2.49803,1.6345171 -3.14568,1.6653573 -6.16799,1.6653573 -5.02691,0 -8.51183,-3.3307144 -3.60827,-3.4540738 -3.60827,-8.6660245 0,-4.4717921 2.7756,-7.8333461 2.92979,-3.515754 7.52494,-3.978353 0.43176,-0.06168 0.86352,-0.06168 0.4626,0 0.70932,0 3.08399,0 5.48951,1.387798 1.72704,0.986878 2.96063,2.6213951 0.43176,0.7093187 0.89436,1.4186374 z m -4.07087,-0.7093187 q -0.89436,-0.6784788 -1.542,-1.0177182 -2.00459,-1.0485586 -3.97835,-1.0485586 -1.20276,0 -2.37468,0.33924 -1.17191,0.339239 -2.43635,1.1719178 -2.25132,1.5111573 -3.20736,4.0400328 -0.64763,1.7270369 -0.64763,3.7933132 0,0.6167989 0,0.89435845 0.0308,0.24671956 0.0925,0.46259917 z"
       style="font-style:normal;font-variant:normal;font-weight:normal;font-stretch:normal;font-size:39.99940872px;font-family:Kabel;-inkscape-font-specification:'Kabel, Normal';font-variant-ligatures:normal;font-variant-caps:normal;font-variant-numeric:normal;font-feature-settings:normal;text-align:start;writing-mode:lr-tb;text-anchor:start;fill:#ffffff;fill-opacity:1"
       id="path4605" />
    <path
       inkscape:connector-curvature="0"
       d="m 689.2803,9.1877264 -2.7756,0.7401587 v -14.587294 q 0,-2.6213953 -1.26444,-4.1633926 -1.48031,-1.8195565 -4.50263,-1.8195565 -3.08399,0 -4.84187,1.7887166 -1.72704,1.7578769 -1.72704,4.1017127 V 9.1568865 l -2.89895,0.7709986 V -21.991458 l 2.71391,-0.616799 v 12.7985773 q 0.95604,-1.4186373 2.6214,-2.4055153 1.81956,-1.079398 3.91667,-1.079398 4.1634,0 6.41471,2.127956 1.66536,1.5728369 2.1588,4.1325523 0.18504,0.9560383 0.18504,2.6830753 z"
       style="font-style:normal;font-variant:normal;font-weight:normal;font-stretch:normal;font-size:39.99940872px;font-family:Kabel;-inkscape-font-specification:'Kabel, Normal';font-variant-ligatures:normal;font-variant-caps:normal;font-variant-numeric:normal;font-feature-settings:normal;text-align:start;writing-mode:lr-tb;text-anchor:start;fill:#ffffff;fill-opacity:1"
       id="path4607" />
    <path
       inkscape:connector-curvature="0"
       d="m 706.58863,-13.541313 -1.35696,3.114834 q -0.12336,-0.03084 -0.21588,-0.03084 -0.55512,-0.123359 -0.98688,-0.123359 -0.61679,0 -1.23359,0.154199 -0.6168,0.12336 -1.35696,0.5242795 -1.60368,0.8635184 -2.80644,2.9606347 -1.35695,2.3746758 -1.35695,5.057751 V 9.1877264 l -2.96064,0.585959 V -12.646955 l 2.74476,-0.647638 v 4.9652307 q 0.4626,-1.3877976 1.72703,-2.7139157 1.3878,-1.449477 3.2382,-2.127956 0.6168,-0.215879 1.72703,-0.308399 1.11024,-0.09252 1.8504,-0.09252 0.89436,0.03084 0.98688,0.03084 z"
       style="font-style:normal;font-variant:normal;font-weight:normal;font-stretch:normal;font-size:39.99940872px;font-family:Kabel;-inkscape-font-specification:'Kabel, Normal';font-variant-ligatures:normal;font-variant-caps:normal;font-variant-numeric:normal;font-feature-settings:normal;text-align:start;writing-mode:lr-tb;text-anchor:start;fill:#ffffff;fill-opacity:1"
       id="path4609" />
    <path
       inkscape:connector-curvature="0"
       d="m 724.25292,3.6056964 q 0,2.8989548 -2.22047,4.7801915 -2.22048,1.8812371 -5.42783,1.8812371 -2.40552,0 -4.34844,-0.8943589 -1.32611,-0.6167989 -2.49803,-1.7270369 -0.43176,-0.4625992 -0.86352,-0.9560383 l 2.0046,-2.0662763 q 0.83267,0.9868782 1.44947,1.4803173 1.91208,1.4803174 4.19424,1.4803174 2.03543,0 3.45407,-1.2027579 1.41864,-1.2027578 1.41864,-2.8372749 0,-2.86811489 -3.45408,-3.82415319 -1.81955,-0.43175923 -3.63911,-0.89435841 -2.22048,-0.6784788 -3.45407,-2.0971163 -1.32612,-1.5419972 -1.32612,-3.7007934 0,-3.0839942 2.31299,-5.0269112 2.1588,-1.788717 5.18112,-1.788717 2.71391,0 5.08859,1.418638 0.771,0.462599 1.85039,1.449477 l -1.75787,2.0045967 q -0.771,-0.7093187 -1.35696,-1.0485581 -1.81956,-1.0793986 -3.94751,-1.0793986 -1.94292,0 -3.26904,1.017719 -1.32612,1.0177179 -1.32612,2.652235 0,1.8812366 1.26444,2.7447551 1.01772,0.6784788 4.13255,1.3261176 3.14568,0.6167989 4.84188,2.34383582 1.69619,1.72703693 1.69619,4.56431188 z"
       style="font-style:normal;font-variant:normal;font-weight:normal;font-stretch:normal;font-size:39.99940872px;font-family:Kabel;-inkscape-font-specification:'Kabel, Normal';font-variant-ligatures:normal;font-variant-caps:normal;font-variant-numeric:normal;font-feature-settings:normal;text-align:start;writing-mode:lr-tb;text-anchor:start;fill:#ffffff;fill-opacity:1"
       id="path4611" />
    <path
       inkscape:connector-curvature="0"
       d="m 751.98114,-1.6987742 q 0,4.9343912 -3.45407,8.3576251 -3.45408,3.4232341 -8.54267,3.4232341 -2.55971,0 -4.84187,-1.1410781 -1.542,-0.7709986 -3.02231,-2.1896361 -0.52428,-0.585959 -1.04856,-1.1719179 V 17.298632 l -3.11484,0.925198 v -30.870785 l 2.9298,-0.585959 v 4.4717924 q 0.70932,-1.0485581 0.98688,-1.3877974 1.29528,-1.541997 3.02231,-2.498036 2.40552,-1.356957 5.18111,-1.356957 4.93439,0 8.41931,3.639113 3.48491,3.6391138 3.48491,8.6660248 z m -3.05315,0.06168 q 0,-3.885833 -2.313,-6.6614281 -2.40551,-2.8681147 -6.01379,-2.8681147 -3.63911,0 -6.59975,2.3746756 -3.17651,2.5288755 -3.17651,6.137149 0,4.1017127 2.55972,7.0006676 2.59055,2.8681149 6.44554,2.8681149 3.79332,0 6.38387,-2.4055158 2.71392,-2.4980355 2.71392,-6.4455485 z"
       style="font-style:normal;font-variant:normal;font-weight:normal;font-stretch:normal;font-size:39.99940872px;font-family:Kabel;-inkscape-font-specification:'Kabel, Normal';font-variant-ligatures:normal;font-variant-caps:normal;font-variant-numeric:normal;font-feature-settings:normal;text-align:start;writing-mode:lr-tb;text-anchor:start;fill:#ffffff;fill-opacity:1"
       id="path4613" />
    <path
       inkscape:connector-curvature="0"
       d="m 769.40021,-13.541313 -1.35695,3.114834 q -0.12336,-0.03084 -0.21588,-0.03084 -0.55512,-0.123359 -0.98688,-0.123359 -0.6168,0 -1.2336,0.154199 -0.6168,0.12336 -1.35696,0.5242795 -1.60367,0.8635184 -2.80643,2.9606347 -1.35696,2.3746758 -1.35696,5.057751 V 9.1877264 l -2.96063,0.585959 V -12.646955 l 2.74475,-0.647638 v 4.9652307 q 0.4626,-1.3877976 1.72704,-2.7139157 1.3878,-1.449477 3.23819,-2.127956 0.6168,-0.215879 1.72704,-0.308399 1.11024,-0.09252 1.8504,-0.09252 0.89435,0.03084 0.98687,0.03084 z"
       style="font-style:normal;font-variant:normal;font-weight:normal;font-stretch:normal;font-size:39.99940872px;font-family:Kabel;-inkscape-font-specification:'Kabel, Normal';font-variant-ligatures:normal;font-variant-caps:normal;font-variant-numeric:normal;font-feature-settings:normal;text-align:start;writing-mode:lr-tb;text-anchor:start;fill:#ffffff;fill-opacity:1"
       id="path4615" />
    <path
       inkscape:connector-curvature="0"
       d="m 788.6065,9.1877264 -2.68307,0.4317593 V 6.9364105 q -0.95604,1.0485581 -1.66536,1.5419972 -2.15879,1.5419973 -4.65683,1.5419973 -3.63911,0 -5.95211,-2.1896361 -2.43635,-2.3129959 -2.43635,-6.2913488 0,-3.2381943 2.34383,-5.5203502 2.37468,-2.3129959 5.70539,-2.3129959 2.68308,0 4.81103,1.2644378 0.70932,0.4009193 1.60368,1.2644377 v -1.665357 q 0,-0.555119 0,-0.8635185 0,-2.1279562 -0.70932,-3.1148344 -1.14108,-1.6036776 -4.31759,-1.6036776 -2.18964,0 -4.96523,0.894359 -2.18964,0.7093186 -2.4672,0.9868781 l 1.17192,-3.5157541 q 0.1542,-0.06168 1.48032,-0.339239 3.26903,-0.678479 5.24279,-0.678479 7.4941,0 7.4941,7.0623476 z m -2.68307,-7.7408262 q 0,-2.31299584 -1.78872,-3.7316333 -1.78871,-1.4494774 -4.41011,-1.4494774 -2.4672,0 -4.07087,1.5728372 -1.60368,1.57283716 -1.60368,4.1633925 0,2.5905554 1.8504,4.0091929 1.66535,1.2644377 4.22507,1.2644377 2.4672,0 4.13255,-1.6036771 1.66536,-1.6036771 1.66536,-4.2250725 z"
       style="font-style:normal;font-variant:normal;font-weight:normal;font-stretch:normal;font-size:39.99940872px;font-family:Kabel;-inkscape-font-specification:'Kabel, Normal';font-variant-ligatures:normal;font-variant-caps:normal;font-variant-numeric:normal;font-feature-settings:normal;text-align:start;writing-mode:lr-tb;text-anchor:start;fill:#ffffff;fill-opacity:1"
       id="path4617" />
    <path
       inkscape:connector-curvature="0"
       d="m 812.4591,-10.889078 -1.6962,2.2513162 q -0.95604,-0.7401587 -1.66535,-1.0793981 -2.18964,-1.1102381 -4.53348,-1.1102381 -0.6168,0 -0.9252,0.03084 -3.60827,0.3084 -5.82874,3.0223147 -2.09712,2.5597154 -2.09712,6.2296689 0,3.6082735 2.37467,6.1988289 2.49804,2.7139152 6.19883,2.7139152 2.12796,0 3.73164,-0.6476389 1.63451,-0.6784788 2.65223,-1.6961969 l 1.60368,2.1587961 q -1.14108,0.9868783 -1.97376,1.4803174 -2.59055,1.5111576 -5.48951,1.5111576 -5.11943,0 -8.60434,-3.4232342 -3.45408,-3.4540739 -3.45408,-8.450145 0,-4.9035512 3.2382,-8.3884648 3.26903,-3.515754 8.20342,-3.515754 2.96064,0 5.92127,1.356958 0.95604,0.431759 2.34384,1.356957 z"
       style="font-style:normal;font-variant:normal;font-weight:normal;font-stretch:normal;font-size:39.99940872px;font-family:Kabel;-inkscape-font-specification:'Kabel, Normal';font-variant-ligatures:normal;font-variant-caps:normal;font-variant-numeric:normal;font-feature-settings:normal;text-align:start;writing-mode:lr-tb;text-anchor:start;fill:#ffffff;fill-opacity:1"
       id="path4619" />
    <path
       inkscape:connector-curvature="0"
       d="m 834.66879,9.1877264 -2.7756,0.7401587 v -14.587294 q 0,-2.6213953 -1.26444,-4.1633926 -1.48031,-1.8195565 -4.50263,-1.8195565 -3.08399,0 -4.84187,1.7887166 -1.72704,1.7578769 -1.72704,4.1017127 V 9.1568865 l -2.89895,0.7709986 V -21.991458 l 2.71391,-0.616799 v 12.7985773 q 0.95604,-1.4186373 2.6214,-2.4055153 1.81956,-1.079398 3.91667,-1.079398 4.16339,0 6.41471,2.127956 1.66536,1.5728369 2.1588,4.1325523 0.18504,0.9560383 0.18504,2.6830753 z"
       style="font-style:normal;font-variant:normal;font-weight:normal;font-stretch:normal;font-size:39.99940872px;font-family:Kabel;-inkscape-font-specification:'Kabel, Normal';font-variant-ligatures:normal;font-variant-caps:normal;font-variant-numeric:normal;font-feature-settings:normal;text-align:start;writing-mode:lr-tb;text-anchor:start;fill:#ffffff;fill-opacity:1"
       id="path4621" />
    <path
       inkscape:connector-curvature="0"
       d="m 843.83537,-20.110221 -2.06627,2.652235 -2.43636,-2.590555 2.25132,-2.590556 z m -0.67848,29.3287874 -2.96063,0.7709986 v -22.66736 l 2.96063,-0.555119 z"
       style="font-style:normal;font-variant:normal;font-weight:normal;font-stretch:normal;font-size:39.99940872px;font-family:Kabel;-inkscape-font-specification:'Kabel, Normal';font-variant-ligatures:normal;font-variant-caps:normal;font-variant-numeric:normal;font-feature-settings:normal;text-align:start;writing-mode:lr-tb;text-anchor:start;fill:#ffffff;fill-opacity:1"
       id="path4623" />
    <path
       inkscape:connector-curvature="0"
       d="m 868.40399,-14.682391 -0.89436,3.176514 -3.05315,0.1542 q 1.17191,0.770999 2.12795,2.5288755 0.95604,1.727037 0.95604,3.6391136 0,3.361554 -2.28216,5.48951017 -0.74015,0.70931873 -2.31299,1.44947743 1.63452,0.8018386 2.49803,1.6345171 2.40552,2.251316 2.40552,5.61287 0,3.8858332 -2.6214,6.4763882 -2.59055,2.621396 -6.4147,2.621396 -3.45408,0 -6.22967,-1.480318 -2.0046,-1.079398 -3.42324,-2.744755 -0.52428,-0.770999 -1.04856,-1.511157 l 2.22048,-1.696197 q 0.55512,1.634517 2.89896,3.114834 2.37467,1.480318 5.39699,1.480318 2.65223,0 4.44095,-1.511158 1.94291,-1.634517 1.94291,-4.2559121 0,-2.837275 -2.15879,-4.6876717 -2.0046,-1.6961969 -4.62599,-1.6961969 -2.40552,0 -4.50264,0.8326785 -0.67847,0.2775595 -1.60367,0.8326785 l 1.32612,-3.2690342 q -0.83268,-0.4317592 -1.32612,-0.80183854 -2.89896,-2.25131596 -2.89896,-6.10630916 0,-3.8241531 2.71392,-6.1063094 2.43635,-2.066276 5.82875,-2.066276 0.771,0 1.97375,0.03084 1.20276,0.03084 1.72704,0.03084 0.9252,0 1.78872,-0.06168 0.86352,-0.06168 2.09711,-0.27756 1.26444,-0.215879 2.28216,-0.555119 0.37008,-0.123359 0.771,-0.277559 z m -3.70079,9.0669438 q 0,-2.4055157 -1.97376,-3.8858331 -1.97376,-1.5111577 -4.47179,-1.5111577 -2.59056,0 -4.41012,1.6036776 -1.81955,1.6036771 -1.81955,4.0091928 0,2.6522353 1.85039,4.3175923 1.75788,1.57283724 4.3176,1.57283724 2.96063,0 4.71851,-1.72703694 1.78872,-1.7578768 1.78872,-4.3792722 z"
       style="font-style:normal;font-variant:normal;font-weight:normal;font-stretch:normal;font-size:39.99940872px;font-family:Kabel;-inkscape-font-specification:'Kabel, Normal';font-variant-ligatures:normal;font-variant-caps:normal;font-variant-numeric:normal;font-feature-settings:normal;text-align:start;writing-mode:lr-tb;text-anchor:start;fill:#ffffff;fill-opacity:1"
       id="path4625" />
    <path
       inkscape:connector-curvature="0"
       d="M 890.50676,8.2008482 888.2246,9.9587251 876.41291,-1.4212147 V 9.1877264 l -2.80644,0.6784788 V -21.991458 l 2.80644,-0.616799 v 20.816963 l 10.39306,-12.212618 2.46719,1.356957 -9.28282,10.886501 z"
       style="font-style:normal;font-variant:normal;font-weight:normal;font-stretch:normal;font-size:39.99940872px;font-family:Kabel;-inkscape-font-specification:'Kabel, Normal';font-variant-ligatures:normal;font-variant-caps:normal;font-variant-numeric:normal;font-feature-settings:normal;text-align:start;writing-mode:lr-tb;text-anchor:start;fill:#ffffff;fill-opacity:1"
       id="path4627" />
    <path
       inkscape:connector-curvature="0"
       d="M 913.96879,-8.2676825 896.69842,2.3412586 q 0.33924,0.6476389 0.67848,1.2952777 0.98688,1.4803174 2.4672,2.4055157 2.06627,1.2952777 4.81103,1.2952777 2.77559,0 6.10631,-2.0971162 1.11024,-0.6784788 2.77559,-2.0971163 v 3.7316334 q -1.48032,1.110238 -2.49803,1.6345171 -3.14568,1.6653573 -6.16799,1.6653573 -5.02691,0 -8.51183,-3.3307144 -3.60827,-3.4540738 -3.60827,-8.6660245 0,-4.4717921 2.77559,-7.8333461 2.9298,-3.515754 7.52495,-3.978353 0.43176,-0.06168 0.86352,-0.06168 0.4626,0 0.70932,0 3.08399,0 5.48951,1.387798 1.72704,0.986878 2.96063,2.6213951 0.43176,0.7093187 0.89436,1.4186374 z m -4.07087,-0.7093187 q -0.89436,-0.6784788 -1.542,-1.0177182 -2.00459,-1.0485586 -3.97835,-1.0485586 -1.20276,0 -2.37468,0.33924 -1.17192,0.339239 -2.43635,1.1719178 -2.25132,1.5111573 -3.20736,4.0400328 -0.64764,1.7270369 -0.64764,3.7933132 0,0.6167989 0,0.89435845 0.0308,0.24671956 0.0925,0.46259917 z"
       style="font-style:normal;font-variant:normal;font-weight:normal;font-stretch:normal;font-size:39.99940872px;font-family:Kabel;-inkscape-font-specification:'Kabel, Normal';font-variant-ligatures:normal;font-variant-caps:normal;font-variant-numeric:normal;font-feature-settings:normal;text-align:start;writing-mode:lr-tb;text-anchor:start;fill:#ffffff;fill-opacity:1"
       id="path4629" />
    <path
       inkscape:connector-curvature="0"
       d="m 923.13109,-20.110221 -2.06628,2.652235 -2.43635,-2.590555 2.25131,-2.590556 z m -0.67848,29.3287874 -2.96064,0.7709986 v -22.66736 l 2.96064,-0.555119 z"
       style="font-style:normal;font-variant:normal;font-weight:normal;font-stretch:normal;font-size:39.99940872px;font-family:Kabel;-inkscape-font-specification:'Kabel, Normal';font-variant-ligatures:normal;font-variant-caps:normal;font-variant-numeric:normal;font-feature-settings:normal;text-align:start;writing-mode:lr-tb;text-anchor:start;fill:#ffffff;fill-opacity:1"
       id="path4631" />
    <path
       inkscape:connector-curvature="0"
       d="m 940.32902,9.6194857 q -0.4626,0.1233598 -0.80184,0.1850396 -1.14108,0.2158797 -2.06628,0.2158797 -1.29527,0 -2.40551,-0.2775595 -1.11024,-0.2775596 -2.1588,-1.0793981 -1.57284,-1.141078 -2.0046,-3.5465937 -0.24671,-1.3261176 -0.24671,-4.74935154 V -10.148919 h -3.2382 l 0.70932,-2.498036 h 2.52888 v -5.42783 l 2.86811,-1.973756 v 7.401586 h 6.75395 v 2.498036 h -6.78479 V 0.7375815 q 0,2.3129959 0.1542,3.6391135 0.18504,1.2952777 0.95604,1.9429166 0.6168,0.524279 1.44948,0.7709986 0.83267,0.2158796 1.63451,0.2158796 0.95604,0 1.88124,-0.2158796 0.3084,-0.06168 0.771,-0.2467196 z"
       style="font-style:normal;font-variant:normal;font-weight:normal;font-stretch:normal;font-size:39.99940872px;font-family:Kabel;-inkscape-font-specification:'Kabel, Normal';font-variant-ligatures:normal;font-variant-caps:normal;font-variant-numeric:normal;font-feature-settings:normal;text-align:start;writing-mode:lr-tb;text-anchor:start;fill:#ffffff;fill-opacity:1"
       id="path4633" />
    <path
       inkscape:connector-curvature="0"
       d="m 949.19773,7.3990096 -2.68307,2.7447554 -2.4672,-2.960635 2.74476,-2.806435 z"
       style="font-style:normal;font-variant:normal;font-weight:normal;font-stretch:normal;font-size:39.99940872px;font-family:Kabel;-inkscape-font-specification:'Kabel, Normal';font-variant-ligatures:normal;font-variant-caps:normal;font-variant-numeric:normal;font-feature-settings:normal;text-align:start;writing-mode:lr-tb;text-anchor:start;fill:#ffffff;fill-opacity:1"
       id="path4635" />
  </g>
  <flowRoot
     xml:space="preserve"
     id="flowRoot4769"
     style="font-style:normal;font-weight:normal;font-size:40px;line-height:1.25;font-family:sans-serif;letter-spacing:0px;word-spacing:0px;display:inline;fill:#000000;fill-opacity:1;stroke:none"
     transform="matrix(0.26458333,0,0,0.26458333,124.7954,-68.647792)"><flowRegion
       id="flowRegion4771"><rect
         id="rect4773"
         width="92.934036"
         height="41.163715"
         x="416.18286"
         y="316.92303" /></flowRegion><flowPara
       id="flowPara4775">/</flowPara></flowRoot>  <flowRoot
     xml:space="preserve"
     id="flowRoot4785"
     style="font-style:normal;font-variant:normal;font-weight:normal;font-stretch:normal;font-size:40px;line-height:1.25;font-family:Kabel;-inkscape-font-specification:Kabel;letter-spacing:0px;word-spacing:0px;display:inline;fill:#000000;fill-opacity:1;stroke:none"
     transform="matrix(0.26458333,0,0,0.26458333,124.7954,-68.647792)"><flowRegion
       id="flowRegion4787"
       style="font-style:normal;font-variant:normal;font-weight:normal;font-stretch:normal;font-family:Kabel;-inkscape-font-specification:Kabel"><rect
         id="rect4789"
         width="146.97719"
         height="48.992397"
         x="331.83511"
         y="313.64005"
         style="font-style:normal;font-variant:normal;font-weight:normal;font-stretch:normal;font-family:Kabel;-inkscape-font-specification:Kabel" /></flowRegion><flowPara
       id="flowPara4791" /></flowRoot>  <path
     transform="matrix(-0.39216718,0,0,-0.491603,154.15465,4.821851)"
     inkscape:transform-center-y="2.5677139"
     d="m -261.77803,-8.802165 -15.24242,0 -15.24242,-10e-8 7.62121,-13.2003229 7.62121,-13.200324 7.62121,13.200323 z"
     inkscape:randomized="0"
     inkscape:rounded="0"
     inkscape:flatsided="false"
     sodipodi:arg2="1.5707963"
     sodipodi:arg1="0.52359878"
     sodipodi:r2="8.8002157"
     sodipodi:r1="17.600431"
     sodipodi:cy="-17.602381"
     sodipodi:cx="-277.02045"
     sodipodi:sides="3"
     id="path4722"
     style="opacity:0.97000002;vector-effect:none;fill:#3366ff;fill-opacity:1;stroke:none;stroke-width:1.05833328;stroke-linecap:butt;stroke-linejoin:miter;stroke-miterlimit:4;stroke-dasharray:none;stroke-dashoffset:0;stroke-opacity:1"
     sodipodi:type="star"
     inkscape:transform-center-x="-2.9090225e-006" />
  <path
     transform="matrix(0.39216719,0,0,0.491603,380.31372,26.45483)"
     inkscape:transform-center-y="-2.567716"
     d="m -261.77803,-8.802165 -15.24242,0 -15.24242,-10e-8 7.62121,-13.2003229 7.62121,-13.200324 7.62121,13.200323 z"
     inkscape:randomized="0"
     inkscape:rounded="0"
     inkscape:flatsided="false"
     sodipodi:arg2="1.5707963"
     sodipodi:arg1="0.52359878"
     sodipodi:r2="8.8002157"
     sodipodi:r1="17.600431"
     sodipodi:cy="-17.602381"
     sodipodi:cx="-277.02045"
     sodipodi:sides="3"
     id="path4722-4"
     style="opacity:0.97000002;vector-effect:none;fill:#107300;fill-opacity:1;stroke:none;stroke-width:1.05833328;stroke-linecap:butt;stroke-linejoin:miter;stroke-miterlimit:4;stroke-dasharray:none;stroke-dashoffset:0;stroke-opacity:1"
     sodipodi:type="star"
     inkscape:transform-center-x="6.0377698e-006" />
</svg>
