<?xml version="1.0" encoding="UTF-8" standalone="no"?>
<svg
   xmlns:dc="http://purl.org/dc/elements/1.1/"
   xmlns:cc="http://creativecommons.org/ns#"
   xmlns:rdf="http://www.w3.org/1999/02/22-rdf-syntax-ns#"
   xmlns:svg="http://www.w3.org/2000/svg"
   xmlns="http://www.w3.org/2000/svg"
   xmlns:sodipodi="http://sodipodi.sourceforge.net/DTD/sodipodi-0.dtd"
   xmlns:inkscape="http://www.inkscape.org/namespaces/inkscape"
   version="1.0"
   width="80mm"
   height="40mm"
   id="svg3336"
   inkscape:version="0.48.4 r9939"
   viewBox="0 0 80 40"
   sodipodi:docname="VA_logo_version_2.svg">
  <metadata
     id="metadata20">
    <rdf:RDF>
      <cc:Work
         rdf:about="">
        <dc:format>image/svg+xml</dc:format>
        <dc:type
           rdf:resource="http://purl.org/dc/dcmitype/StillImage" />
        <dc:title></dc:title>
      </cc:Work>
    </rdf:RDF>
  </metadata>
  <defs
     id="defs18" />
  <sodipodi:namedview
     pagecolor="#ffffff"
     bordercolor="#666666"
     borderopacity="1"
     objecttolerance="10"
     gridtolerance="10"
     guidetolerance="10"
     inkscape:pageopacity="0"
     inkscape:pageshadow="2"
     inkscape:window-width="1273"
     inkscape:window-height="1056"
     id="namedview16"
     showgrid="false"
     inkscape:zoom="11.313708"
     inkscape:cx="236.09818"
     inkscape:cy="34.384265"
     inkscape:window-x="221"
     inkscape:window-y="166"
     inkscape:window-maximized="0"
     inkscape:current-layer="svg3336" />
  <path
     style="fill:#008000;fill-opacity:1;stroke:none"
     d="M 246.28125 97.78125 C 238.99641 97.78125 233.09375 103.68391 233.09375 110.96875 C 233.09375 118.25359 238.99641 124.15625 246.28125 124.15625 C 253.56608 124.15625 259.46875 118.25359 259.46875 110.96875 C 259.46875 103.68391 253.56608 97.78125 246.28125 97.78125 z M 249.9375 107.1875 L 250.96875 107.1875 L 249.15625 114.71875 L 248.125 114.71875 L 249.9375 107.1875 z M 239.6875 107.28125 L 240.8125 107.28125 L 240.8125 114.59375 L 239.4375 114.59375 L 239.4375 109.3125 C 238.9278 109.78911 238.31674 110.14663 237.625 110.375 L 237.625 109.125 C 237.98907 109.00584 238.38554 108.77012 238.8125 108.4375 C 239.23945 108.10489 239.52863 107.72476 239.6875 107.28125 z M 253.84375 107.28125 L 254.96875 107.28125 L 254.96875 114.59375 L 253.5625 114.59375 L 253.5625 109.3125 C 253.0528 109.78911 252.44173 110.14663 251.75 110.375 L 251.75 109.125 C 252.11407 109.00584 252.51054 108.77012 252.9375 108.4375 C 253.36445 108.10489 253.68488 107.72476 253.84375 107.28125 z M 242.90625 107.40625 L 247.6875 107.40625 L 247.6875 108.40625 C 247.29364 108.79349 246.87584 109.36892 246.46875 110.09375 C 246.06165 110.81859 245.77597 111.5904 245.5625 112.40625 C 245.34902 113.2221 245.24667 113.95166 245.25 114.59375 L 243.875 114.59375 C 243.89803 113.58759 244.10779 112.54588 244.5 111.5 C 244.8922 110.45413 245.43842 109.51163 246.09375 108.6875 L 242.90625 108.6875 L 242.90625 107.40625 z "
     id="path2997"
     transform="scale(0.28222222,0.28222222)" />
  <g
     id="g3831">
    <g
       id="g3828">
      <path
         style="fill:#008000;fill-opacity:1;fill-rule:evenodd;stroke:none"
         d="M 246.28125 69.6875 L 217.875 129.1875 L 274.6875 129.1875 L 246.28125 69.6875 z M 246.28125 96.34375 C 254.34713 96.34375 260.90625 102.87161 260.90625 110.9375 C 260.90625 119.00339 254.34713 125.5625 246.28125 125.5625 C 238.21536 125.5625 231.6875 119.00339 231.6875 110.9375 C 231.6875 102.87161 238.21536 96.34375 246.28125 96.34375 z "
         transform="scale(0.28222222,0.28222222)"
         id="path3361" />
    </g>
  </g>
  <path
     style="fill:#3366ff;fill-opacity:1;fill-rule:evenodd;stroke:none"
     d="M 19.048728,4.0555372 11.031528,19.580893 3.0143553,4.0555372 Z"
     id="path3363"
     inkscape:connector-curvature="0" />
  <g
     style="font-style:normal;font-variant:normal;font-weight:normal;font-stretch:normal;font-size:21.16666603px;line-height:125%;font-family:'Century Gothic';-inkscape-font-specification:'Century Gothic, Normal';text-align:start;letter-spacing:0px;word-spacing:0px;writing-mode:lr-tb;text-anchor:start;fill:#008000;fill-opacity:1;stroke:none;stroke-width:1px;stroke-linecap:butt;stroke-linejoin:miter;stroke-opacity:1"
     id="text3375">
    <path
       d="m 11.069409,21.16463 7.090006,15.203206 -1.632975,0 -2.387451,-5.002278 -6.5525718,0 -2.3771158,5.002278 -1.6949869,0 7.1830235,-15.203206 0.372071,0 z m -0.186035,3.224609 -2.6148279,5.508708 5.1986489,0 -2.583821,-5.508708 z"
       style="fill:#000000"
       id="path4726" />
    <path
       d="m 20.526196,21.16463 1.529622,0 0,13.735595 5.839437,0 0,1.467611 -7.369059,0 0,-15.203206 z"
       style="fill:#000000"
       id="path4728" />
    <path
       d="m 30.313711,21.16463 3.028239,0 q 2.604492,0 3.513997,0.227376 1.302246,0.320394 2.129069,1.322917 0.826823,0.992187 0.826823,2.501139 0,1.519287 -0.806152,2.511475 -0.806153,0.981852 -2.222087,1.322916 -1.033529,0.248047 -3.865397,0.248047 l -1.085205,0 0,7.069336 -1.519287,0 0,-15.203206 z m 1.519287,1.477946 0,5.167643 2.573486,0.03101 q 1.560628,0 2.284099,-0.279053 0.72347,-0.289388 1.136881,-0.91984 0.413411,-0.640788 0.413411,-1.42627 0,-0.764811 -0.413411,-1.395263 -0.413411,-0.640788 -1.09554,-0.909506 -0.671794,-0.268717 -2.211752,-0.268717 l -2.687174,0 z"
       style="fill:#000000"
       id="path4730" />
    <path
       d="m 42.633372,21.16463 1.519287,0 0,15.203206 -1.519287,0 0,-15.203206 z"
       style="fill:#000000"
       id="path4732" />
    <path
       d="m 47.697663,36.367836 0,-15.203206 0.330729,0 10.10791,11.637532 0,-11.637532 1.498616,0 0,15.203206 -0.341064,0 -10.025228,-11.492838 0,11.492838 -1.570963,0 z"
       style="fill:#000000"
       id="path4734" />
  </g>
  <g
     style="font-style:normal;font-variant:normal;font-weight:normal;font-stretch:normal;font-size:21.16666603px;line-height:125%;font-family:'Century Gothic';-inkscape-font-specification:'Century Gothic, Normal';text-align:start;letter-spacing:0px;word-spacing:0px;writing-mode:lr-tb;text-anchor:start;fill:#3366ff;fill-opacity:1;stroke:none;stroke-width:1px;stroke-linecap:butt;stroke-linejoin:miter;stroke-opacity:1"
     id="text3369-4">
    <path
       d="m 19.637772,4.0758544 8.712646,0 0,1.4986165 -7.193359,0 0,4.7542321 7.131347,0 0,1.488281 -7.131347,0 0,5.96346 7.131347,0 0,1.498616 -8.650634,0 0,-15.2032056 z"
       style="fill:#000000"
       id="path4717" />
    <path
       d="m 31.078933,4.0758544 3.028239,0 q 2.532145,0 3.431315,0.2067058 1.353922,0.3100585 2.201416,1.3332519 0.847493,1.012858 0.847493,2.5011392 0,1.2402344 -0.589111,2.1807457 -0.578776,0.940511 -1.663981,1.426269 -1.085205,0.475423 -2.997233,0.485759 l 5.467366,7.069335 -1.881022,0 -5.457031,-7.069335 -0.868164,0 0,7.069335 -1.519287,0 0,-15.2032056 z m 1.519287,1.4882812 0,5.1676434 2.614827,0.02067 q 1.519288,0 2.242758,-0.289388 0.733805,-0.289388 1.136881,-0.9198402 0.413411,-0.6407877 0.413411,-1.4262695 0,-0.7648112 -0.413411,-1.3849283 Q 38.179275,6.1015705 37.507481,5.8328531 36.835687,5.5641356 35.275059,5.5641356 l -2.676839,0 z"
       style="fill:#000000"
       id="path4719" />
    <path
       d="m 43.894688,4.0758544 2.997233,0 q 1.808675,0 2.780192,0.4340821 0.971516,0.4237467 1.529622,1.3125813 0.568441,0.8888346 0.568441,1.9740397 0,1.012858 -0.496094,1.8500162 -0.496094,0.8268233 -1.457275,1.3435873 1.188557,0.403076 1.829345,0.950846 0.640788,0.537435 0.992188,1.312582 0.361735,0.764811 0.361735,1.663981 0,1.829345 -1.343588,3.100585 -1.333251,1.260905 -3.586344,1.260905 l -4.175455,0 0,-15.2032056 z m 1.488281,1.4882812 0,4.8679194 0.868164,0 q 1.581299,0 2.325439,-0.289388 0.744141,-0.2997229 1.178223,-0.9301753 0.434082,-0.6407878 0.434082,-1.4159342 0,-1.0438639 -0.733805,-1.6329753 -0.72347,-0.5994466 -2.315105,-0.5994466 l -1.756998,0 z m 0,6.3975424 0,5.829101 1.881022,0 q 1.663981,0 2.439127,-0.320394 0.775147,-0.330729 1.240235,-1.023193 0.475423,-0.692464 0.475423,-1.498617 0,-1.012858 -0.661458,-1.767333 -0.661459,-0.754476 -1.819011,-1.033529 -0.775146,-0.186035 -2.697509,-0.186035 l -0.857829,0 z"
       style="fill:#000000"
       id="path4721" />
    <path
       d="m 62.21915,4.0758544 7.090007,15.2032056 -1.632976,0 -2.387451,-5.002278 -6.552571,0 -2.377116,5.002278 -1.694987,0 7.183024,-15.2032056 0.37207,0 z m -0.186035,3.2246093 -2.614827,5.5087073 5.198649,0 -2.583822,-5.5087073 z"
       style="fill:#000000"
       id="path4723" />
  </g>
  <g
     id="text3767"
     style="font-size:19.12997246000000100px;font-style:normal;font-weight:normal;line-height:125%;letter-spacing:0px;word-spacing:0px;fill:#ffffff;fill-opacity:1;stroke:none;font-family:Sans;stroke-opacity:1"
     transform="translate(0.0126105,0)" />
</svg>
