<?xml version="1.0" encoding="UTF-8" standalone="no"?>
<svg
   xmlns:dc="http://purl.org/dc/elements/1.1/"
   xmlns:cc="http://creativecommons.org/ns#"
   xmlns:rdf="http://www.w3.org/1999/02/22-rdf-syntax-ns#"
   xmlns:svg="http://www.w3.org/2000/svg"
   xmlns="http://www.w3.org/2000/svg"
   xmlns:sodipodi="http://sodipodi.sourceforge.net/DTD/sodipodi-0.dtd"
   xmlns:inkscape="http://www.inkscape.org/namespaces/inkscape"
   version="1.0"
   width="74.512199mm"
   height="44.207939mm"
   id="svg3336"
   inkscape:version="0.92.0 r15299"
   viewBox="0 0 74.512199 44.207939"
   sodipodi:docname="VA_logo_17_2_subhead.svg">
  <metadata
     id="metadata20">
    <rdf:RDF>
      <cc:Work
         rdf:about="">
        <dc:format>image/svg+xml</dc:format>
        <dc:type
           rdf:resource="http://purl.org/dc/dcmitype/StillImage" />
        <dc:title></dc:title>
      </cc:Work>
    </rdf:RDF>
  </metadata>
  <defs
     id="defs18" />
  <sodipodi:namedview
     pagecolor="#ffffff"
     bordercolor="#666666"
     borderopacity="1"
     objecttolerance="10"
     gridtolerance="10"
     guidetolerance="10"
     inkscape:pageopacity="0"
     inkscape:pageshadow="2"
     inkscape:window-width="1806"
     inkscape:window-height="1056"
     id="namedview16"
     showgrid="false"
     inkscape:zoom="2"
     inkscape:cx="126.57138"
     inkscape:cy="85.903138"
     inkscape:window-x="46"
     inkscape:window-y="68"
     inkscape:window-maximized="0"
     inkscape:current-layer="layer2"
     showguides="false"
     fit-margin-top="0"
     fit-margin-left="0"
     fit-margin-right="0"
     fit-margin-bottom="0"
     inkscape:pagecheckerboard="true" />
  <g
     id="g3831"
     transform="translate(-3.0143553,-4.0555372)">
    <g
       id="g3828" />
  </g>
  <g
     inkscape:groupmode="layer"
     id="layer1"
     inkscape:label="Layer 1"
     style="display:inline"
     sodipodi:insensitive="true">
    <path
       style="fill:#3366ff;fill-opacity:1;fill-rule:evenodd;stroke:none"
       d="M 16.034373,0 8.0171727,15.525357 0,0 Z"
       id="path3363"
       inkscape:connector-curvature="0" />
    <g
       style="font-style:normal;font-variant:normal;font-weight:normal;font-stretch:normal;font-size:21.16666603px;line-height:125%;font-family:'Century Gothic';-inkscape-font-specification:'Century Gothic, Normal';text-align:start;letter-spacing:0px;word-spacing:0px;writing-mode:lr-tb;text-anchor:start;fill:#008000;fill-opacity:1;stroke:none;stroke-width:1px;stroke-linecap:butt;stroke-linejoin:miter;stroke-opacity:1"
       id="text3375"
       transform="translate(-3.0143553,-4.0555372)">
      <path
         d="m 11.069409,21.16463 7.090006,15.203206 H 16.52644 L 14.138989,31.365558 H 7.5864172 L 5.2093014,36.367836 H 3.5143145 L 10.697338,21.16463 Z m -0.186035,3.224609 -2.6148279,5.508708 h 5.1986489 z"
         style="fill:#000000"
         id="path4726"
         inkscape:connector-curvature="0" />
      <path
         d="m 20.526196,21.16463 h 1.529622 v 13.735595 h 5.839437 v 1.467611 h -7.369059 z"
         style="fill:#000000"
         id="path4728"
         inkscape:connector-curvature="0" />
      <path
         d="m 30.313711,21.16463 h 3.028239 q 2.604492,0 3.513997,0.227376 1.302246,0.320394 2.129069,1.322917 0.826823,0.992187 0.826823,2.501139 0,1.519287 -0.806152,2.511475 -0.806153,0.981852 -2.222087,1.322916 -1.033529,0.248047 -3.865397,0.248047 h -1.085205 v 7.069336 h -1.519287 z m 1.519287,1.477946 v 5.167643 l 2.573486,0.03101 q 1.560628,0 2.284099,-0.279053 0.72347,-0.289388 1.136881,-0.91984 0.413411,-0.640788 0.413411,-1.42627 0,-0.764811 -0.413411,-1.395263 -0.413411,-0.640788 -1.09554,-0.909506 Q 36.06013,22.64258 34.520172,22.64258 h -2.687174 z"
         style="fill:#000000"
         id="path4730"
         inkscape:connector-curvature="0" />
      <path
         d="m 42.633372,21.16463 h 1.519287 v 15.203206 h -1.519287 z"
         style="fill:#000000"
         id="path4732"
         inkscape:connector-curvature="0" />
      <path
         d="M 47.697663,36.367836 V 21.16463 h 0.330729 l 10.10791,11.637532 V 21.16463 h 1.498616 V 36.367836 H 59.293854 L 49.268626,24.874998 v 11.492838 z"
         style="fill:#000000"
         id="path4734"
         inkscape:connector-curvature="0" />
      <flowRoot
         xml:space="preserve"
         id="flowRoot4516"
         style="font-style:normal;font-weight:normal;font-size:40px;line-height:25px;font-family:sans-serif;letter-spacing:0px;word-spacing:0px;fill:#000000;fill-opacity:1;stroke:none"
         transform="matrix(0.26458333,0,0,0.26458333,3.0143553,-3.9444599)"><flowRegion
           id="flowRegion4518"><rect
             id="rect4520"
             width="412"
             height="153"
             x="-556"
             y="30.723267" /></flowRegion><flowPara
           id="flowPara4522" /></flowRoot>      <flowRoot
         xml:space="preserve"
         id="flowRoot6088"
         style="font-style:normal;font-weight:normal;font-size:40px;line-height:25px;font-family:sans-serif;letter-spacing:0px;word-spacing:0px;fill:#000000;fill-opacity:1;stroke:none"><flowRegion
           id="flowRegion6090"><rect
             id="rect6092"
             width="171"
             height="73.5"
             x="-164.5"
             y="-138.41487" /></flowRegion><flowPara
           id="flowPara6094"></flowPara></flowRoot>    </g>
    <g
       style="font-style:normal;font-variant:normal;font-weight:normal;font-stretch:normal;font-size:21.16666603px;line-height:125%;font-family:'Century Gothic';-inkscape-font-specification:'Century Gothic, Normal';text-align:start;letter-spacing:0px;word-spacing:0px;writing-mode:lr-tb;text-anchor:start;fill:#3366ff;fill-opacity:1;stroke:none;stroke-width:1px;stroke-linecap:butt;stroke-linejoin:miter;stroke-opacity:1"
       id="text3369-4"
       transform="translate(-3.0143553,-4.0555372)">
      <path
         d="m 19.637772,4.0758544 h 8.712646 v 1.4986165 h -7.193359 v 4.7542321 h 7.131347 v 1.488281 h -7.131347 v 5.96346 h 7.131347 v 1.498616 h -8.650634 z"
         style="fill:#000000"
         id="path4717"
         inkscape:connector-curvature="0" />
      <path
         d="m 31.078933,4.0758544 h 3.028239 q 2.532145,0 3.431315,0.2067058 1.353922,0.3100585 2.201416,1.3332519 0.847493,1.012858 0.847493,2.5011392 0,1.2402344 -0.589111,2.1807457 -0.578776,0.940511 -1.663981,1.426269 -1.085205,0.475423 -2.997233,0.485759 l 5.467366,7.069335 H 38.923415 L 33.466384,12.209725 H 32.59822 v 7.069335 h -1.519287 z m 1.519287,1.4882812 v 5.1676434 l 2.614827,0.02067 q 1.519288,0 2.242758,-0.289388 0.733805,-0.289388 1.136881,-0.9198402 0.413411,-0.6407877 0.413411,-1.4262695 0,-0.7648112 -0.413411,-1.3849283 Q 38.179275,6.1015705 37.507481,5.8328531 36.835687,5.5641356 35.275059,5.5641356 Z"
         style="fill:#000000"
         id="path4719"
         inkscape:connector-curvature="0" />
      <path
         d="m 43.894688,4.0758544 h 2.997233 q 1.808675,0 2.780192,0.4340821 0.971516,0.4237467 1.529622,1.3125813 0.568441,0.8888346 0.568441,1.9740397 0,1.012858 -0.496094,1.8500162 -0.496094,0.8268233 -1.457275,1.3435873 1.188557,0.403076 1.829345,0.950846 0.640788,0.537435 0.992188,1.312582 0.361735,0.764811 0.361735,1.663981 0,1.829345 -1.343588,3.100585 -1.333251,1.260905 -3.586344,1.260905 h -4.175455 z m 1.488281,1.4882812 v 4.8679194 h 0.868164 q 1.581299,0 2.325439,-0.289388 0.744141,-0.2997229 1.178223,-0.9301753 0.434082,-0.6407878 0.434082,-1.4159342 0,-1.0438639 -0.733805,-1.6329753 -0.72347,-0.5994466 -2.315105,-0.5994466 z m 0,6.3975424 v 5.829101 h 1.881022 q 1.663981,0 2.439127,-0.320394 0.775147,-0.330729 1.240235,-1.023193 0.475423,-0.692464 0.475423,-1.498617 0,-1.012858 -0.661458,-1.767333 -0.661459,-0.754476 -1.819011,-1.033529 -0.775146,-0.186035 -2.697509,-0.186035 z"
         style="fill:#000000"
         id="path4721"
         inkscape:connector-curvature="0" />
      <path
         d="M 62.21915,4.0758544 69.309157,19.27906 H 67.676181 L 65.28873,14.276782 H 58.736159 L 56.359043,19.27906 H 54.664056 L 61.84708,4.0758544 Z m -0.186035,3.2246093 -2.614827,5.5087073 h 5.198649 z"
         style="fill:#000000"
         id="path4723"
         inkscape:connector-curvature="0" />
    </g>
    <path
       transform="translate(-3.0143553,-4.0555372)"
       style="fill:#008000;fill-opacity:1;fill-rule:evenodd;stroke:none"
       d="m 61.492101,36.463568 8.017087,-16.797839 8.017369,16.797839 z"
       id="path3361"
       inkscape:connector-curvature="0" />
    <path
       id="path2997"
       d="m 70.616711,27.255489 c 0,2.276373 -1.845365,4.121738 -4.121736,4.121738 -2.276373,0 -4.121738,-1.845365 -4.121738,-4.121738 0,-2.276372 1.845365,-4.121736 4.121738,-4.121736 2.276371,0 4.121736,1.845364 4.121736,4.121736 z"
       style="fill:none;stroke:#ffffff;stroke-width:0.3572486;stroke-linecap:round;stroke-linejoin:round;stroke-miterlimit:4;stroke-dashoffset:0;stroke-opacity:1"
       inkscape:connector-curvature="0" />
    <g
       aria-label="17/2"
       transform="matrix(0.26458333,0,0,0.26458333,30.706221,31.047332)"
       style="font-style:normal;font-weight:normal;font-size:40px;line-height:25px;font-family:sans-serif;letter-spacing:0px;word-spacing:0px;fill:#ffffff;fill-opacity:1;stroke:none"
       id="flowRoot4502">
      <path
         d="m 125.85301,-17.394808 h 2.18229 v 7.6614582 h -1.44791 v -6.2916672 h -1.57813 z"
         style="font-style:normal;font-variant:normal;font-weight:bold;font-stretch:normal;font-size:10.66666698px;font-family:'Century Gothic';-inkscape-font-specification:'Century Gothic Bold';fill:#ffffff;fill-opacity:1"
         id="path4510"
         inkscape:connector-curvature="0" />
      <path
         d="m 129.30339,-17.394808 h 5.02604 v 0.765625 l -3.45834,7.0885415 -1.23437,-0.5989585 2.875,-5.885417 h -3.20833 z"
         style="font-style:normal;font-variant:normal;font-weight:bold;font-stretch:normal;font-size:10.66666698px;font-family:'Century Gothic';-inkscape-font-specification:'Century Gothic Bold';fill:#ffffff;fill-opacity:1"
         id="path4512"
         inkscape:connector-curvature="0" />
      <path
         d="m 134.87109,-8.3687665 3.44271,-9.2447915 h 1.01042 l -3.44792,9.2447915 z"
         style="font-style:normal;font-variant:normal;font-weight:bold;font-stretch:normal;font-size:10.66666698px;font-family:'Century Gothic';-inkscape-font-specification:'Century Gothic Bold';fill:#ffffff;fill-opacity:1"
         id="path4514"
         inkscape:connector-curvature="0" />
      <path
         d="m 141.41797,-14.926058 h -1.42188 q 0.0573,-1.239584 0.77605,-1.947917 0.72395,-0.713542 1.85416,-0.713542 0.69792,0 1.22917,0.296875 0.53646,0.291667 0.85417,0.848959 0.32291,0.552083 0.32291,1.125 0,0.682291 -0.39062,1.46875 -0.38542,0.786458 -1.41667,1.859375 l -0.85937,0.90625 h 2.72916 v 1.3489582 h -5.30729 v -0.6979172 l 2.36979,-2.416666 q 0.85938,-0.869792 1.14063,-1.395834 0.28646,-0.53125 0.28646,-0.958333 0,-0.442708 -0.29688,-0.729167 -0.29167,-0.291666 -0.75521,-0.291666 -0.46875,0 -0.78125,0.348958 -0.3125,0.348958 -0.33333,0.947917 z"
         style="font-style:normal;font-variant:normal;font-weight:bold;font-stretch:normal;font-size:10.66666698px;font-family:'Century Gothic';-inkscape-font-specification:'Century Gothic Bold';fill:#ffffff;fill-opacity:1"
         id="path4516"
         inkscape:connector-curvature="0" />
    </g>
  </g>
  <g
     inkscape:groupmode="layer"
     id="layer2"
     inkscape:label="Layer 2">
    <g
       aria-label="DER "
       transform="matrix(0.2077159,0,0,0.2077159,0.09319065,5.5524769)"
       style="font-style:normal;font-variant:normal;font-weight:normal;font-stretch:normal;font-size:40px;line-height:25px;font-family:sans-serif;-inkscape-font-specification:'Century Gothic, Normal';text-align:start;letter-spacing:0px;word-spacing:0px;writing-mode:lr-tb;text-anchor:start;display:inline;fill:#000000;fill-opacity:1;stroke:none;stroke-width:1px;stroke-linecap:butt;stroke-linejoin:miter;stroke-opacity:1"
       id="flowRoot6064-3">
      <path
         d="m 21.533204,147.84298 q 0,1.7181 -0.753256,3.11458 -0.744791,1.39649 -1.988932,2.16667 -0.863281,0.5332 -1.929688,0.77018 -1.057942,0.23698 -2.792968,0.23698 h -3.182292 v -12.60221 h 3.148437 q 1.845053,0 2.928386,0.27083 1.091797,0.26237 1.845052,0.72786 1.286458,0.80404 2.00586,2.14128 0.719401,1.33724 0.719401,3.17383 z m -1.751954,-0.0254 q 0,-1.48112 -0.516276,-2.49675 -0.516276,-1.01562 -1.540364,-1.59961 -0.744792,-0.42317 -1.582683,-0.58398 -0.83789,-0.16927 -2.005859,-0.16927 h -1.574219 v 9.72461 h 1.574219 q 1.210286,0 2.107422,-0.17774 0.905599,-0.17773 1.658854,-0.66015 0.939453,-0.60091 1.404948,-1.58268 0.473958,-0.98178 0.473958,-2.45443 z"
         style="font-size:17.33333397px"
         id="path6389" />
      <path
         d="m 32.561199,154.13139 h -8.302735 v -12.60221 h 8.302735 v 1.48958 h -6.626953 v 3.45313 h 6.626953 v 1.48958 h -6.626953 v 4.68034 h 6.626953 z"
         style="font-size:17.33333397px"
         id="path6391" />
      <path
         d="m 45.654298,154.13139 h -2.17513 l -4.214844,-5.01042 h -2.361328 v 5.01042 h -1.675782 v -12.60221 h 3.529297 q 1.142578,0 1.904297,0.15234 0.761719,0.14388 1.371094,0.52474 0.685547,0.43164 1.066406,1.0918 0.389323,0.65169 0.389323,1.65885 0,1.36263 -0.685547,2.28516 -0.685547,0.91406 -1.88737,1.37956 z m -3.91862,-9.05599 q 0,-0.54167 -0.194661,-0.95638 -0.186198,-0.42318 -0.626303,-0.71094 -0.363932,-0.24544 -0.863281,-0.33854 -0.499349,-0.10156 -1.176432,-0.10156 h -1.972005 v 4.75651 h 1.692708 q 0.795573,0 1.388021,-0.13542 0.592448,-0.14388 1.007161,-0.52474 0.38086,-0.35547 0.558594,-0.8125 0.186198,-0.46549 0.186198,-1.17643 z"
         style="font-size:17.33333397px"
         id="path6393" />
    </g>
    <g
       aria-label="ALPINE"
       transform="matrix(0.2077159,0,0,0.2077159,31.606219,30.114003)"
       style="font-style:normal;font-variant:normal;font-weight:normal;font-stretch:normal;font-size:40px;line-height:25px;font-family:sans-serif;-inkscape-font-specification:'Century Gothic, Normal';text-align:start;letter-spacing:0px;word-spacing:0px;writing-mode:lr-tb;text-anchor:start;display:inline;fill:#000000;fill-opacity:1;stroke:none;stroke-width:1px;stroke-linecap:butt;stroke-linejoin:miter;stroke-opacity:1"
       id="flowRoot6072">
      <path
         d="m -88.265625,35.400922 h -1.648437 l -1.140625,-3.242187 h -5.03125 l -1.140625,3.242187 h -1.570313 L -94.5625,23.76811 H -92.5 Z m -3.265625,-4.570312 -2.039062,-5.710938 -2.046875,5.710938 z"
         style="font-size:16px"
         id="path6376"
         inkscape:connector-curvature="0" />
      <path
         d="M -79.140625,35.400922 H -86.5 V 23.76811 h 1.546875 v 10.257812 h 5.8125 z"
         style="font-size:16px"
         id="path6378"
         inkscape:connector-curvature="0" />
      <path
         d="m -69.984375,27.283735 q 0,0.773437 -0.273437,1.4375 -0.265625,0.65625 -0.75,1.140625 -0.601563,0.601562 -1.421875,0.90625 Q -73.25,31.064985 -74.5,31.064985 h -1.546875 v 4.335937 H -77.59375 V 23.76811 h 3.15625 q 1.046875,0 1.773438,0.179687 0.726562,0.171875 1.289062,0.546875 0.664063,0.445313 1.023438,1.109375 0.367187,0.664063 0.367187,1.679688 z m -1.609375,0.03906 q 0,-0.601562 -0.210937,-1.046875 -0.210938,-0.445312 -0.640625,-0.726562 -0.375,-0.242188 -0.859375,-0.34375 -0.476563,-0.109375 -1.210938,-0.109375 h -1.53125 v 4.648437 h 1.304688 q 0.9375,0 1.523437,-0.164062 0.585938,-0.171875 0.953125,-0.539063 0.367188,-0.375 0.515625,-0.789062 0.15625,-0.414063 0.15625,-0.929688 z"
         style="font-size:16px"
         id="path6380"
         inkscape:connector-curvature="0" />
      <path
         d="m -63.835937,35.400922 h -4.59375 v -1.1875 h 1.523437 V 24.95561 h -1.523437 v -1.1875 h 4.59375 v 1.1875 h -1.523438 v 9.257812 h 1.523438 z"
         style="font-size:16px"
         id="path6382"
         inkscape:connector-curvature="0" />
      <path
         d="m -52.3125,35.400922 h -1.914062 l -5.515625,-10.40625 v 10.40625 H -61.1875 V 23.76811 h 2.398438 l 5.03125,9.5 v -9.5 h 1.445312 z"
         style="font-size:16px"
         id="path6384"
         inkscape:connector-curvature="0" />
      <path
         d="M -41.554687,35.400922 H -49.21875 V 23.76811 h 7.664063 v 1.375 h -6.117188 v 3.1875 h 6.117188 v 1.375 h -6.117188 v 4.320312 h 6.117188 z"
         style="font-size:16px"
         id="path6386"
         inkscape:connector-curvature="0" />
    </g>
    <g
       aria-label="KULTURRAUM"
       transform="matrix(0.2077159,0,0,0.2077159,47.5857,53.347757)"
       style="font-style:normal;font-variant:normal;font-weight:normal;font-stretch:normal;font-size:40px;line-height:25px;font-family:sans-serif;-inkscape-font-specification:'Century Gothic, Normal';text-align:start;letter-spacing:0px;word-spacing:0px;writing-mode:lr-tb;text-anchor:start;display:inline;fill:#000000;fill-opacity:1;stroke:none;stroke-width:1px;stroke-linecap:butt;stroke-linejoin:miter;stroke-opacity:1"
       id="flowRoot6080">
      <path
         d="m -96.676432,-76.099078 h -2.17513 l -4.985028,-5.611328 -1.2526,1.33724 v 4.274088 h -1.67578 v -12.602214 h 1.67578 v 6.576172 l 6.119138,-6.576172 h 2.03125 l -5.628258,5.92448 z"
         style="font-size:17.33333397px"
         id="path6355" />
      <path
         d="m -85.301432,-81.160276 q 0,1.371094 -0.304687,2.395182 -0.296224,1.015626 -0.981771,1.692709 -0.651693,0.643229 -1.523438,0.939453 -0.871744,0.296224 -2.03125,0.296224 -1.184895,0 -2.065104,-0.313151 -0.880208,-0.313151 -1.48112,-0.922526 -0.685547,-0.694011 -0.990234,-1.675781 -0.296224,-0.981771 -0.296224,-2.41211 v -7.541016 h 1.675781 v 7.625652 q 0,1.024088 0.135417,1.616536 0.14388,0.592448 0.473958,1.07487 0.372396,0.55013 1.007162,0.829427 0.643229,0.279297 1.540364,0.279297 0.905599,0 1.540365,-0.270833 0.634766,-0.279297 1.015625,-0.837891 0.330078,-0.482422 0.465495,-1.100261 0.14388,-0.626302 0.14388,-1.548828 v -7.667969 h 1.675781 z"
         style="font-size:17.33333397px"
         id="path6357" />
      <path
         d="m -74.121092,-76.099078 h -7.972657 v -12.602214 h 1.675782 v 11.112631 h 6.296875 z"
         style="font-size:17.33333397px"
         id="path6359" />
      <path
         d="m -63.45703,-87.211708 h -4.502604 v 11.11263 h -1.675781 v -11.11263 h -4.502605 v -1.489584 h 10.68099 z"
         style="font-size:17.33333397px"
         id="path6361" />
      <path
         d="m -52.259763,-81.160276 q 0,1.371094 -0.304687,2.395182 -0.296224,1.015626 -0.981771,1.692709 -0.651693,0.643229 -1.523438,0.939453 -0.871744,0.296224 -2.03125,0.296224 -1.184896,0 -2.065104,-0.313151 -0.880208,-0.313151 -1.48112,-0.922526 -0.685547,-0.694011 -0.990234,-1.675781 -0.296224,-0.981771 -0.296224,-2.41211 v -7.541016 h 1.675781 v 7.625652 q 0,1.024088 0.135417,1.616536 0.14388,0.592448 0.473958,1.07487 0.372396,0.55013 1.007162,0.829427 0.643229,0.279297 1.540364,0.279297 0.905599,0 1.540365,-0.270833 0.634766,-0.279297 1.015625,-0.837891 0.330078,-0.482422 0.465495,-1.100261 0.14388,-0.626302 0.14388,-1.548828 v -7.667969 h 1.675781 z"
         style="font-size:17.33333397px"
         id="path6363" />
      <path
         d="m -38.624997,-76.099078 h -2.17513 l -4.214844,-5.010417 h -2.361328 v 5.010417 h -1.675782 v -12.602214 h 3.529297 q 1.142578,0 1.904297,0.152344 0.761719,0.14388 1.371094,0.52474 0.685547,0.43164 1.066406,1.091796 0.389323,0.651693 0.389323,1.658855 0,1.36263 -0.685547,2.285156 -0.685547,0.914063 -1.88737,1.379557 z m -3.91862,-9.05599 q 0,-0.541666 -0.194661,-0.95638 -0.186198,-0.423177 -0.626303,-0.710937 -0.363932,-0.245443 -0.863281,-0.338542 -0.499349,-0.101563 -1.176432,-0.101563 h -1.972005 v 4.756511 h 1.692708 q 0.795573,0 1.388021,-0.135417 0.592448,-0.14388 1.007161,-0.524739 0.38086,-0.355469 0.558594,-0.8125 0.186198,-0.465495 0.186198,-1.176433 z"
         style="font-size:17.33333397px"
         id="path6365" />
      <path
         d="m -26.572911,-76.099078 h -2.17513 l -4.214844,-5.010417 h -2.361329 v 5.010417 h -1.675781 v -12.602214 h 3.529297 q 1.142578,0 1.904297,0.152344 0.761719,0.14388 1.371094,0.52474 0.685547,0.43164 1.066406,1.091796 0.389323,0.651693 0.389323,1.658855 0,1.36263 -0.685547,2.285156 -0.685547,0.914063 -1.88737,1.379557 z m -3.91862,-9.05599 q 0,-0.541666 -0.194662,-0.95638 -0.186197,-0.423177 -0.626302,-0.710937 -0.363932,-0.245443 -0.863281,-0.338542 -0.499349,-0.101563 -1.176432,-0.101563 h -1.972006 v 4.756511 h 1.692709 q 0.795573,0 1.388021,-0.135417 0.592448,-0.14388 1.007161,-0.524739 0.38086,-0.355469 0.558594,-0.8125 0.186198,-0.465495 0.186198,-1.176433 z"
         style="font-size:17.33333397px"
         id="path6367" />
      <path
         d="m -15.011718,-76.099078 h -1.785808 l -1.235677,-3.51237 h -5.450521 l -1.235677,3.51237 h -1.701172 l 4.58724,-12.602214 h 2.234375 z m -3.537761,-4.951172 -2.208984,-6.186849 -2.217448,6.186849 z"
         style="font-size:17.33333397px"
         id="path6369" />
      <path
         d="m -3.6113252,-81.160276 q 0,1.371094 -0.3046875,2.395182 -0.296224,1.015626 -0.9817709,1.692709 -0.6516927,0.643229 -1.5234375,0.939453 -0.8717448,0.296224 -2.0312501,0.296224 -1.1848959,0 -2.0651038,-0.313151 -0.880209,-0.313151 -1.48112,-0.922526 -0.685547,-0.694011 -0.990235,-1.675781 -0.296224,-0.981771 -0.296224,-2.41211 v -7.541016 h 1.675782 v 7.625652 q 0,1.024088 0.135416,1.616536 0.143881,0.592448 0.473959,1.07487 0.372396,0.55013 1.0071612,0.829427 0.6432292,0.279297 1.5403646,0.279297 0.905599,0 1.5403647,-0.270833 0.6347656,-0.279297 1.015625,-0.837891 0.3300781,-0.482422 0.4654948,-1.100261 0.1438802,-0.626302 0.1438802,-1.548828 v -7.667969 h 1.6757813 z"
         style="font-size:17.33333397px"
         id="path6371" />
      <path
         d="M 10.819013,-76.099078 H 9.1432321 V -86.957802 L 5.6393257,-79.56913 H 4.6406278 L 1.162112,-86.957802 v 10.858724 H -0.40364323 V -88.701292 H 1.8815131 l 3.3600262,7.016277 3.2500001,-7.016277 h 2.3274736 z"
         style="font-size:17.33333397px"
         id="path6373" />
    </g>
    <g
       aria-label="IM "
       transform="matrix(0.2077159,0,0,0.2077159,49.587624,5.5524769)"
       style="font-style:normal;font-variant:normal;font-weight:normal;font-stretch:normal;font-size:40px;line-height:25px;font-family:sans-serif;-inkscape-font-specification:'Century Gothic, Normal';text-align:start;letter-spacing:0px;word-spacing:0px;writing-mode:lr-tb;text-anchor:start;display:inline;fill:#000000;fill-opacity:1;stroke:none;stroke-width:1px;stroke-linecap:butt;stroke-linejoin:miter;stroke-opacity:1"
       id="flowRoot6064">
      <path
         d="m 15.329427,154.13139 h -4.976562 v -1.28646 h 1.65039 v -10.02929 h -1.65039 v -1.28646 h 4.976562 v 1.28646 h -1.65039 v 10.02929 h 1.65039 z"
         style="font-size:17.33333397px"
         id="path6350"
         inkscape:connector-curvature="0" />
      <path
         d="m 29.421225,154.13139 h -1.675781 v -10.85872 l -3.503907,7.38867 h -0.998698 l -3.478515,-7.38867 v 10.85872 h -1.565756 v -12.60221 h 2.285157 l 3.360026,7.01627 3.25,-7.01627 h 2.327474 z"
         style="font-size:17.33333397px"
         id="path6352"
         inkscape:connector-curvature="0" />
    </g>
    <g
       aria-label="SPIEGEL"
       transform="matrix(0.2077159,0,0,0.2077159,24.501858,57.692593)"
       style="font-style:normal;font-variant:normal;font-weight:normal;font-stretch:normal;font-size:40px;line-height:25px;font-family:sans-serif;-inkscape-font-specification:'Century Gothic, Normal';text-align:start;letter-spacing:0px;word-spacing:0px;writing-mode:lr-tb;text-anchor:start;display:inline;fill:#000000;fill-opacity:1;stroke:none;stroke-width:1px;stroke-linecap:butt;stroke-linejoin:miter;stroke-opacity:1"
       id="flowRoot6080-6">
      <path
         d="m -97.649739,-79.696083 q 0,0.736328 -0.347005,1.455729 -0.338542,0.719401 -0.956381,1.21875 -0.677083,0.541667 -1.582685,0.846354 -0.89713,0.304688 -2.16666,0.304688 -1.36263,0 -2.45443,-0.253906 -1.08333,-0.253907 -2.20899,-0.753256 v -2.098958 h 0.11849 q 0.95638,0.795573 2.20899,1.227214 1.2526,0.43164 2.35286,0.43164 1.5573,0 2.42058,-0.583984 0.871741,-0.583985 0.871741,-1.557292 0,-0.837891 -0.414713,-1.235677 -0.406248,-0.397787 -1.244138,-0.617839 -0.63477,-0.16927 -1.37956,-0.279297 -0.73633,-0.110026 -1.56576,-0.279296 -1.67578,-0.355469 -2.48828,-1.210287 -0.80403,-0.863281 -0.80403,-2.242839 0,-1.582682 1.33724,-2.589843 1.33724,-1.015625 3.39388,-1.015625 1.32877,0 2.4375,0.253906 1.108721,0.253906 1.963538,0.626302 v 1.980469 h -0.118489 q -0.719401,-0.609375 -1.895829,-1.007162 -1.16797,-0.40625 -2.39519,-0.40625 -1.3457,0 -2.16666,0.558594 -0.8125,0.558594 -0.8125,1.438802 0,0.78711 0.40625,1.235677 0.40625,0.448568 1.43033,0.685547 0.54167,0.11849 1.54037,0.287761 0.9987,0.16927 1.69271,0.347005 1.404946,0.372396 2.115883,1.125651 0.710938,0.753255 0.710938,2.107422 z"
         style="font-size:17.33333397px"
         id="path6335" />
      <path
         d="m -86.714843,-84.892698 q 0,0.837891 -0.296224,1.557292 -0.28776,0.710937 -0.8125,1.235677 -0.651692,0.651693 -1.540364,0.981771 -0.888672,0.321614 -2.242839,0.321614 h -1.675781 v 4.697266 h -1.675782 v -12.602214 h 3.419271 q 1.134115,0 1.921224,0.194662 0.78711,0.186198 1.396485,0.592448 0.719401,0.482422 1.108724,1.201823 0.397786,0.719401 0.397786,1.819661 z m -1.743489,0.04232 q 0,-0.651693 -0.228516,-1.134115 -0.228516,-0.482422 -0.69401,-0.787109 -0.40625,-0.26237 -0.93099,-0.372396 -0.516276,-0.11849 -1.311849,-0.11849 h -1.658854 v 5.035808 h 1.413411 q 1.015625,0 1.650391,-0.177735 0.634766,-0.186197 1.032552,-0.583984 0.397786,-0.40625 0.558594,-0.854818 0.169271,-0.448567 0.169271,-1.007161 z"
         style="font-size:17.33333397px"
         id="path6337" />
      <path
         d="m -80.054036,-76.099078 h -4.976562 v -1.286458 h 1.65039 v -10.029297 h -1.65039 v -1.286459 h 4.976562 v 1.286459 h -1.65039 v 10.029297 h 1.65039 z"
         style="font-size:17.33333397px"
         id="path6339" />
      <path
         d="m -68.88216,-76.099078 h -8.302735 v -12.602214 h 8.302735 v 1.489584 h -6.626954 v 3.453125 h 6.626954 V -82.269 h -6.626954 v 4.680339 h 6.626954 z"
         style="font-size:17.33333397px"
         id="path6341" />
      <path
         d="m -55.704424,-77.030067 q -1.032552,0.473958 -2.259766,0.829427 -1.21875,0.347005 -2.361328,0.347005 -1.472656,0 -2.69987,-0.40625 -1.227213,-0.40625 -2.090495,-1.21875 -0.871745,-0.820964 -1.345703,-2.048177 -0.473958,-1.235677 -0.473958,-2.886068 0,-3.021485 1.760416,-4.764974 1.768881,-1.751953 4.84961,-1.751953 1.07487,0 2.192057,0.262369 1.125651,0.253907 2.420573,0.871745 v 1.988933 h -0.152343 q -0.26237,-0.203125 -0.761719,-0.533204 -0.499349,-0.330078 -0.981771,-0.55013 -0.583984,-0.26237 -1.328776,-0.43164 -0.736328,-0.177735 -1.675781,-0.177735 -2.115886,0 -3.351563,1.36263 -1.227214,1.354167 -1.227214,3.673178 0,2.445963 1.286459,3.808594 1.286458,1.354166 3.503906,1.354166 0.8125,0 1.616537,-0.160807 0.8125,-0.160807 1.421875,-0.414714 v -3.089192 h -3.376954 v -1.472657 h 5.035808 z"
         style="font-size:17.33333397px"
         id="path6343" />
      <path
         d="m -44.473307,-76.099078 h -8.302735 v -12.602214 h 8.302735 v 1.489584 h -6.626953 v 3.453125 h 6.626953 V -82.269 h -6.626953 v 4.680339 h 6.626953 z"
         style="font-size:17.33333397px"
         id="path6345" />
      <path
         d="m -33.834635,-76.099078 h -7.972657 v -12.602214 h 1.675782 v 11.112631 h 6.296875 z"
         style="font-size:17.33333397px"
         id="path6347" />
    </g>
    <g
       aria-label="SEINER"
       transform="matrix(0.2077159,0,0,0.2077159,41.188775,57.614225)"
       style="font-style:normal;font-variant:normal;font-weight:normal;font-stretch:normal;font-size:40px;line-height:25px;font-family:sans-serif;-inkscape-font-specification:'Century Gothic, Normal';text-align:start;letter-spacing:0px;word-spacing:0px;writing-mode:lr-tb;text-anchor:start;display:inline;fill:#000000;fill-opacity:1;stroke:none;stroke-width:1px;stroke-linecap:butt;stroke-linejoin:miter;stroke-opacity:1"
       id="flowRoot6080-6-0">
      <path
         d="m -97.649739,-79.696083 q 0,0.736328 -0.347005,1.455729 -0.338542,0.719401 -0.956381,1.21875 -0.677083,0.541667 -1.582685,0.846354 -0.89713,0.304688 -2.16666,0.304688 -1.36263,0 -2.45443,-0.253906 -1.08333,-0.253907 -2.20899,-0.753256 v -2.098958 h 0.11849 q 0.95638,0.795573 2.20899,1.227214 1.2526,0.43164 2.35286,0.43164 1.5573,0 2.42058,-0.583984 0.871741,-0.583985 0.871741,-1.557292 0,-0.837891 -0.414713,-1.235677 -0.406248,-0.397787 -1.244138,-0.617839 -0.63477,-0.16927 -1.37956,-0.279297 -0.73633,-0.110026 -1.56576,-0.279296 -1.67578,-0.355469 -2.48828,-1.210287 -0.80403,-0.863281 -0.80403,-2.242839 0,-1.582682 1.33724,-2.589843 1.33724,-1.015625 3.39388,-1.015625 1.32877,0 2.4375,0.253906 1.108721,0.253906 1.963538,0.626302 v 1.980469 h -0.118489 q -0.719401,-0.609375 -1.895829,-1.007162 -1.16797,-0.40625 -2.39519,-0.40625 -1.3457,0 -2.16666,0.558594 -0.8125,0.558594 -0.8125,1.438802 0,0.78711 0.40625,1.235677 0.40625,0.448568 1.43033,0.685547 0.54167,0.11849 1.54037,0.287761 0.9987,0.16927 1.69271,0.347005 1.404946,0.372396 2.115883,1.125651 0.710938,0.753255 0.710938,2.107422 z"
         style="font-size:17.33333397px"
         id="path6322" />
      <path
         d="m -86.655598,-76.099078 h -8.302735 v -12.602214 h 8.302735 v 1.489584 h -6.626953 v 3.453125 h 6.626953 V -82.269 h -6.626953 v 4.680339 h 6.626953 z"
         style="font-size:17.33333397px"
         id="path6324" />
      <path
         d="m -79.546223,-76.099078 h -4.976563 v -1.286458 h 1.650391 v -10.029297 h -1.650391 v -1.286459 h 4.976563 v 1.286459 h -1.650391 v 10.029297 h 1.650391 z"
         style="font-size:17.33333397px"
         id="path6326" />
      <path
         d="m -67.062499,-76.099078 h -2.073568 l -5.97526,-11.273438 v 11.273438 h -1.565756 v -12.602214 h 2.598308 l 5.450521,10.291667 v -10.291667 h 1.565755 z"
         style="font-size:17.33333397px"
         id="path6328" />
      <path
         d="m -55.408201,-76.099078 h -8.302735 v -12.602214 h 8.302735 v 1.489584 h -6.626954 v 3.453125 h 6.626954 V -82.269 h -6.626954 v 4.680339 h 6.626954 z"
         style="font-size:17.33333397px"
         id="path6330" />
      <path
         d="m -42.315102,-76.099078 h -2.175131 l -4.214844,-5.010417 h -2.361328 v 5.010417 h -1.675781 v -12.602214 h 3.529297 q 1.142578,0 1.904297,0.152344 0.761719,0.14388 1.371094,0.52474 0.685546,0.43164 1.066406,1.091796 0.389323,0.651693 0.389323,1.658855 0,1.36263 -0.685547,2.285156 -0.685547,0.914063 -1.88737,1.379557 z m -3.91862,-9.05599 q 0,-0.541666 -0.194662,-0.95638 -0.186198,-0.423177 -0.626302,-0.710937 -0.363932,-0.245443 -0.863281,-0.338542 -0.499349,-0.101563 -1.176433,-0.101563 h -1.972005 v 4.756511 h 1.692709 q 0.795572,0 1.38802,-0.135417 0.592448,-0.14388 1.007162,-0.524739 0.380859,-0.355469 0.558594,-0.8125 0.186198,-0.465495 0.186198,-1.176433 z"
         style="font-size:17.33333397px"
         id="path6332" />
    </g>
    <g
       aria-label="MEHRSPRACHIGKEIT"
       transform="matrix(0.2077159,0,0,0.2077159,56.139135,57.615985)"
       style="font-style:normal;font-variant:normal;font-weight:normal;font-stretch:normal;font-size:40px;line-height:25px;font-family:sans-serif;-inkscape-font-specification:'Century Gothic, Normal';text-align:start;letter-spacing:0px;word-spacing:0px;writing-mode:lr-tb;text-anchor:start;display:inline;fill:#000000;fill-opacity:1;stroke:none;stroke-width:1px;stroke-linecap:butt;stroke-linejoin:miter;stroke-opacity:1"
       id="flowRoot6080-6-0-4">
      <path
         d="m -95.584635,-76.099078 h -1.675781 v -10.858724 l -3.503904,7.388672 h -0.9987 l -3.47852,-7.388672 v 10.858724 h -1.56575 v -12.602214 h 2.28515 l 3.36003,7.016277 3.250001,-7.016277 h 2.327474 z"
         style="font-size:17.33333397px"
         id="path6289" />
      <path
         d="m -83.879556,-76.099078 h -8.302735 v -12.602214 h 8.302735 v 1.489584 h -6.626953 v 3.453125 h 6.626953 V -82.269 h -6.626953 v 4.680339 h 6.626953 z"
         style="font-size:17.33333397px"
         id="path6291" />
      <path
         d="m -71.573567,-76.099078 h -1.675782 V -82.269 h -6.288411 v 6.169922 h -1.675782 v -12.602214 h 1.675782 v 4.942709 h 6.288411 v -4.942709 h 1.675782 z"
         style="font-size:17.33333397px"
         id="path6293" />
      <path
         d="m -57.752602,-76.099078 h -2.175131 l -4.214844,-5.010417 h -2.361328 v 5.010417 h -1.675781 v -12.602214 h 3.529297 q 1.142578,0 1.904297,0.152344 0.761719,0.14388 1.371094,0.52474 0.685546,0.43164 1.066406,1.091796 0.389323,0.651693 0.389323,1.658855 0,1.36263 -0.685547,2.285156 -0.685547,0.914063 -1.88737,1.379557 z m -3.91862,-9.05599 q 0,-0.541666 -0.194662,-0.95638 -0.186198,-0.423177 -0.626302,-0.710937 -0.363932,-0.245443 -0.863281,-0.338542 -0.499349,-0.101563 -1.176433,-0.101563 h -1.972005 v 4.756511 h 1.692709 q 0.795572,0 1.38802,-0.135417 0.592448,-0.14388 1.007162,-0.524739 0.380859,-0.355469 0.558594,-0.8125 0.186198,-0.465495 0.186198,-1.176433 z"
         style="font-size:17.33333397px"
         id="path6295" />
      <path
         d="m -46.970052,-79.696083 q 0,0.736328 -0.347005,1.455729 -0.338542,0.719401 -0.95638,1.21875 -0.677084,0.541667 -1.582682,0.846354 -0.897136,0.304688 -2.166667,0.304688 -1.362631,0 -2.454427,-0.253906 -1.083334,-0.253907 -2.208985,-0.753256 v -2.098958 h 0.11849 q 0.95638,0.795573 2.208984,1.227214 1.252604,0.43164 2.352865,0.43164 1.557292,0 2.420573,-0.583984 0.871745,-0.583985 0.871745,-1.557292 0,-0.837891 -0.414714,-1.235677 -0.40625,-0.397787 -1.244141,-0.617839 -0.634765,-0.16927 -1.379557,-0.279297 -0.736328,-0.110026 -1.565755,-0.279296 -1.675781,-0.355469 -2.488282,-1.210287 -0.804036,-0.863281 -0.804036,-2.242839 0,-1.582682 1.33724,-2.589843 1.337239,-1.015625 3.39388,-1.015625 1.328776,0 2.4375,0.253906 1.108724,0.253906 1.963542,0.626302 v 1.980469 h -0.11849 q -0.719401,-0.609375 -1.895833,-1.007162 -1.167969,-0.40625 -2.395183,-0.40625 -1.345703,0 -2.166666,0.558594 -0.8125,0.558594 -0.8125,1.438802 0,0.78711 0.40625,1.235677 0.40625,0.448568 1.430338,0.685547 0.541667,0.11849 1.540365,0.287761 0.998698,0.16927 1.692708,0.347005 1.404948,0.372396 2.115886,1.125651 0.710937,0.753255 0.710937,2.107422 z"
         style="font-size:17.33333397px"
         id="path6297" />
      <path
         d="m -36.035153,-84.892698 q 0,0.837891 -0.296224,1.557292 -0.287761,0.710937 -0.8125,1.235677 -0.651693,0.651693 -1.540365,0.981771 -0.888672,0.321614 -2.242839,0.321614 h -1.675781 v 4.697266 h -1.675781 v -12.602214 h 3.419271 q 1.134114,0 1.921224,0.194662 0.787109,0.186198 1.396484,0.592448 0.719401,0.482422 1.108724,1.201823 0.397787,0.719401 0.397787,1.819661 z m -1.74349,0.04232 q 0,-0.651693 -0.228516,-1.134115 -0.228515,-0.482422 -0.69401,-0.787109 -0.40625,-0.26237 -0.93099,-0.372396 -0.516276,-0.11849 -1.311849,-0.11849 h -1.658854 v 5.035808 h 1.413412 q 1.015625,0 1.65039,-0.177735 0.634766,-0.186197 1.032552,-0.583984 0.397787,-0.40625 0.558594,-0.854818 0.169271,-0.448567 0.169271,-1.007161 z"
         style="font-size:17.33333397px"
         id="path6299" />
      <path
         d="m -23.390622,-76.099078 h -2.17513 l -4.214844,-5.010417 h -2.361328 v 5.010417 h -1.675782 v -12.602214 h 3.529297 q 1.142578,0 1.904297,0.152344 0.761719,0.14388 1.371094,0.52474 0.685547,0.43164 1.066406,1.091796 0.389323,0.651693 0.389323,1.658855 0,1.36263 -0.685547,2.285156 -0.685547,0.914063 -1.88737,1.379557 z m -3.91862,-9.05599 q 0,-0.541666 -0.194661,-0.95638 -0.186198,-0.423177 -0.626303,-0.710937 -0.363932,-0.245443 -0.863281,-0.338542 -0.499349,-0.101563 -1.176432,-0.101563 h -1.972005 v 4.756511 h 1.692708 q 0.795573,0 1.388021,-0.135417 0.592448,-0.14388 1.007161,-0.524739 0.38086,-0.355469 0.558594,-0.8125 0.186198,-0.465495 0.186198,-1.176433 z"
         style="font-size:17.33333397px"
         id="path6301" />
      <path
         d="m -11.829422,-76.099078 h -1.785807 l -1.235677,-3.51237 h -5.450521 l -1.235677,3.51237 h -1.701172 l 4.58724,-12.602214 h 2.234375 z m -3.53776,-4.951172 -2.208985,-6.186849 -2.217448,6.186849 z"
         style="font-size:17.33333397px"
         id="path6303" />
      <path
         d="m -0.18359333,-77.01314 q -0.46549481,0.203125 -0.84635417,0.380859 -0.3723959,0.177734 -0.9817709,0.372396 -0.5162761,0.160807 -1.1256511,0.270833 -0.6009115,0.11849 -1.3287761,0.11849 -1.3710938,0 -2.4967449,-0.38086 -1.1171875,-0.389322 -1.9466146,-1.210286 -0.8125,-0.804037 -1.2695309,-2.039714 -0.457032,-1.24414 -0.457032,-2.886067 0,-1.557292 0.440105,-2.784506 0.4401037,-1.227213 1.2695308,-2.073568 0.8040365,-0.820963 1.9381511,-1.252604 1.1425782,-0.43164 2.5305991,-0.43164 1.015625,0 2.0227865,0.245442 1.015625,0.245443 2.25130217,0.863282 v 1.988932 h -0.12695313 q -1.04101564,-0.871745 -2.06510424,-1.269531 -1.0240886,-0.397787 -2.1920574,-0.397787 -0.9563802,0 -1.7265625,0.313151 -0.7617188,0.304688 -1.3626303,0.95638 -0.5839844,0.634766 -0.9140625,1.608073 -0.3216146,0.964844 -0.3216146,2.234376 0,1.328776 0.3554687,2.285156 0.3639323,0.95638 0.9309897,1.557292 0.5924479,0.626302 1.3795573,0.930989 0.7955729,0.296224 1.6757813,0.296224 1.2102865,0 2.2682293,-0.414713 1.0579427,-0.414714 1.98046878,-1.244141 h 0.11848959 z"
         style="font-size:17.33333397px"
         id="path6305" />
      <path
         d="M 11.843104,-76.099078 H 10.167323 V -82.269 H 3.8789115 v 6.169922 H 2.2031301 v -12.602214 h 1.6757814 v 4.942709 h 6.2884115 v -4.942709 h 1.675781 z"
         style="font-size:17.33333397px"
         id="path6307" />
      <path
         d="m 19.680341,-76.099078 h -4.976562 v -1.286458 h 1.65039 v -10.029297 h -1.65039 v -1.286459 h 4.976562 v 1.286459 h -1.65039 v 10.029297 h 1.65039 z"
         style="font-size:17.33333397px"
         id="path6309" />
      <path
         d="m 33.061209,-77.030067 q -1.032553,0.473958 -2.259766,0.829427 -1.21875,0.347005 -2.361328,0.347005 -1.472657,0 -2.69987,-0.40625 -1.227214,-0.40625 -2.090495,-1.21875 -0.871745,-0.820964 -1.345703,-2.048177 -0.473959,-1.235677 -0.473959,-2.886068 0,-3.021485 1.760417,-4.764974 1.76888,-1.751953 4.84961,-1.751953 1.074869,0 2.192057,0.262369 1.125651,0.253907 2.420573,0.871745 v 1.988933 h -0.152344 q -0.26237,-0.203125 -0.761719,-0.533204 -0.499349,-0.330078 -0.98177,-0.55013 -0.583985,-0.26237 -1.328776,-0.43164 -0.736329,-0.177735 -1.675782,-0.177735 -2.115885,0 -3.351562,1.36263 -1.227214,1.354167 -1.227214,3.673178 0,2.445963 1.286458,3.808594 1.286459,1.354166 3.503907,1.354166 0.8125,0 1.616536,-0.160807 0.8125,-0.160807 1.421875,-0.414714 v -3.089192 h -3.376953 v -1.472657 h 5.035808 z"
         style="font-size:17.33333397px"
         id="path6311" />
      <path
         d="m 46.120443,-76.099078 h -2.17513 l -4.985026,-5.611328 -1.252605,1.33724 v 4.274088 h -1.675781 v -12.602214 h 1.675781 v 6.576172 l 6.119141,-6.576172 h 2.03125 l -5.628255,5.92448 z"
         style="font-size:17.33333397px"
         id="path6313" />
      <path
         d="m 56.310552,-76.099078 h -8.302734 v -12.602214 h 8.302734 v 1.489584 h -6.626953 v 3.453125 h 6.626953 V -82.269 h -6.626953 v 4.680339 h 6.626953 z"
         style="font-size:17.33333397px"
         id="path6315" />
      <path
         d="m 63.419927,-76.099078 h -4.976562 v -1.286458 h 1.65039 v -10.029297 h -1.65039 v -1.286459 h 4.976562 v 1.286459 h -1.65039 v 10.029297 h 1.65039 z"
         style="font-size:17.33333397px"
         id="path6317" />
      <path
         d="m 75.277349,-87.211708 h -4.502604 v 11.11263 h -1.675781 v -11.11263 h -4.502605 v -1.489584 h 10.68099 z"
         style="font-size:17.33333397px"
         id="path6319" />
    </g>
  </g>
</svg>
