<?xml version="1.0" encoding="UTF-8" standalone="no"?>
<!-- Created with Inkscape (http://www.inkscape.org/) -->

<svg
   xmlns:dc="http://purl.org/dc/elements/1.1/"
   xmlns:cc="http://creativecommons.org/ns#"
   xmlns:rdf="http://www.w3.org/1999/02/22-rdf-syntax-ns#"
   xmlns:svg="http://www.w3.org/2000/svg"
   xmlns="http://www.w3.org/2000/svg"
   xmlns:sodipodi="http://sodipodi.sourceforge.net/DTD/sodipodi-0.dtd"
   xmlns:inkscape="http://www.inkscape.org/namespaces/inkscape"
   width="16.090061mm"
   height="10.828129mm"
   viewBox="0 0 16.090061 10.828129"
   version="1.1"
   id="svg4666"
   inkscape:version="0.92.0 r15299"
   sodipodi:docname="VA_Version.svg">
  <defs
     id="defs4660" />
  <sodipodi:namedview
     id="base"
     pagecolor="#ffffff"
     bordercolor="#666666"
     borderopacity="1.0"
     inkscape:pageopacity="0.0"
     inkscape:pageshadow="2"
     inkscape:zoom="8.4862118"
     inkscape:cx="40.745135"
     inkscape:cy="41.290142"
     inkscape:document-units="mm"
     inkscape:current-layer="layer1"
     showgrid="false"
     fit-margin-top="0"
     fit-margin-left="0"
     fit-margin-right="0"
     fit-margin-bottom="0"
     inkscape:pagecheckerboard="true"
     inkscape:window-width="1920"
     inkscape:window-height="1138"
     inkscape:window-x="-8"
     inkscape:window-y="-8"
     inkscape:window-maximized="1" />
  <metadata
     id="metadata4663">
    <rdf:RDF>
      <cc:Work
         rdf:about="">
        <dc:format>image/svg+xml</dc:format>
        <dc:type
           rdf:resource="http://purl.org/dc/dcmitype/StillImage" />
        <dc:title></dc:title>
      </cc:Work>
    </rdf:RDF>
  </metadata>
  <g
     inkscape:label="Ebene 1"
     inkscape:groupmode="layer"
     id="layer1"
     transform="translate(-67.550212,-49.681174)">
    <g
       id="g4591"
       transform="translate(-210.58827,5.3745409)">
      <g
         id="g4611"
         transform="translate(18.167404,41.132496)">
        <g
           aria-label="/"
           transform="matrix(0.22328539,0,0,0.26458333,195.88244,-82.268279)"
           style="font-style:normal;font-weight:normal;font-size:40px;line-height:1.25;font-family:sans-serif;letter-spacing:0px;word-spacing:0px;display:inline;fill:#000000;fill-opacity:1;stroke:none"
           id="flowRoot4777">
          <path
             inkscape:connector-curvature="0"
             d="m 345.09102,323.82634 -18.75097,40.03084 -2.28219,-0.77101 18.75097,-40.1542 z"
             style="font-style:normal;font-variant:normal;font-weight:normal;font-stretch:normal;font-family:Kabel;-inkscape-font-specification:Kabel;fill:#ffffff;fill-opacity:1"
             id="path4641" />
        </g>
        <g
           id="g4752"
           transform="translate(-4.4555994,-2.377545)">
          <g
             id="flowRoot4737"
             style="font-style:normal;font-variant:normal;font-weight:normal;font-stretch:normal;font-size:39.17893219px;line-height:1.25;font-family:Kabel;-inkscape-font-specification:'Kabel, Normal';font-variant-ligatures:normal;font-variant-caps:normal;font-variant-numeric:normal;font-feature-settings:normal;text-align:start;letter-spacing:0px;word-spacing:0px;writing-mode:lr-tb;text-anchor:start;display:inline;fill:#000000;fill-opacity:1;stroke:none"
             transform="matrix(0.20021203,0,0,0.23450186,168.91361,-69.295563)"
             aria-label="1">
            <path
               id="path4647"
               style="font-style:normal;font-variant:normal;font-weight:normal;font-stretch:normal;font-size:39.17893219px;font-family:Kabel;-inkscape-font-specification:'Kabel, Normal';font-variant-ligatures:normal;font-variant-caps:normal;font-variant-numeric:normal;font-feature-settings:normal;text-align:start;writing-mode:lr-tb;text-anchor:start;fill:#ffffff;fill-opacity:1"
               d="m 488.90086,326.78321 -0.0302,31.71772 -2.93011,0.57394 0.0302,-27.15641 -7.94454,4.68214 -0.96663,-2.20514 z"
               inkscape:connector-curvature="0" />
          </g>
          <g
             id="flowRoot4737-2"
             style="font-style:normal;font-variant:normal;font-weight:normal;font-stretch:normal;font-size:39.17893219px;line-height:1.25;font-family:Kabel;-inkscape-font-specification:'Kabel, Normal';font-variant-ligatures:normal;font-variant-caps:normal;font-variant-numeric:normal;font-feature-settings:normal;text-align:start;letter-spacing:0px;word-spacing:0px;writing-mode:lr-tb;text-anchor:start;display:inline;fill:#000000;fill-opacity:1;stroke:none"
             transform="matrix(0.20021203,0,0,0.23450186,172.32954,-69.375925)"
             aria-label="8">
            <path
               id="path4644"
               style="font-style:normal;font-variant:normal;font-weight:normal;font-stretch:normal;font-size:39.17893219px;font-family:Kabel;-inkscape-font-specification:'Kabel, Normal';font-variant-ligatures:normal;font-variant-caps:normal;font-variant-numeric:normal;font-feature-settings:normal;text-align:start;writing-mode:lr-tb;text-anchor:start;fill:#ffffff;fill-opacity:1"
               d="m 496.15062,350.67722 q 0,4.01758 -3.26239,6.46437 -2.77908,2.08431 -6.04147,2.08431 -4.34986,0 -7.03831,-2.477 -2.65825,-2.50721 -2.65825,-6.31334 0,-2.77907 1.6312,-4.92379 1.63119,-2.14473 3.62488,-2.80929 -1.81244,-0.90622 -3.05094,-2.71866 -1.38954,-2.0541 -1.38954,-4.62172 0,-3.56447 2.59783,-5.79982 2.477,-2.11451 6.04147,-2.11451 3.47384,0 5.95085,2.02389 2.71866,2.23535 2.71866,5.89044 0,3.38322 -2.23534,5.58836 -0.84581,0.8458 -2.32597,1.57078 2.14472,0.72497 3.77592,2.93011 1.6614,2.17493 1.6614,5.22587 z m -3.7155,-15.46616 q -0.24166,-2.26555 -1.87286,-3.65509 -1.60099,-1.41975 -4.01757,-1.41975 -2.56763,0 -4.19883,1.6312 -1.60099,1.60099 -1.60099,3.98737 0,2.4468 1.57079,4.07799 1.60099,1.60099 4.22903,1.60099 2.56762,0 4.22902,-1.63119 1.69162,-1.66141 1.69162,-4.01758 0,-0.3927 -0.0302,-0.57394 z m 0.72497,15.13388 q 0,-2.8999 -1.96347,-4.62172 -1.96348,-1.75203 -4.80297,-1.75203 -2.59783,0 -4.44048,1.81244 -1.81244,1.78223 -1.81244,4.47069 0,2.8999 1.81244,4.5311 1.84265,1.6312 4.71234,1.6312 2.65825,0 4.56131,-1.69161 1.93327,-1.72182 1.93327,-4.38007 z"
               inkscape:connector-curvature="0" />
          </g>
        </g>
        <g
           aria-label="1"
           transform="matrix(0.1763101,0,0,0.23450186,151.13219,-72.100519)"
           style="font-style:normal;font-variant:normal;font-weight:normal;font-stretch:normal;font-size:41.75025177px;line-height:1.25;font-family:Kabel;-inkscape-font-specification:'Kabel, Normal';font-variant-ligatures:normal;font-variant-caps:normal;font-variant-numeric:normal;font-feature-settings:normal;text-align:start;letter-spacing:0px;word-spacing:0px;writing-mode:lr-tb;text-anchor:start;display:inline;fill:#000000;fill-opacity:1;stroke:none"
           id="flowRoot4795">
          <path
             inkscape:connector-curvature="0"
             d="m 708.57511,328.60584 -0.0322,33.79936 -3.12242,0.6116 0.0322,-28.93868 -8.46593,4.98942 -1.03008,-2.34986 z"
             style="font-style:normal;font-variant:normal;font-weight:normal;font-stretch:normal;font-size:41.75025177px;font-family:Kabel;-inkscape-font-specification:'Kabel, Normal';font-variant-ligatures:normal;font-variant-caps:normal;font-variant-numeric:normal;font-feature-settings:normal;text-align:start;writing-mode:lr-tb;text-anchor:start;fill:#ffffff"
             id="path4638" />
        </g>
      </g>
    </g>
  </g>
</svg>
